<svg version="1.1" id="Calque_1" xmlns="http://www.w3.org/2000/svg" x="0" y="0" viewBox="0 0 341.8 72.6" style="enable-background:new 0 0 341.8 72.6" xml:space="preserve"><style>.st0{fill:#fff}</style><path d="M77.5 30.8v8.3c0 1.6-1.3 2.8-2.8 2.8H54.9c-1.6 0-2.8 1.3-2.8 2.8v2c0 .7.3 1.4.8 2l2.4 2.4c.5.5 1.2.8 2 .8h10.1c.7 0 1.4-.3 2-.8l2.1-2.1c1.1-1.1 2.8-1.1 3.9 0s1.1 2.8 0 3.9l-3.6 3.6c-.5.5-1.2.8-2 .8H54.6c-.7 0-1.4-.3-2-.8l-5.8-5.8c-.5-.5-.8-1.2-.8-1.9v-18c0-.7.3-1.4.8-2l5.8-5.8c.5-.5 1.2-.8 2-.8h14.3c.7 0 1.4.3 2 .8l5.8 5.8c.5.6.8 1.3.8 2zm-6 3.1v-1.1c0-.7-.3-1.4-.8-2l-2.5-2.4c-.5-.5-1.2-.8-2-.8h-8.9c-.7 0-1.4.3-2 .8l-2.4 2.4c-.5.5-.8 1.2-.8 2v1.1c0 1.6 1.3 2.8 2.8 2.8h13.8c1.5 0 2.8-1.3 2.8-2.8zM87.8 6.2c1.6 0 3 1.4 3 3V11c0 1.6-1.4 3-3 3s-3-1.4-3-3V9.2c-.1-1.6 1.2-3 3-3zm0 16.1c1.6 0 3 1.4 3 3v28.9c0 1.6-1.4 3-3 3s-3-1.4-3-3V25.3c-.1-1.7 1.2-3 3-3zM121.5 56.4l-11-11.2c-1.7-1.8-4.7-.5-4.7 1.9v7.4c0 1.5-1.2 2.7-2.7 2.7h-.6c-1.5 0-2.7-1.2-2.7-2.7V8.3c0-1.5 1.2-2.7 2.7-2.7h.6c1.5 0 2.7 1.2 2.7 2.7v23.5c0 2.4 3 3.7 4.7 1.9L121 23.1c.5-.5 1.2-.9 1.9-.9 2.4 0 3.6 2.9 1.9 4.6l-10.2 10.5c-1.1 1.1-1.1 2.8 0 3.8l11.3 11.4c1.7 1.7.5 4.6-1.9 4.6h-.5c-.8.2-1.5-.1-2-.7zM164.2 32.5V47c0 1.8-.7 3.6-2 4.8l-3.3 3.3c-1.3 1.3-3.1 2-4.8 2h-11c-1.8 0-3.6-.7-4.8-2l-3.3-3.3c-1.3-1.3-2-3.1-2-4.8V32.5c0-1.8.7-3.6 2-4.8l3.3-3.3c1.3-1.3 3.1-2 4.8-2h11c1.8 0 3.6.7 4.8 2l3.3 3.3c1.3 1.3 2 3 2 4.8zm-6 12.5V34.5c0-1.8-.7-3.6-2-4.8-1.4-1.3-3.1-2-4.9-2h-5.6c-1.8 0-3.6.7-4.8 2-1.3 1.3-2 3.1-2 4.8V45c0 1.8.7 3.6 2 4.8 1.3 1.3 3.1 2 4.8 2h5.6c1.8 0 3.6-.7 4.8-2 1.4-1.2 2.1-3 2.1-4.8zM202.2 29.3v25.9c0 1.1-.9 2.1-2.1 2.1h-1.9c-1.1 0-2.1-.9-2.1-2.1V31.6c0-.6-.2-1.1-.6-1.5l-1.8-1.8c-.4-.4-.9-.6-1.5-.6h-6.7c-.6 0-1.1.2-1.5.6l-5.5 5.5c-.4.4-.6.9-.6 1.5v20.1c0 1.1-.9 2.1-2.1 2.1h-1.9c-1.1 0-2.1-.9-2.1-2.1V24.3c0-1.1.9-2.1 2.1-2.1h1.4c1.1 0 2 .9 2.1 2 .1 1.8 2.3 2.6 3.6 1.4l2.8-2.8c.4-.4.9-.6 1.5-.6h9.9c.6 0 1.1.2 1.5.6l5 5c.3.5.5.9.5 1.5zM213.7 6.2c1.6 0 3 1.4 3 3V11c0 1.6-1.4 3-3 3s-3-1.4-3-3V9.2c0-1.6 1.4-3 3-3zm0 16.1c1.6 0 3 1.4 3 3v28.9c0 1.6-1.4 3-3 3s-3-1.4-3-3V25.3c0-1.7 1.4-3 3-3zM252.7 52.9l-3.6 3.6c-.5.5-1.2.8-2 .8H233c-.7 0-1.4-.3-2-.8l-5.8-5.8c-.5-.5-.8-1.2-.8-2V30.8c0-.7.3-1.4.8-2L231 23c.5-.5 1.2-.8 2-.8h13.9c.7 0 1.4.3 2 .8l3.6 3.6c1.1 1.1 1.1 2.8 0 3.9s-2.8 1.1-3.9 0l-2.1-2.1c-.5-.5-1.2-.8-2-.8h-8.7c-.7 0-1.4.3-2 .8l-2.3 2.3c-.5.5-.8 1.2-.8 2v13.9c0 .7.3 1.4.8 2l2.3 2.3c.5.5 1.2.8 2 .8h9.1c.7 0 1.4-.3 2-.8l2.1-2.1c1.1-1.1 2.8-1.1 3.9 0 .9 1.3.9 3.1-.2 4.1zM289.1 29.3v25.9c0 1.1-.9 2.1-2.1 2.1h-1.4c-1.1 0-2-.9-2.1-2-.1-1.8-2.3-2.6-3.6-1.4l-2.8 2.8c-.4.4-.9.6-1.5.6h-11.2c-.6 0-1.1-.2-1.5-.6l-4.8-4.8c-.4-.4-.6-.9-.6-1.5V44c0-.6.2-1.1.6-1.5l4.1-4.1c.4-.4.9-.6 1.4-.6l17.3-1.2c1.1-.1 1.9-1 1.9-2.1v-3.1c0-.6-.2-1.1-.6-1.5l-1.9-1.9c-.4-.4-.9-.6-1.5-.6H268c-.6 0-1.1.2-1.5.6l-2.6 2.6c-.8.8-2.1.8-2.9 0l-1-1c-.8-.8-.8-2.1 0-2.9l4-4c.4-.4.9-.6 1.5-.6H282c.6 0 1.1.2 1.5.6l5 5c.4.6.6 1 .6 1.6zm-6 15V44c0-1.2-1-2.1-2.2-2.1l-14.2 1c-.5 0-1 .2-1.3.6l-.9.9c-.4.4-.6.9-.6 1.5v2.4c0 .6.2 1.1.6 1.5l1.4 1.4c.4.4.9.6 1.5.6h8.1c.6 0 1.1-.2 1.5-.6l5.5-5.5c.4-.2.6-.8.6-1.4z"/><path class="st0" d="M44.2 115.1v11.7c0 2.2-1.8 3.9-3.9 3.9H12.4c-2.2 0-3.9 1.8-3.9 3.9v2.8c0 1 .4 2 1.1 2.8l3.4 3.4c.7.7 1.7 1.1 2.8 1.1H30c1 0 2-.4 2.8-1.1l3-3c1.5-1.5 4-1.5 5.5 0s1.5 4 0 5.5l-5 5c-.7.7-1.7 1.1-2.8 1.1H12c-1 0-2-.4-2.8-1.1L1.1 143c-.7-.7-1.1-1.7-1.1-2.7v-25.2c0-1 .4-2 1.1-2.8l8.1-8.1c.7-.7 1.7-1.1 2.8-1.1h20.1c1 0 2 .4 2.8 1.1l8.1 8.1c.7.8 1.2 1.8 1.2 2.8zm-8.5 4.3v-1.5c0-1-.4-2-1.1-2.8l-3.5-3.4c-.7-.7-1.7-1.1-2.8-1.1H15.8c-1 0-2 .4-2.8 1.1l-3.4 3.4c-.7.7-1.1 1.7-1.1 2.8v1.5c0 2.2 1.8 3.9 3.9 3.9h19.4c2.1.1 3.9-1.7 3.9-3.9zM58.6 80.5c2.3 0 4.2 1.9 4.2 4.2v2.5c0 2.3-1.9 4.2-4.2 4.2-2.3 0-4.2-1.9-4.2-4.2v-2.5c-.1-2.3 1.8-4.2 4.2-4.2zm0 22.6c2.3 0 4.2 1.9 4.2 4.2V148c0 2.3-1.9 4.2-4.2 4.2-2.3 0-4.2-1.9-4.2-4.2v-40.7c-.1-2.3 1.8-4.2 4.2-4.2zM106 151.1l-15.4-15.7c-2.4-2.5-6.6-.7-6.6 2.7v10.4c0 2.1-1.7 3.8-3.8 3.8h-.8c-2.1 0-3.8-1.7-3.8-3.8v-65c0-2.1 1.7-3.8 3.8-3.8h.8c2.1 0 3.8 1.7 3.8 3.8v33c0 3.4 4.2 5.2 6.6 2.7l14.7-15c.7-.7 1.7-1.2 2.7-1.2 3.4 0 5.1 4.1 2.7 6.5l-14.4 14.8c-1.5 1.5-1.5 3.9 0 5.4l15.9 16c2.4 2.4.7 6.5-2.7 6.5h-.7c-1.1.1-2-.3-2.8-1.1zM166.1 117.5v20.4c0 2.6-1 5-2.8 6.8l-4.7 4.7c-1.8 1.8-4.3 2.8-6.8 2.8h-15.4c-2.6 0-5-1-6.8-2.8l-4.7-4.7c-1.8-1.8-2.8-4.3-2.8-6.8v-20.4c0-2.6 1-5 2.8-6.8l4.7-4.7c1.8-1.8 4.3-2.8 6.8-2.8h15.4c2.6 0 5 1 6.8 2.8l4.7 4.7c1.8 1.8 2.8 4.2 2.8 6.8zm-8.4 17.6v-14.8c0-2.6-1-5-2.8-6.8-1.9-1.8-4.3-2.8-6.9-2.8h-7.9c-2.6 0-5 1-6.8 2.8-1.8 1.8-2.8 4.3-2.8 6.8v14.8c0 2.6 1 5 2.8 6.8 1.8 1.8 4.3 2.8 6.8 2.8h7.9c2.6 0 5-1 6.8-2.8 1.9-1.8 2.9-4.3 2.9-6.8zM219.5 113v36.4c0 1.6-1.3 2.9-2.9 2.9h-2.7c-1.6 0-2.9-1.3-2.9-2.9v-33.2c0-.8-.3-1.5-.9-2.1l-2.6-2.6c-.5-.5-1.3-.9-2.1-.9H196c-.8 0-1.5.3-2.1.9l-7.7 7.7c-.5.5-.9 1.3-.9 2.1v28.2c0 1.6-1.3 2.9-2.9 2.9h-2.7c-1.6 0-2.9-1.3-2.9-2.9V106c0-1.6 1.3-2.9 2.9-2.9h2c1.6 0 2.8 1.2 2.9 2.8.1 2.5 3.2 3.7 5 1.9l3.9-3.9c.5-.5 1.3-.9 2.1-.9h13.9c.8 0 1.5.3 2.1.9l7 7c.6.6.9 1.3.9 2.1zM235.7 80.5c2.3 0 4.2 1.9 4.2 4.2v2.5c0 2.3-1.9 4.2-4.2 4.2-2.3 0-4.2-1.9-4.2-4.2v-2.5c0-2.3 1.9-4.2 4.2-4.2zm0 22.6c2.3 0 4.2 1.9 4.2 4.2V148c0 2.3-1.9 4.2-4.2 4.2-2.3 0-4.2-1.9-4.2-4.2v-40.7c0-2.3 1.9-4.2 4.2-4.2zM290.6 146.2l-5 5c-.7.7-1.7 1.1-2.8 1.1h-20c-1 0-2-.4-2.8-1.1l-8.1-8.1c-.7-.7-1.1-1.7-1.1-2.8v-25.2c0-1 .4-2 1.1-2.8l8.1-8.1c.7-.7 1.7-1.1 2.8-1.1h19.5c1 0 2 .4 2.8 1.1l5 5c1.5 1.5 1.5 4 0 5.5s-4 1.5-5.5 0l-2.9-2.9c-.7-.7-1.7-1.1-2.8-1.1h-12.3c-1 0-2 .4-2.8 1.1l-3.3 3.3c-.7.7-1.1 1.7-1.1 2.8v19.5c0 1 .4 2 1.1 2.8l3.3 3.3c.7.7 1.7 1.1 2.8 1.1h12.8c1 0 2-.4 2.8-1.1l2.9-2.9c1.5-1.5 4-1.5 5.5 0 1.5 1.6 1.5 4.1 0 5.6zM341.8 113v36.4c0 1.6-1.3 2.9-2.9 2.9h-2c-1.6 0-2.8-1.2-2.9-2.8-.1-2.5-3.2-3.7-5-1.9l-3.9 3.9c-.5.5-1.3.9-2.1.9h-15.7c-.8 0-1.5-.3-2.1-.9l-6.7-6.7c-.5-.5-.9-1.3-.9-2.1v-9.1c0-.8.3-1.5.9-2.1l5.7-5.7c.5-.5 1.2-.8 1.9-.8l24.3-1.7c1.5-.1 2.7-1.4 2.7-2.9v-4.3c0-.8-.3-1.5-.9-2.1l-2.7-2.7c-.5-.5-1.3-.9-2.1-.9h-15.2c-.8 0-1.5.3-2.1.9l-3.7 3.7c-1.1 1.1-3 1.1-4.1 0l-1.4-1.4c-1.1-1.1-1.1-3 0-4.1l5.6-5.6c.5-.5 1.3-.9 2.1-.9h23.1c.8 0 1.5.3 2.1.9l7 7c.7.6 1 1.3 1 2.1zm-8.5 21.1v-.4c0-1.7-1.4-3-3.1-2.9l-19.9 1.4c-.7 0-1.4.3-1.8.8l-1.3 1.3c-.5.5-.9 1.3-.9 2.1v3.4c0 .8.3 1.5.9 2.1l2 2c.5.5 1.3.9 2.1.9h11.4c.8 0 1.5-.3 2.1-.9l7.8-7.8c.4-.4.7-1.2.7-2z"/></svg>