<?xml version="1.0" encoding="utf-8"?>
<!-- Generator: Adobe Illustrator 26.5.0, SVG Export Plug-In . SVG Version: 6.00 Build 0)  -->
<svg version="1.1" id="Calque_1" xmlns="http://www.w3.org/2000/svg" xmlns:xlink="http://www.w3.org/1999/xlink" x="0px" y="0px" viewBox="0 0 341.8 72.6" style="enable-background: new 0 0 341.8 72.6" xml:space="preserve">
<style>.st0 {
  fill: #fff;
}

</style>
<g>
	<g>
		<path d="M44.2,35.4v11.7c0,2.2-1.8,3.9-3.9,3.9H12.4c-2.2,0-3.9,1.8-3.9,3.9v2.8c0,1,0.4,2,1.1,2.8l3.4,3.4
			c0.7,0.7,1.7,1.1,2.8,1.1H30c1,0,2-0.4,2.8-1.1l3-3c1.5-1.5,4-1.5,5.5,0l0,0c1.5,1.5,1.5,4,0,5.5l-5,5c-0.7,0.7-1.7,1.1-2.8,1.1
			H12c-1,0-2-0.4-2.8-1.1l-8.1-8.1C0.4,62.6,0,61.6,0,60.6V35.4c0-1,0.4-2,1.1-2.8l8.1-8.1c0.7-0.7,1.7-1.1,2.8-1.1h20.1
			c1,0,2,0.4,2.8,1.1l8.1,8.1C43.7,33.4,44.2,34.4,44.2,35.4z M35.7,39.7v-1.5c0-1-0.4-2-1.1-2.8L31.1,32c-0.7-0.7-1.7-1.1-2.8-1.1
			H15.8c-1,0-2,0.4-2.8,1.1l-3.4,3.4c-0.7,0.7-1.1,1.7-1.1,2.8v1.5c0,2.2,1.8,3.9,3.9,3.9h19.4C33.9,43.7,35.7,41.9,35.7,39.7z"></path>
		<path d="M58.6,0.8L58.6,0.8c2.3,0,4.2,1.9,4.2,4.2v2.5c0,2.3-1.9,4.2-4.2,4.2l0,0c-2.3,0-4.2-1.9-4.2-4.2V5
			C54.3,2.7,56.2,0.8,58.6,0.8z M58.6,23.4L58.6,23.4c2.3,0,4.2,1.9,4.2,4.2v40.7c0,2.3-1.9,4.2-4.2,4.2l0,0c-2.3,0-4.2-1.9-4.2-4.2
			V27.6C54.3,25.3,56.2,23.4,58.6,23.4z"></path>
		<path d="M106,71.4L90.6,55.7C88.2,53.2,84,55,84,58.4v10.4c0,2.1-1.7,3.8-3.8,3.8h-0.8c-2.1,0-3.8-1.7-3.8-3.8v-65
			c0-2.1,1.7-3.8,3.8-3.8h0.8C82.3,0,84,1.7,84,3.8v33c0,3.4,4.2,5.2,6.6,2.7l14.7-15c0.7-0.7,1.7-1.2,2.7-1.2l0,0
			c3.4,0,5.1,4.1,2.7,6.5L96.3,44.6c-1.5,1.5-1.5,3.9,0,5.4l15.9,16c2.4,2.4,0.7,6.5-2.7,6.5h-0.7C107.7,72.6,106.8,72.2,106,71.4z"></path>
		<path d="M166.1,37.8v20.4c0,2.6-1,5-2.8,6.8l-4.7,4.7c-1.8,1.8-4.3,2.8-6.8,2.8h-15.4c-2.6,0-5-1-6.8-2.8l-4.7-4.7
			c-1.8-1.8-2.8-4.3-2.8-6.8V37.8c0-2.6,1-5,2.8-6.8l4.7-4.7c1.8-1.8,4.3-2.8,6.8-2.8h15.4c2.6,0,5,1,6.8,2.8l4.7,4.7
			C165.1,32.8,166.1,35.2,166.1,37.8z M157.7,55.4V40.6c0-2.6-1-5-2.8-6.8l0,0C153,32,150.6,31,148,31h-7.9c-2.6,0-5,1-6.8,2.8l0,0
			c-1.8,1.8-2.8,4.3-2.8,6.8v14.8c0,2.6,1,5,2.8,6.8l0,0c1.8,1.8,4.3,2.8,6.8,2.8h7.9c2.6,0,5-1,6.8-2.8l0,0
			C156.7,60.4,157.7,57.9,157.7,55.4z"></path>
		<path d="M219.5,33.3v36.4c0,1.6-1.3,2.9-2.9,2.9h-2.7c-1.6,0-2.9-1.3-2.9-2.9V36.5c0-0.8-0.3-1.5-0.9-2.1l-2.6-2.6
			c-0.5-0.5-1.3-0.9-2.1-0.9H196c-0.8,0-1.5,0.3-2.1,0.9l-7.7,7.7c-0.5,0.5-0.9,1.3-0.9,2.1v28.2c0,1.6-1.3,2.9-2.9,2.9h-2.7
			c-1.6,0-2.9-1.3-2.9-2.9V26.3c0-1.6,1.3-2.9,2.9-2.9h2c1.6,0,2.8,1.2,2.9,2.8l0,0c0.1,2.5,3.2,3.7,5,1.9l3.9-3.9
			c0.5-0.5,1.3-0.9,2.1-0.9h13.9c0.8,0,1.5,0.3,2.1,0.9l7,7C219.2,31.8,219.5,32.5,219.5,33.3z"></path>
		<path d="M235.7,0.8L235.7,0.8c2.3,0,4.2,1.9,4.2,4.2v2.5c0,2.3-1.9,4.2-4.2,4.2l0,0c-2.3,0-4.2-1.9-4.2-4.2V5
			C231.5,2.7,233.4,0.8,235.7,0.8z M235.7,23.4L235.7,23.4c2.3,0,4.2,1.9,4.2,4.2v40.7c0,2.3-1.9,4.2-4.2,4.2l0,0
			c-2.3,0-4.2-1.9-4.2-4.2V27.6C231.5,25.3,233.4,23.4,235.7,23.4z"></path>
		<path d="M290.6,66.5l-5,5c-0.7,0.7-1.7,1.1-2.8,1.1h-20c-1,0-2-0.4-2.8-1.1l-8.1-8.1c-0.7-0.7-1.1-1.7-1.1-2.8V35.4
			c0-1,0.4-2,1.1-2.8l8.1-8.1c0.7-0.7,1.7-1.1,2.8-1.1h19.5c1,0,2,0.4,2.8,1.1l5,5c1.5,1.5,1.5,4,0,5.5l0,0c-1.5,1.5-4,1.5-5.5,0
			l-2.9-2.9c-0.7-0.7-1.7-1.1-2.8-1.1h-12.3c-1,0-2,0.4-2.8,1.1l-3.3,3.3c-0.7,0.7-1.1,1.7-1.1,2.8v19.5c0,1,0.4,2,1.1,2.8l3.3,3.3
			c0.7,0.7,1.7,1.1,2.8,1.1h12.8c1,0,2-0.4,2.8-1.1l2.9-2.9c1.5-1.5,4-1.5,5.5,0l0,0C292.1,62.5,292.1,65,290.6,66.5z"></path>
		<path d="M341.8,33.3v36.4c0,1.6-1.3,2.9-2.9,2.9h-2c-1.6,0-2.8-1.2-2.9-2.8l0,0c-0.1-2.5-3.2-3.7-5-1.9l-3.9,3.9
			c-0.5,0.5-1.3,0.9-2.1,0.9h-15.7c-0.8,0-1.5-0.3-2.1-0.9l-6.7-6.7c-0.5-0.5-0.9-1.3-0.9-2.1v-9.1c0-0.8,0.3-1.5,0.9-2.1l5.7-5.7
			c0.5-0.5,1.2-0.8,1.9-0.8l24.3-1.7c1.5-0.1,2.7-1.4,2.7-2.9v-4.3c0-0.8-0.3-1.5-0.9-2.1l-2.7-2.7c-0.5-0.5-1.3-0.9-2.1-0.9h-15.2
			c-0.8,0-1.5,0.3-2.1,0.9l-3.7,3.7c-1.1,1.1-3,1.1-4.1,0l-1.4-1.4c-1.1-1.1-1.1-3,0-4.1l5.6-5.6c0.5-0.5,1.3-0.9,2.1-0.9h23.1
			c0.8,0,1.5,0.3,2.1,0.9l7,7C341.5,31.8,341.8,32.5,341.8,33.3z M333.3,54.4V54c0-1.7-1.4-3-3.1-2.9l-19.9,1.4
			c-0.7,0-1.4,0.3-1.8,0.8l-1.3,1.3c-0.5,0.5-0.9,1.3-0.9,2.1v3.4c0,0.8,0.3,1.5,0.9,2.1l2,2c0.5,0.5,1.3,0.9,2.1,0.9h11.4
			c0.8,0,1.5-0.3,2.1-0.9l7.8-7.8C333,56,333.3,55.2,333.3,54.4z"></path>
	</g>
</g>
<g>
	<g>
		<path class="st0" d="M44.2,115.1v11.7c0,2.2-1.8,3.9-3.9,3.9H12.4c-2.2,0-3.9,1.8-3.9,3.9v2.8c0,1,0.4,2,1.1,2.8l3.4,3.4
			c0.7,0.7,1.7,1.1,2.8,1.1H30c1,0,2-0.4,2.8-1.1l3-3c1.5-1.5,4-1.5,5.5,0l0,0c1.5,1.5,1.5,4,0,5.5l-5,5c-0.7,0.7-1.7,1.1-2.8,1.1
			H12c-1,0-2-0.4-2.8-1.1L1.1,143c-0.7-0.7-1.1-1.7-1.1-2.7v-25.2c0-1,0.4-2,1.1-2.8l8.1-8.1c0.7-0.7,1.7-1.1,2.8-1.1h20.1
			c1,0,2,0.4,2.8,1.1l8.1,8.1C43.7,113.1,44.2,114.1,44.2,115.1z M35.7,119.4v-1.5c0-1-0.4-2-1.1-2.8l-3.5-3.4
			c-0.7-0.7-1.7-1.1-2.8-1.1H15.8c-1,0-2,0.4-2.8,1.1l-3.4,3.4c-0.7,0.7-1.1,1.7-1.1,2.8v1.5c0,2.2,1.8,3.9,3.9,3.9h19.4
			C33.9,123.4,35.7,121.6,35.7,119.4z"></path>
		<path class="st0" d="M58.6,80.5L58.6,80.5c2.3,0,4.2,1.9,4.2,4.2v2.5c0,2.3-1.9,4.2-4.2,4.2l0,0c-2.3,0-4.2-1.9-4.2-4.2v-2.5
			C54.3,82.4,56.2,80.5,58.6,80.5z M58.6,103.1L58.6,103.1c2.3,0,4.2,1.9,4.2,4.2V148c0,2.3-1.9,4.2-4.2,4.2l0,0
			c-2.3,0-4.2-1.9-4.2-4.2v-40.7C54.3,105,56.2,103.1,58.6,103.1z"></path>
		<path class="st0" d="M106,151.1l-15.4-15.7c-2.4-2.5-6.6-0.7-6.6,2.7v10.4c0,2.1-1.7,3.8-3.8,3.8h-0.8c-2.1,0-3.8-1.7-3.8-3.8v-65
			c0-2.1,1.7-3.8,3.8-3.8h0.8c2.1,0,3.8,1.7,3.8,3.8v33c0,3.4,4.2,5.2,6.6,2.7l14.7-15c0.7-0.7,1.7-1.2,2.7-1.2l0,0
			c3.4,0,5.1,4.1,2.7,6.5l-14.4,14.8c-1.5,1.5-1.5,3.9,0,5.4l15.9,16c2.4,2.4,0.7,6.5-2.7,6.5h-0.7
			C107.7,152.3,106.8,151.9,106,151.1z"></path>
		<path class="st0" d="M166.1,117.5v20.4c0,2.6-1,5-2.8,6.8l-4.7,4.7c-1.8,1.8-4.3,2.8-6.8,2.8h-15.4c-2.6,0-5-1-6.8-2.8l-4.7-4.7
			c-1.8-1.8-2.8-4.3-2.8-6.8v-20.4c0-2.6,1-5,2.8-6.8l4.7-4.7c1.8-1.8,4.3-2.8,6.8-2.8h15.4c2.6,0,5,1,6.8,2.8l4.7,4.7
			C165.1,112.5,166.1,114.9,166.1,117.5z M157.7,135.1v-14.8c0-2.6-1-5-2.8-6.8l0,0c-1.9-1.8-4.3-2.8-6.9-2.8h-7.9
			c-2.6,0-5,1-6.8,2.8l0,0c-1.8,1.8-2.8,4.3-2.8,6.8v14.8c0,2.6,1,5,2.8,6.8l0,0c1.8,1.8,4.3,2.8,6.8,2.8h7.9c2.6,0,5-1,6.8-2.8l0,0
			C156.7,140.1,157.7,137.6,157.7,135.1z"></path>
		<path class="st0" d="M219.5,113v36.4c0,1.6-1.3,2.9-2.9,2.9h-2.7c-1.6,0-2.9-1.3-2.9-2.9v-33.2c0-0.8-0.3-1.5-0.9-2.1l-2.6-2.6
			c-0.5-0.5-1.3-0.9-2.1-0.9H196c-0.8,0-1.5,0.3-2.1,0.9l-7.7,7.7c-0.5,0.5-0.9,1.3-0.9,2.1v28.2c0,1.6-1.3,2.9-2.9,2.9h-2.7
			c-1.6,0-2.9-1.3-2.9-2.9V106c0-1.6,1.3-2.9,2.9-2.9h2c1.6,0,2.8,1.2,2.9,2.8l0,0c0.1,2.5,3.2,3.7,5,1.9l3.9-3.9
			c0.5-0.5,1.3-0.9,2.1-0.9h13.9c0.8,0,1.5,0.3,2.1,0.9l7,7C219.2,111.5,219.5,112.2,219.5,113z"></path>
		<path class="st0" d="M235.7,80.5L235.7,80.5c2.3,0,4.2,1.9,4.2,4.2v2.5c0,2.3-1.9,4.2-4.2,4.2l0,0c-2.3,0-4.2-1.9-4.2-4.2v-2.5
			C231.5,82.4,233.4,80.5,235.7,80.5z M235.7,103.1L235.7,103.1c2.3,0,4.2,1.9,4.2,4.2V148c0,2.3-1.9,4.2-4.2,4.2l0,0
			c-2.3,0-4.2-1.9-4.2-4.2v-40.7C231.5,105,233.4,103.1,235.7,103.1z"></path>
		<path class="st0" d="M290.6,146.2l-5,5c-0.7,0.7-1.7,1.1-2.8,1.1h-20c-1,0-2-0.4-2.8-1.1l-8.1-8.1c-0.7-0.7-1.1-1.7-1.1-2.8v-25.2
			c0-1,0.4-2,1.1-2.8l8.1-8.1c0.7-0.7,1.7-1.1,2.8-1.1h19.5c1,0,2,0.4,2.8,1.1l5,5c1.5,1.5,1.5,4,0,5.5l0,0c-1.5,1.5-4,1.5-5.5,0
			l-2.9-2.9c-0.7-0.7-1.7-1.1-2.8-1.1h-12.3c-1,0-2,0.4-2.8,1.1l-3.3,3.3c-0.7,0.7-1.1,1.7-1.1,2.8v19.5c0,1,0.4,2,1.1,2.8l3.3,3.3
			c0.7,0.7,1.7,1.1,2.8,1.1h12.8c1,0,2-0.4,2.8-1.1l2.9-2.9c1.5-1.5,4-1.5,5.5,0l0,0C292.1,142.2,292.1,144.7,290.6,146.2z"></path>
		<path class="st0" d="M341.8,113v36.4c0,1.6-1.3,2.9-2.9,2.9h-2c-1.6,0-2.8-1.2-2.9-2.8l0,0c-0.1-2.5-3.2-3.7-5-1.9l-3.9,3.9
			c-0.5,0.5-1.3,0.9-2.1,0.9h-15.7c-0.8,0-1.5-0.3-2.1-0.9l-6.7-6.7c-0.5-0.5-0.9-1.3-0.9-2.1v-9.1c0-0.8,0.3-1.5,0.9-2.1l5.7-5.7
			c0.5-0.5,1.2-0.8,1.9-0.8l24.3-1.7c1.5-0.1,2.7-1.4,2.7-2.9v-4.3c0-0.8-0.3-1.5-0.9-2.1l-2.7-2.7c-0.5-0.5-1.3-0.9-2.1-0.9h-15.2
			c-0.8,0-1.5,0.3-2.1,0.9l-3.7,3.7c-1.1,1.1-3,1.1-4.1,0l-1.4-1.4c-1.1-1.1-1.1-3,0-4.1l5.6-5.6c0.5-0.5,1.3-0.9,2.1-0.9h23.1
			c0.8,0,1.5,0.3,2.1,0.9l7,7C341.5,111.5,341.8,112.2,341.8,113z M333.3,134.1v-0.4c0-1.7-1.4-3-3.1-2.9l-19.9,1.4
			c-0.7,0-1.4,0.3-1.8,0.8l-1.3,1.3c-0.5,0.5-0.9,1.3-0.9,2.1v3.4c0,0.8,0.3,1.5,0.9,2.1l2,2c0.5,0.5,1.3,0.9,2.1,0.9h11.4
			c0.8,0,1.5-0.3,2.1-0.9l7.8-7.8C333,135.7,333.3,134.9,333.3,134.1z"></path>
	</g>
</g>
</svg>
