<?xml version="1.0" encoding="utf-8"?>
<!-- Generator: Adobe Illustrator 26.5.0, SVG Export Plug-In . SVG Version: 6.00 Build 0)  -->
<svg version="1.1" id="Calque_1" xmlns="http://www.w3.org/2000/svg" xmlns:xlink="http://www.w3.org/1999/xlink" x="0px" y="0px"
	 viewBox="0 0 341.8 72.6" style="enable-background:new 0 0 341.8 72.6;" xml:space="preserve">
<style type="text/css">
	.st0{fill:#FFFFFF;}
</style>
<g>
	<g>
		<path d="M77.5,30.8v8.3c0,1.6-1.3,2.8-2.8,2.8H54.9c-1.6,0-2.8,1.3-2.8,2.8v2c0,0.7,0.3,1.4,0.8,2l2.4,2.4c0.5,0.5,1.2,0.8,2,0.8
			h10.1c0.7,0,1.4-0.3,2-0.8l2.1-2.1c1.1-1.1,2.8-1.1,3.9,0l0,0c1.1,1.1,1.1,2.8,0,3.9l-3.6,3.6c-0.5,0.5-1.2,0.8-2,0.8H54.6
			c-0.7,0-1.4-0.3-2-0.8l-5.8-5.8c-0.5-0.5-0.8-1.2-0.8-1.9V30.8c0-0.7,0.3-1.4,0.8-2l5.8-5.8c0.5-0.5,1.2-0.8,2-0.8h14.3
			c0.7,0,1.4,0.3,2,0.8l5.8,5.8C77.2,29.4,77.5,30.1,77.5,30.8z M71.5,33.9v-1.1c0-0.7-0.3-1.4-0.8-2l-2.5-2.4
			c-0.5-0.5-1.2-0.8-2-0.8h-8.9c-0.7,0-1.4,0.3-2,0.8l-2.4,2.4c-0.5,0.5-0.8,1.2-0.8,2v1.1c0,1.6,1.3,2.8,2.8,2.8h13.8
			C70.2,36.7,71.5,35.4,71.5,33.9z"/>
		<path d="M87.8,6.2L87.8,6.2c1.6,0,3,1.4,3,3V11c0,1.6-1.4,3-3,3l0,0c-1.6,0-3-1.4-3-3V9.2C84.7,7.6,86,6.2,87.8,6.2z M87.8,22.3
			L87.8,22.3c1.6,0,3,1.4,3,3v28.9c0,1.6-1.4,3-3,3l0,0c-1.6,0-3-1.4-3-3V25.3C84.7,23.6,86,22.3,87.8,22.3z"/>
		<path d="M121.5,56.4l-11-11.2c-1.7-1.8-4.7-0.5-4.7,1.9v7.4c0,1.5-1.2,2.7-2.7,2.7h-0.6c-1.5,0-2.7-1.2-2.7-2.7V8.3
			c0-1.5,1.2-2.7,2.7-2.7h0.6c1.5,0,2.7,1.2,2.7,2.7v23.5c0,2.4,3,3.7,4.7,1.9L121,23.1c0.5-0.5,1.2-0.9,1.9-0.9l0,0
			c2.4,0,3.6,2.9,1.9,4.6l-10.2,10.5c-1.1,1.1-1.1,2.8,0,3.8l11.3,11.4c1.7,1.7,0.5,4.6-1.9,4.6h-0.5C122.7,57.3,122,57,121.5,56.4z
			"/>
		<path d="M164.2,32.5V47c0,1.8-0.7,3.6-2,4.8l-3.3,3.3c-1.3,1.3-3.1,2-4.8,2h-11c-1.8,0-3.6-0.7-4.8-2l-3.3-3.3
			c-1.3-1.3-2-3.1-2-4.8V32.5c0-1.8,0.7-3.6,2-4.8l3.3-3.3c1.3-1.3,3.1-2,4.8-2h11c1.8,0,3.6,0.7,4.8,2l3.3,3.3
			C163.5,29,164.2,30.7,164.2,32.5z M158.2,45V34.5c0-1.8-0.7-3.6-2-4.8l0,0c-1.4-1.3-3.1-2-4.9-2h-5.6c-1.8,0-3.6,0.7-4.8,2l0,0
			c-1.3,1.3-2,3.1-2,4.8V45c0,1.8,0.7,3.6,2,4.8l0,0c1.3,1.3,3.1,2,4.8,2h5.6c1.8,0,3.6-0.7,4.8-2l0,0
			C157.5,48.6,158.2,46.8,158.2,45z"/>
		<path d="M202.2,29.3v25.9c0,1.1-0.9,2.1-2.1,2.1h-1.9c-1.1,0-2.1-0.9-2.1-2.1V31.6c0-0.6-0.2-1.1-0.6-1.5l-1.8-1.8
			c-0.4-0.4-0.9-0.6-1.5-0.6h-6.7c-0.6,0-1.1,0.2-1.5,0.6l-5.5,5.5c-0.4,0.4-0.6,0.9-0.6,1.5v20.1c0,1.1-0.9,2.1-2.1,2.1h-1.9
			c-1.1,0-2.1-0.9-2.1-2.1V24.3c0-1.1,0.9-2.1,2.1-2.1h1.4c1.1,0,2,0.9,2.1,2l0,0c0.1,1.8,2.3,2.6,3.6,1.4l2.8-2.8
			c0.4-0.4,0.9-0.6,1.5-0.6h9.9c0.6,0,1.1,0.2,1.5,0.6l5,5C202,28.3,202.2,28.7,202.2,29.3z"/>
		<path d="M213.7,6.2L213.7,6.2c1.6,0,3,1.4,3,3V11c0,1.6-1.4,3-3,3l0,0c-1.6,0-3-1.4-3-3V9.2C210.7,7.6,212.1,6.2,213.7,6.2z
			 M213.7,22.3L213.7,22.3c1.6,0,3,1.4,3,3v28.9c0,1.6-1.4,3-3,3l0,0c-1.6,0-3-1.4-3-3V25.3C210.7,23.6,212.1,22.3,213.7,22.3z"/>
		<path d="M252.7,52.9l-3.6,3.6c-0.5,0.5-1.2,0.8-2,0.8H233c-0.7,0-1.4-0.3-2-0.8l-5.8-5.8c-0.5-0.5-0.8-1.2-0.8-2V30.8
			c0-0.7,0.3-1.4,0.8-2l5.8-5.8c0.5-0.5,1.2-0.8,2-0.8h13.9c0.7,0,1.4,0.3,2,0.8l3.6,3.6c1.1,1.1,1.1,2.8,0,3.9l0,0
			c-1.1,1.1-2.8,1.1-3.9,0l-2.1-2.1c-0.5-0.5-1.2-0.8-2-0.8h-8.7c-0.7,0-1.4,0.3-2,0.8l-2.3,2.3c-0.5,0.5-0.8,1.2-0.8,2v13.9
			c0,0.7,0.3,1.4,0.8,2l2.3,2.3c0.5,0.5,1.2,0.8,2,0.8h9.1c0.7,0,1.4-0.3,2-0.8l2.1-2.1c1.1-1.1,2.8-1.1,3.9,0l0,0
			C253.8,50.1,253.8,51.9,252.7,52.9z"/>
		<path d="M289.1,29.3v25.9c0,1.1-0.9,2.1-2.1,2.1h-1.4c-1.1,0-2-0.9-2.1-2l0,0c-0.1-1.8-2.3-2.6-3.6-1.4l-2.8,2.8
			c-0.4,0.4-0.9,0.6-1.5,0.6h-11.2c-0.6,0-1.1-0.2-1.5-0.6l-4.8-4.8c-0.4-0.4-0.6-0.9-0.6-1.5V44c0-0.6,0.2-1.1,0.6-1.5l4.1-4.1
			c0.4-0.4,0.9-0.6,1.4-0.6l17.3-1.2c1.1-0.1,1.9-1,1.9-2.1v-3.1c0-0.6-0.2-1.1-0.6-1.5l-1.9-1.9c-0.4-0.4-0.9-0.6-1.5-0.6h-10.8
			c-0.6,0-1.1,0.2-1.5,0.6l-2.6,2.6c-0.8,0.8-2.1,0.8-2.9,0l-1-1c-0.8-0.8-0.8-2.1,0-2.9l4-4c0.4-0.4,0.9-0.6,1.5-0.6H282
			c0.6,0,1.1,0.2,1.5,0.6l5,5C288.9,28.3,289.1,28.7,289.1,29.3z M283.1,44.3V44c0-1.2-1-2.1-2.2-2.1l-14.2,1c-0.5,0-1,0.2-1.3,0.6
			l-0.9,0.9c-0.4,0.4-0.6,0.9-0.6,1.5v2.4c0,0.6,0.2,1.1,0.6,1.5l1.4,1.4c0.4,0.4,0.9,0.6,1.5,0.6h8.1c0.6,0,1.1-0.2,1.5-0.6
			l5.5-5.5C282.9,45.5,283.1,44.9,283.1,44.3z"/>
	</g>
</g>
<g>
	<g>
		<path class="st0" d="M44.2,115.1v11.7c0,2.2-1.8,3.9-3.9,3.9H12.4c-2.2,0-3.9,1.8-3.9,3.9v2.8c0,1,0.4,2,1.1,2.8l3.4,3.4
			c0.7,0.7,1.7,1.1,2.8,1.1H30c1,0,2-0.4,2.8-1.1l3-3c1.5-1.5,4-1.5,5.5,0l0,0c1.5,1.5,1.5,4,0,5.5l-5,5c-0.7,0.7-1.7,1.1-2.8,1.1
			H12c-1,0-2-0.4-2.8-1.1L1.1,143c-0.7-0.7-1.1-1.7-1.1-2.7v-25.2c0-1,0.4-2,1.1-2.8l8.1-8.1c0.7-0.7,1.7-1.1,2.8-1.1h20.1
			c1,0,2,0.4,2.8,1.1l8.1,8.1C43.7,113.1,44.2,114.1,44.2,115.1z M35.7,119.4v-1.5c0-1-0.4-2-1.1-2.8l-3.5-3.4
			c-0.7-0.7-1.7-1.1-2.8-1.1H15.8c-1,0-2,0.4-2.8,1.1l-3.4,3.4c-0.7,0.7-1.1,1.7-1.1,2.8v1.5c0,2.2,1.8,3.9,3.9,3.9h19.4
			C33.9,123.4,35.7,121.6,35.7,119.4z"/>
		<path class="st0" d="M58.6,80.5L58.6,80.5c2.3,0,4.2,1.9,4.2,4.2v2.5c0,2.3-1.9,4.2-4.2,4.2l0,0c-2.3,0-4.2-1.9-4.2-4.2v-2.5
			C54.3,82.4,56.2,80.5,58.6,80.5z M58.6,103.1L58.6,103.1c2.3,0,4.2,1.9,4.2,4.2V148c0,2.3-1.9,4.2-4.2,4.2l0,0
			c-2.3,0-4.2-1.9-4.2-4.2v-40.7C54.3,105,56.2,103.1,58.6,103.1z"/>
		<path class="st0" d="M106,151.1l-15.4-15.7c-2.4-2.5-6.6-0.7-6.6,2.7v10.4c0,2.1-1.7,3.8-3.8,3.8h-0.8c-2.1,0-3.8-1.7-3.8-3.8v-65
			c0-2.1,1.7-3.8,3.8-3.8h0.8c2.1,0,3.8,1.7,3.8,3.8v33c0,3.4,4.2,5.2,6.6,2.7l14.7-15c0.7-0.7,1.7-1.2,2.7-1.2l0,0
			c3.4,0,5.1,4.1,2.7,6.5l-14.4,14.8c-1.5,1.5-1.5,3.9,0,5.4l15.9,16c2.4,2.4,0.7,6.5-2.7,6.5h-0.7
			C107.7,152.3,106.8,151.9,106,151.1z"/>
		<path class="st0" d="M166.1,117.5v20.4c0,2.6-1,5-2.8,6.8l-4.7,4.7c-1.8,1.8-4.3,2.8-6.8,2.8h-15.4c-2.6,0-5-1-6.8-2.8l-4.7-4.7
			c-1.8-1.8-2.8-4.3-2.8-6.8v-20.4c0-2.6,1-5,2.8-6.8l4.7-4.7c1.8-1.8,4.3-2.8,6.8-2.8h15.4c2.6,0,5,1,6.8,2.8l4.7,4.7
			C165.1,112.5,166.1,114.9,166.1,117.5z M157.7,135.1v-14.8c0-2.6-1-5-2.8-6.8l0,0c-1.9-1.8-4.3-2.8-6.9-2.8h-7.9
			c-2.6,0-5,1-6.8,2.8l0,0c-1.8,1.8-2.8,4.3-2.8,6.8v14.8c0,2.6,1,5,2.8,6.8l0,0c1.8,1.8,4.3,2.8,6.8,2.8h7.9c2.6,0,5-1,6.8-2.8l0,0
			C156.7,140.1,157.7,137.6,157.7,135.1z"/>
		<path class="st0" d="M219.5,113v36.4c0,1.6-1.3,2.9-2.9,2.9h-2.7c-1.6,0-2.9-1.3-2.9-2.9v-33.2c0-0.8-0.3-1.5-0.9-2.1l-2.6-2.6
			c-0.5-0.5-1.3-0.9-2.1-0.9H196c-0.8,0-1.5,0.3-2.1,0.9l-7.7,7.7c-0.5,0.5-0.9,1.3-0.9,2.1v28.2c0,1.6-1.3,2.9-2.9,2.9h-2.7
			c-1.6,0-2.9-1.3-2.9-2.9V106c0-1.6,1.3-2.9,2.9-2.9h2c1.6,0,2.8,1.2,2.9,2.8l0,0c0.1,2.5,3.2,3.7,5,1.9l3.9-3.9
			c0.5-0.5,1.3-0.9,2.1-0.9h13.9c0.8,0,1.5,0.3,2.1,0.9l7,7C219.2,111.5,219.5,112.2,219.5,113z"/>
		<path class="st0" d="M235.7,80.5L235.7,80.5c2.3,0,4.2,1.9,4.2,4.2v2.5c0,2.3-1.9,4.2-4.2,4.2l0,0c-2.3,0-4.2-1.9-4.2-4.2v-2.5
			C231.5,82.4,233.4,80.5,235.7,80.5z M235.7,103.1L235.7,103.1c2.3,0,4.2,1.9,4.2,4.2V148c0,2.3-1.9,4.2-4.2,4.2l0,0
			c-2.3,0-4.2-1.9-4.2-4.2v-40.7C231.5,105,233.4,103.1,235.7,103.1z"/>
		<path class="st0" d="M290.6,146.2l-5,5c-0.7,0.7-1.7,1.1-2.8,1.1h-20c-1,0-2-0.4-2.8-1.1l-8.1-8.1c-0.7-0.7-1.1-1.7-1.1-2.8v-25.2
			c0-1,0.4-2,1.1-2.8l8.1-8.1c0.7-0.7,1.7-1.1,2.8-1.1h19.5c1,0,2,0.4,2.8,1.1l5,5c1.5,1.5,1.5,4,0,5.5l0,0c-1.5,1.5-4,1.5-5.5,0
			l-2.9-2.9c-0.7-0.7-1.7-1.1-2.8-1.1h-12.3c-1,0-2,0.4-2.8,1.1l-3.3,3.3c-0.7,0.7-1.1,1.7-1.1,2.8v19.5c0,1,0.4,2,1.1,2.8l3.3,3.3
			c0.7,0.7,1.7,1.1,2.8,1.1h12.8c1,0,2-0.4,2.8-1.1l2.9-2.9c1.5-1.5,4-1.5,5.5,0l0,0C292.1,142.2,292.1,144.7,290.6,146.2z"/>
		<path class="st0" d="M341.8,113v36.4c0,1.6-1.3,2.9-2.9,2.9h-2c-1.6,0-2.8-1.2-2.9-2.8l0,0c-0.1-2.5-3.2-3.7-5-1.9l-3.9,3.9
			c-0.5,0.5-1.3,0.9-2.1,0.9h-15.7c-0.8,0-1.5-0.3-2.1-0.9l-6.7-6.7c-0.5-0.5-0.9-1.3-0.9-2.1v-9.1c0-0.8,0.3-1.5,0.9-2.1l5.7-5.7
			c0.5-0.5,1.2-0.8,1.9-0.8l24.3-1.7c1.5-0.1,2.7-1.4,2.7-2.9v-4.3c0-0.8-0.3-1.5-0.9-2.1l-2.7-2.7c-0.5-0.5-1.3-0.9-2.1-0.9h-15.2
			c-0.8,0-1.5,0.3-2.1,0.9l-3.7,3.7c-1.1,1.1-3,1.1-4.1,0l-1.4-1.4c-1.1-1.1-1.1-3,0-4.1l5.6-5.6c0.5-0.5,1.3-0.9,2.1-0.9h23.1
			c0.8,0,1.5,0.3,2.1,0.9l7,7C341.5,111.5,341.8,112.2,341.8,113z M333.3,134.1v-0.4c0-1.7-1.4-3-3.1-2.9l-19.9,1.4
			c-0.7,0-1.4,0.3-1.8,0.8l-1.3,1.3c-0.5,0.5-0.9,1.3-0.9,2.1v3.4c0,0.8,0.3,1.5,0.9,2.1l2,2c0.5,0.5,1.3,0.9,2.1,0.9h11.4
			c0.8,0,1.5-0.3,2.1-0.9l7.8-7.8C333,135.7,333.3,134.9,333.3,134.1z"/>
	</g>
</g>
</svg>
