<?xml version="1.0" encoding="utf-8"?>
<!-- Generator: Adobe Illustrator 27.5.0, SVG Export Plug-In . SVG Version: 6.00 Build 0)  -->
<svg version="1.1" id="Calque_1" xmlns="http://www.w3.org/2000/svg" xmlns:xlink="http://www.w3.org/1999/xlink" x="0px" y="0px"
	 viewBox="0 0 165 69" enable-background="new 0 0 165 69" xml:space="preserve">
<g>
	<path fill-rule="evenodd" clip-rule="evenodd" fill="#131413" d="M1.9,38.9v6.4h3.7v-0.9H2.9v-1.8h2.6v-0.9H2.9v-1.8h2.6v-0.9H1.9z
		"/>
	<g transform="translate(.972 .134)">
		<path fill-rule="evenodd" clip-rule="evenodd" fill="#131413" d="M8.8,42.4c-0.1-0.5-0.3-0.8-1-0.8c-0.8,0-1.1,0.6-1.1,1.3
			c0,0.7,0.3,1.3,1.2,1.3c0.6,0,0.8-0.3,0.9-0.7h1c-0.1,0.9-0.8,1.6-2,1.6c-1.4,0-2.1-1.1-2.1-2.2c0-1.1,0.7-2.2,2.1-2.2
			c1.4,0,1.9,0.8,2,1.7C9.8,42.4,8.8,42.4,8.8,42.4z M14.1,43c0-0.7-0.5-1.3-1.3-1.3c-0.7,0-1.2,0.6-1.2,1.3c0,0.7,0.5,1.3,1.2,1.3
			C13.6,44.3,14.1,43.7,14.1,43 M10.6,43c0-1.2,0.9-2.2,2.2-2.2c1.4,0,2.2,1,2.2,2.2c0,1.2-0.9,2.2-2.2,2.2
			C11.5,45.2,10.6,44.2,10.6,43"/>
		<defs>
			<filter id="Adobe_OpacityMaskFilter" filterUnits="userSpaceOnUse" x="0" y="0" width="163.2" height="68.1">
				<feColorMatrix  type="matrix" values="1 0 0 0 0  0 1 0 0 0  0 0 1 0 0  0 0 0 1 0"/>
			</filter>
		</defs>
		
			<mask maskUnits="userSpaceOnUse" x="0" y="0" width="163.2" height="68.1" id="b_00000038394398389726039770000002710303424289715087_">
			<g filter="url(#Adobe_OpacityMaskFilter)">
				<path id="a_00000151503309647305106420000010144425527753412756_" fill-rule="evenodd" clip-rule="evenodd" fill="#FFFFFF" d="
					M0,68.1h163.2V0H0V68.1z"/>
			</g>
		</mask>
		
			<path mask="url(#b_00000038394398389726039770000002710303424289715087_)" fill-rule="evenodd" clip-rule="evenodd" fill="#131413" d="
			M16.2,45.1h1v-6.4h-1V45.1z M19.3,42.5h2.1c0-0.6-0.4-1-1-1C19.8,41.5,19.3,41.8,19.3,42.5z M19.3,43.3c0,0.6,0.3,1.1,1.1,1.1
			c0.6,0,0.8-0.3,0.9-0.6h1c-0.1,0.7-0.8,1.4-1.9,1.4c-1.4,0-2.1-1-2.1-2.2c0-1.3,0.8-2.2,2.1-2.2c1.1,0,2,0.8,2,1.9
			c0,0.1,0,0.3,0,0.6C22.3,43.3,19.3,43.3,19.3,43.3z M26.5,43c0,0.7,0.5,1.3,1.3,1.3c0.7,0,1.2-0.6,1.2-1.3c0-0.7-0.5-1.3-1.2-1.3
			C27,41.6,26.5,42.2,26.5,43z M26.5,41.4c0.3-0.4,0.8-0.7,1.3-0.7c1.3,0,2.2,1,2.2,2.2c0,1.2-0.9,2.2-2.2,2.2c-0.5,0-1-0.3-1.3-0.7
			v2.7h-1v-6.4h1L26.5,41.4L26.5,41.4z M33.8,41.8c-0.1,0-0.3,0-0.4,0c-0.8,0-1.3,0.5-1.3,1.5v1.8h-1v-4.2h1v0.7
			c0.2-0.4,0.7-0.7,1.3-0.7c0.2,0,0.3,0,0.4,0.1L33.8,41.8L33.8,41.8z M37.8,43c0-0.7-0.5-1.3-1.3-1.3c-0.7,0-1.2,0.6-1.2,1.3
			c0,0.7,0.5,1.3,1.2,1.3C37.3,44.3,37.8,43.7,37.8,43 M34.4,43c0-1.2,0.9-2.2,2.2-2.2c1.4,0,2.2,1,2.2,2.2c0,1.2-0.9,2.2-2.2,2.2
			C35.2,45.2,34.4,44.2,34.4,43 M42.4,39.6c-0.1,0-0.3-0.1-0.4-0.1c-0.3,0-0.7,0-0.7,0.7v0.6h1.1v0.8h-1.1v3.4h-1v-3.4h-0.9v-0.8
			h0.9v-0.5c0-1.6,1-1.7,1.5-1.7c0.3,0,0.5,0.1,0.6,0.1C42.4,38.8,42.4,39.6,42.4,39.6z M44,42.5h2.1c0-0.6-0.4-1-1-1
			C44.5,41.5,44,41.8,44,42.5z M44,43.3c0,0.6,0.3,1.1,1.1,1.1c0.6,0,0.8-0.3,0.9-0.6h1c-0.1,0.7-0.8,1.4-1.9,1.4
			c-1.4,0-2.1-1-2.1-2.2c0-1.3,0.8-2.2,2.1-2.2c1.1,0,2,0.8,2,1.9c0,0.1,0,0.3,0,0.6H44L44,43.3z M51.3,43.9c0,0.9-0.8,1.3-1.7,1.3
			c-0.9,0-1.7-0.5-1.7-1.5h1c0,0.6,0.3,0.8,0.8,0.8c0.4,0,0.7-0.1,0.7-0.5c0-0.4-0.4-0.4-1.3-0.8c-0.6-0.2-1-0.4-1-1.2
			c0-0.8,0.7-1.2,1.6-1.2c0.9,0,1.6,0.6,1.6,1.4h-1c0-0.4-0.2-0.7-0.7-0.7c-0.3,0-0.6,0.2-0.6,0.5c0,0.4,0.4,0.4,1.2,0.7
			C50.8,42.9,51.3,43.1,51.3,43.9 M55.6,43.9c0,0.9-0.8,1.3-1.7,1.3c-0.9,0-1.7-0.5-1.7-1.5h1c0,0.6,0.3,0.8,0.8,0.8
			c0.4,0,0.7-0.1,0.7-0.5c0-0.4-0.4-0.4-1.3-0.8c-0.6-0.2-1-0.4-1-1.2c0-0.8,0.7-1.2,1.6-1.2c0.9,0,1.6,0.6,1.6,1.4h-1
			c0-0.4-0.2-0.7-0.7-0.7c-0.3,0-0.6,0.2-0.6,0.5c0,0.4,0.4,0.4,1.2,0.7C55.1,42.9,55.6,43.1,55.6,43.9 M56.8,45.1h1v-4.2h-1V45.1
			L56.8,45.1z M57.3,38.6c0.4,0,0.7,0.3,0.7,0.7S57.7,40,57.3,40l0,0c-0.4,0-0.7-0.3-0.7-0.7S56.9,38.6,57.3,38.6z M62.3,43
			c0-0.7-0.5-1.3-1.3-1.3c-0.7,0-1.2,0.6-1.2,1.3c0,0.7,0.5,1.3,1.2,1.3C61.8,44.3,62.3,43.7,62.3,43 M58.8,43
			c0-1.2,0.9-2.2,2.2-2.2c1.4,0,2.2,1,2.2,2.2c0,1.2-0.9,2.2-2.2,2.2C59.7,45.2,58.8,44.2,58.8,43 M64.4,40.8h1v0.6
			c0.3-0.5,0.8-0.7,1.4-0.7c0.6,0,1,0.2,1.3,0.6c0.2,0.3,0.3,0.7,0.3,1.3v2.5h-1v-2.2c0-0.7-0.2-1.3-0.9-1.3c-0.7,0-1,0.6-1,1.3v2.2
			h-1V40.8z M69.7,40.8h1v0.6c0.3-0.5,0.8-0.7,1.4-0.7c0.6,0,1,0.2,1.3,0.6c0.2,0.3,0.3,0.7,0.3,1.3v2.5h-1v-2.2
			c0-0.7-0.2-1.3-0.9-1.3c-0.7,0-1,0.6-1,1.3v2.2h-1V40.8z M75.7,42.5h2.1c0-0.6-0.4-1-1-1C76.2,41.5,75.7,41.8,75.7,42.5z
			 M75.7,43.3c0,0.6,0.3,1.1,1.1,1.1c0.6,0,0.8-0.3,0.9-0.6h1c-0.1,0.7-0.8,1.4-1.9,1.4c-1.4,0-2.1-1-2.1-2.2c0-1.3,0.8-2.2,2.1-2.2
			c1.1,0,2,0.8,2,1.9c0,0.1,0,0.3,0,0.6H75.7z M79.9,45.1h1v-6.4h-1V45.1z M82.3,45.1h1v-6.4h-1V45.1z M85.4,42.5h2.1
			c0-0.6-0.4-1-1-1C85.9,41.5,85.4,41.8,85.4,42.5z M85.4,43.3c0,0.6,0.3,1.1,1.1,1.1c0.6,0,0.8-0.3,0.9-0.6h1
			c-0.1,0.7-0.8,1.4-1.9,1.4c-1.4,0-2.1-1-2.1-2.2c0-1.3,0.8-2.2,2.1-2.2c1.1,0,2,0.8,2,1.9c0,0.1,0,0.3,0,0.6H85.4L85.4,43.3z
			 M92.3,42.5h2.1c0-0.6-0.4-1-1-1C92.8,41.5,92.3,41.8,92.3,42.5z M92.3,43.3c0,0.6,0.3,1.1,1.1,1.1c0.6,0,0.8-0.3,0.9-0.6h1
			c-0.1,0.7-0.8,1.4-1.9,1.4c-1.4,0-2.1-1-2.1-2.2c0-1.3,0.8-2.2,2.1-2.2c1.1,0,2,0.8,2,1.9c0,0.1,0,0.3,0,0.6H92.3L92.3,43.3z
			 M96.6,40.8h1v0.6c0.3-0.5,0.8-0.7,1.4-0.7c0.6,0,1,0.2,1.3,0.6c0.2,0.3,0.3,0.7,0.3,1.3v2.5h-1v-2.2c0-0.7-0.2-1.3-0.9-1.3
			c-0.7,0-1,0.6-1,1.3v2.2h-1V40.8z M107,43c0-0.7-0.5-1.3-1.3-1.3c-0.7,0-1.2,0.6-1.2,1.3c0,0.7,0.5,1.3,1.2,1.3
			C106.5,44.3,107,43.7,107,43z M108,40.9v4.2h-1v-0.6c-0.3,0.4-0.8,0.7-1.3,0.7c-1.3,0-2.2-1-2.2-2.2c0-1.2,0.9-2.2,2.2-2.2
			c0.5,0,1,0.3,1.3,0.7v-0.6C107,40.9,108,40.9,108,40.9z M112.1,41.8c-0.1,0-0.3,0-0.4,0c-0.8,0-1.3,0.5-1.3,1.5v1.8h-1v-4.2h1v0.7
			c0.2-0.4,0.7-0.7,1.3-0.7c0.2,0,0.3,0,0.4,0.1C112.1,40.9,112.1,41.8,112.1,41.8z M115.5,45.1c-0.2,0-0.5,0.1-0.7,0.1
			c-0.5,0-1.4-0.1-1.4-1.5v-2h-0.7v-0.8h0.7v-1.3h1v1.3h1v0.8h-1v1.7c0,0.7,0.2,0.8,0.6,0.8c0.2,0,0.4,0,0.5,0L115.5,45.1
			L115.5,45.1z M119.6,43.9c0,0.9-0.8,1.3-1.7,1.3c-0.9,0-1.7-0.5-1.7-1.5h1c0,0.6,0.3,0.8,0.8,0.8c0.4,0,0.7-0.1,0.7-0.5
			c0-0.4-0.4-0.4-1.3-0.8c-0.6-0.2-1-0.4-1-1.2c0-0.8,0.7-1.2,1.6-1.2c0.9,0,1.6,0.6,1.6,1.4h-1c0-0.4-0.2-0.7-0.7-0.7
			c-0.3,0-0.6,0.2-0.6,0.5c0,0.4,0.4,0.4,1.2,0.7C119,42.9,119.6,43.1,119.6,43.9 M125.9,43c0-0.7-0.5-1.3-1.3-1.3
			c-0.7,0-1.2,0.6-1.2,1.3c0,0.7,0.5,1.3,1.2,1.3C125.4,44.3,125.9,43.7,125.9,43z M126.9,40.9v4.2h-1v-0.6
			c-0.3,0.4-0.8,0.7-1.3,0.7c-1.3,0-2.2-1-2.2-2.2c0-1.2,0.9-2.2,2.2-2.2c0.5,0,1,0.3,1.3,0.7v-0.6
			C125.9,40.9,126.9,40.9,126.9,40.9z M129.3,43c0,0.7,0.5,1.3,1.3,1.3c0.7,0,1.2-0.6,1.2-1.3c0-0.7-0.5-1.3-1.2-1.3
			C129.8,41.6,129.3,42.2,129.3,43z M129.3,41.4c0.3-0.4,0.8-0.7,1.3-0.7c1.3,0,2.2,1,2.2,2.2c0,1.2-0.9,2.2-2.2,2.2
			c-0.5,0-1-0.3-1.3-0.7v2.7h-1v-6.4h1V41.4L129.3,41.4z M134.9,43c0,0.7,0.5,1.3,1.3,1.3c0.7,0,1.2-0.6,1.2-1.3
			c0-0.7-0.5-1.3-1.2-1.3C135.4,41.6,134.9,42.2,134.9,43z M134.9,41.4c0.3-0.4,0.8-0.7,1.3-0.7c1.3,0,2.2,1,2.2,2.2
			c0,1.2-0.9,2.2-2.2,2.2c-0.5,0-1-0.3-1.3-0.7v2.7h-1v-6.4h1V41.4L134.9,41.4z M139.5,45.1h1v-6.4h-1V45.1z M141.9,45.1h1v-4.2h-1
			V45.1L141.9,45.1z M142.4,38.6c0.4,0,0.7,0.3,0.7,0.7c0,0.4-0.3,0.7-0.7,0.7s-0.7-0.3-0.7-0.7C141.6,38.9,141.9,38.6,142.4,38.6
			L142.4,38.6z M144.9,43c0,0.7,0.5,1.3,1.2,1.3c0.8,0,1.3-0.6,1.3-1.3c0-0.7-0.5-1.3-1.3-1.3C145.4,41.6,144.9,42.2,144.9,43z
			 M147.4,40.9h1v6.4h-1v-2.7c-0.3,0.4-0.8,0.7-1.3,0.7c-1.3,0-2.2-1-2.2-2.2c0-1.2,0.9-2.2,2.2-2.2c0.5,0,1,0.3,1.3,0.7
			C147.4,41.4,147.4,40.9,147.4,40.9z M153.7,40.8v4.2h-1v-0.6c-0.3,0.5-0.8,0.7-1.4,0.7c-0.6,0-1-0.2-1.3-0.6
			c-0.2-0.3-0.3-0.7-0.3-1.3v-2.5h1V43c0,0.7,0.2,1.3,0.9,1.3c0.7,0,1-0.6,1-1.3v-2.2H153.7L153.7,40.8z M155.8,42.5h2.1
			c0-0.6-0.4-1-1-1C156.3,41.5,155.8,41.8,155.8,42.5L155.8,42.5z M156,40.6l-0.5-0.8l2.3-1.2l0.5,0.8L156,40.6z M155.8,43.3
			c0,0.6,0.3,1.1,1.1,1.1c0.6,0,0.8-0.3,0.9-0.6h1c-0.1,0.7-0.8,1.4-1.9,1.4c-1.4,0-2.1-1-2.1-2.2c0-1.3,0.8-2.2,2.1-2.2
			c1.1,0,2,0.8,2,1.9c0,0.1,0,0.3,0,0.6H155.8L155.8,43.3z M163.2,43.9c0,0.9-0.8,1.3-1.7,1.3c-0.9,0-1.7-0.5-1.7-1.5h1
			c0,0.6,0.3,0.8,0.8,0.8c0.4,0,0.7-0.1,0.7-0.5c0-0.4-0.4-0.4-1.3-0.8c-0.6-0.2-1-0.4-1-1.2c0-0.8,0.7-1.2,1.6-1.2
			c0.9,0,1.6,0.6,1.6,1.4h-1c0-0.4-0.2-0.7-0.7-0.7c-0.3,0-0.6,0.2-0.6,0.5c0,0.4,0.4,0.4,1.2,0.7C162.6,42.9,163.2,43.1,163.2,43.9
			 M2,52.8v1.8h1.2c0.9,0,1-0.5,1-0.9c0-0.3-0.2-0.9-1-0.9H2L2,52.8z M3.1,51.8c0.9,0,1-0.6,1-0.9c0-0.3-0.1-0.9-1-0.9H2v1.7
			C2,51.8,3.1,51.8,3.1,51.8z M0.9,49.2h2.2c1.7,0,2,1.1,2,1.7c0,0.8-0.6,1.3-1.1,1.4c0.4,0,1.2,0.5,1.2,1.4c0,0.7-0.3,1.8-2.1,1.8
			H0.9V49.2z M7.2,53h2.1c0-0.6-0.4-1-1-1C7.6,51.9,7.2,52.3,7.2,53L7.2,53z M7.2,53.7c0,0.6,0.3,1.1,1.1,1.1c0.6,0,0.8-0.3,0.9-0.6
			h1c-0.1,0.7-0.8,1.4-1.9,1.4c-1.4,0-2.1-1-2.1-2.2c0-1.3,0.8-2.2,2.1-2.2c1.1,0,2,0.8,2,1.9c0,0.1,0,0.3,0,0.6H7.2z M14.1,52.2
			c-0.1,0-0.3,0-0.4,0c-0.8,0-1.3,0.5-1.3,1.5v1.8h-1v-4.2h1V52c0.2-0.4,0.7-0.7,1.3-0.7c0.2,0,0.3,0,0.4,0.1
			C14.1,51.3,14.1,52.2,14.1,52.2z M18.8,51.3v4.2h-1v-0.6c-0.3,0.5-0.8,0.7-1.4,0.7c-0.6,0-1-0.2-1.3-0.6c-0.2-0.3-0.3-0.7-0.3-1.3
			v-2.5h1v2.2c0,0.7,0.2,1.3,0.9,1.3c0.7,0,1-0.6,1-1.3v-2.2C17.8,51.3,18.8,51.3,18.8,51.3z M22.7,50.1c-0.1,0-0.3-0.1-0.4-0.1
			c-0.3,0-0.7,0-0.7,0.7v0.6h1.1v0.8h-1.1v3.4h-1v-3.4h-0.9v-0.8h0.9v-0.5c0-1.6,1-1.7,1.5-1.7c0.3,0,0.5,0.1,0.6,0.1L22.7,50.1
			L22.7,50.1z M26.8,54.3c0,0.9-0.8,1.3-1.7,1.3c-0.9,0-1.7-0.5-1.7-1.5h1c0,0.6,0.3,0.8,0.8,0.8c0.4,0,0.7-0.1,0.7-0.5
			c0-0.4-0.4-0.4-1.3-0.8c-0.6-0.2-1-0.4-1-1.2c0-0.8,0.7-1.2,1.6-1.2c0.9,0,1.6,0.6,1.6,1.4h-1c0-0.4-0.2-0.7-0.7-0.7
			c-0.3,0-0.6,0.2-0.6,0.5c0,0.4,0.4,0.4,1.2,0.7C26.2,53.4,26.8,53.6,26.8,54.3 M30.4,50.1C30.3,50,30.1,50,30,50
			c-0.3,0-0.7,0-0.7,0.7v0.6h1.1v0.8h-1.1v3.4h-1v-3.4h-0.9v-0.8h0.9v-0.5c0-1.6,1-1.7,1.5-1.7c0.3,0,0.5,0.1,0.6,0.1L30.4,50.1
			L30.4,50.1z M34.5,53.4c0-0.7-0.5-1.3-1.3-1.3c-0.7,0-1.2,0.6-1.2,1.3c0,0.7,0.5,1.3,1.2,1.3C34,54.8,34.5,54.1,34.5,53.4
			L34.5,53.4z M35.5,51.3v4.2h-1V55c-0.3,0.4-0.8,0.7-1.3,0.7c-1.3,0-2.2-1-2.2-2.2c0-1.2,0.9-2.2,2.2-2.2c0.5,0,1,0.3,1.3,0.7v-0.6
			L35.5,51.3L35.5,51.3z M39.7,52.8c-0.1-0.5-0.3-0.8-1-0.8c-0.8,0-1.1,0.6-1.1,1.3c0,0.7,0.3,1.3,1.2,1.3c0.6,0,0.8-0.3,0.9-0.7h1
			c-0.1,0.9-0.8,1.6-2,1.6c-1.4,0-2.1-1.1-2.1-2.2c0-1.1,0.7-2.2,2.1-2.2c1.4,0,1.9,0.8,2,1.7L39.7,52.8L39.7,52.8z M41.9,49.2h1
			v2.7c0.3-0.5,0.8-0.7,1.4-0.7c0.6,0,1,0.2,1.3,0.6c0.2,0.3,0.3,0.7,0.3,1.3v2.5h-1v-2.2c0-0.7-0.2-1.3-0.9-1.3c-0.7,0-1,0.6-1,1.3
			v2.2h-1V49.2z M50.2,54.3c0,0.9-0.8,1.3-1.7,1.3c-0.9,0-1.7-0.5-1.7-1.5h1c0,0.6,0.3,0.8,0.8,0.8c0.4,0,0.7-0.1,0.7-0.5
			c0-0.4-0.4-0.4-1.3-0.8c-0.6-0.2-1-0.4-1-1.2c0-0.8,0.7-1.2,1.6-1.2c0.9,0,1.6,0.6,1.6,1.4h-1c0-0.4-0.2-0.7-0.7-0.7
			c-0.3,0-0.6,0.2-0.6,0.5c0,0.4,0.4,0.4,1.2,0.7C49.7,53.4,50.2,53.6,50.2,54.3 M54.2,52.8c-0.1-0.5-0.3-0.8-1-0.8
			c-0.8,0-1.1,0.6-1.1,1.3c0,0.7,0.3,1.3,1.2,1.3c0.6,0,0.8-0.3,0.9-0.7h1c-0.1,0.9-0.8,1.6-2,1.6c-1.4,0-2.1-1.1-2.1-2.2
			c0-1.1,0.7-2.2,2.1-2.2c1.4,0,1.9,0.8,2,1.7C55.2,52.8,54.2,52.8,54.2,52.8z M56.4,49.2h1v2.7c0.3-0.5,0.8-0.7,1.4-0.7
			c0.6,0,1,0.2,1.3,0.6c0.2,0.3,0.3,0.7,0.3,1.3v2.5h-1v-2.2c0-0.7-0.2-1.3-0.9-1.3c-0.7,0-1,0.6-1,1.3v2.2h-1V49.2z M65.5,51.3v4.2
			h-1v-0.6c-0.3,0.5-0.8,0.7-1.4,0.7c-0.6,0-1-0.2-1.3-0.6c-0.2-0.3-0.3-0.7-0.3-1.3v-2.5h1v2.2c0,0.7,0.2,1.3,0.9,1.3
			c0.7,0,1-0.6,1-1.3v-2.2H65.5z M66.9,55.5h1v-6.4h-1V55.5z M70,53h2.1c0-0.6-0.4-1-1-1C70.4,51.9,70,52.3,70,53L70,53z M70,53.7
			c0,0.6,0.3,1.1,1.1,1.1c0.6,0,0.8-0.3,0.9-0.6h1c-0.1,0.7-0.8,1.4-1.9,1.4c-1.4,0-2.1-1-2.1-2.2c0-1.3,0.8-2.2,2.1-2.2
			c1.1,0,2,0.8,2,1.9c0,0.1,0,0.3,0,0.6H70z M78.7,50.1c-0.1,0-0.3-0.1-0.4-0.1c-0.3,0-0.7,0-0.7,0.7v0.6h1.1v0.8h-1.1v3.4h-1v-3.4
			h-0.9v-0.8h0.9v-0.5c0-1.6,1-1.7,1.5-1.7c0.3,0,0.5,0.1,0.6,0.1L78.7,50.1L78.7,50.1z M82.5,49.2L82.5,49.2z M80.4,49.2
			c0.4,0,0.7,0.3,0.7,0.7c0,0.4-0.3,0.7-0.7,0.7s-0.7-0.3-0.7-0.7C79.7,49.5,80,49.2,80.4,49.2z M83.4,55.5h-1v-0.6
			c-0.3,0.5-0.8,0.7-1.4,0.7c-0.6,0-1-0.2-1.3-0.6c-0.2-0.3-0.3-0.7-0.3-1.3v-2.5h1v2.2c0,0.7,0.2,1.3,0.9,1.3c0.7,0,1-0.6,1-1.3
			v-2.2h1V55.5z M87.5,52.2c-0.1,0-0.3,0-0.4,0c-0.8,0-1.3,0.5-1.3,1.5v1.8h-1v-4.2h1V52c0.2-0.4,0.7-0.7,1.3-0.7
			c0.2,0,0.3,0,0.4,0.1C87.5,51.3,87.5,52.2,87.5,52.2z M94.1,52.3h3v0.9h-0.7c-0.3,1.4-1.3,2.4-3.1,2.4c-2.1,0-3.3-1.6-3.3-3.3
			c0-1.7,1.3-3.3,3.3-3.3c1.5,0,2.6,0.9,2.7,2.1H95c-0.1-0.6-0.8-1.1-1.7-1.1c-1.4,0-2.2,1.2-2.2,2.4s0.8,2.4,2.3,2.4
			c1.1,0,1.7-0.7,1.9-1.5h-1.2C94.1,53.3,94.1,52.3,94.1,52.3z M98.8,53h2.1c0-0.6-0.4-1-1-1C99.3,51.9,98.8,52.3,98.8,53z
			 M98.8,53.7c0,0.6,0.3,1.1,1.1,1.1c0.6,0,0.8-0.3,0.9-0.6h1c-0.1,0.7-0.8,1.4-1.9,1.4c-1.4,0-2.1-1-2.1-2.2c0-1.3,0.8-2.2,2.1-2.2
			c1.1,0,2,0.8,2,1.9c0,0.1,0,0.3,0,0.6H98.8L98.8,53.7z M106.2,54.3c0,0.9-0.8,1.3-1.7,1.3c-0.9,0-1.7-0.5-1.7-1.5h1
			c0,0.6,0.3,0.8,0.8,0.8c0.4,0,0.7-0.1,0.7-0.5c0-0.4-0.4-0.4-1.3-0.8c-0.6-0.2-1-0.4-1-1.2c0-0.8,0.7-1.2,1.6-1.2
			c0.9,0,1.6,0.6,1.6,1.4h-1c0-0.4-0.2-0.7-0.7-0.7c-0.3,0-0.6,0.2-0.6,0.5c0,0.4,0.4,0.4,1.2,0.7C105.6,53.4,106.2,53.6,106.2,54.3
			 M109.7,55.5c-0.2,0-0.5,0.1-0.7,0.1c-0.5,0-1.4-0.1-1.4-1.5v-2h-0.7v-0.8h0.7V50h1v1.3h1v0.8h-1v1.7c0,0.7,0.2,0.8,0.6,0.8
			c0.2,0,0.4,0,0.5,0C109.7,54.7,109.7,55.5,109.7,55.5z M113.8,53.4c0-0.7-0.5-1.3-1.3-1.3c-0.7,0-1.2,0.6-1.2,1.3
			c0,0.7,0.5,1.3,1.2,1.3C113.3,54.8,113.8,54.1,113.8,53.4z M114.8,51.3v4.2h-1V55c-0.3,0.4-0.8,0.7-1.3,0.7c-1.3,0-2.2-1-2.2-2.2
			c0-1.2,0.9-2.2,2.2-2.2c0.5,0,1,0.3,1.3,0.7v-0.6C113.8,51.3,114.8,51.3,114.8,51.3z M116.2,55.5h1v-6.4h-1V55.5z M121,55.5
			c-0.2,0-0.5,0.1-0.7,0.1c-0.5,0-1.4-0.1-1.4-1.5v-2h-0.7v-0.8h0.7V50h1v1.3h1v0.8h-1v1.7c0,0.7,0.2,0.8,0.6,0.8c0.2,0,0.4,0,0.5,0
			L121,55.5L121,55.5z M125.7,51.3v4.2h-1v-0.6c-0.3,0.5-0.8,0.7-1.4,0.7c-0.6,0-1-0.2-1.3-0.6c-0.2-0.3-0.3-0.7-0.3-1.3v-2.5h1v2.2
			c0,0.7,0.2,1.3,0.9,1.3c0.7,0,1-0.6,1-1.3v-2.2C124.7,51.3,125.7,51.3,125.7,51.3z M127.1,51.3h1v0.6c0.3-0.5,0.8-0.7,1.4-0.7
			c0.6,0,1,0.2,1.3,0.6c0.2,0.3,0.3,0.7,0.3,1.3v2.5h-1v-2.2c0-0.7-0.2-1.3-0.9-1.3c-0.7,0-1,0.6-1,1.3v2.2h-1
			C127.1,55.5,127.1,51.3,127.1,51.3z M133.1,53.4c0,0.7,0.5,1.3,1.2,1.3c0.8,0,1.3-0.6,1.3-1.3c0-0.7-0.5-1.3-1.3-1.3
			C133.6,52.1,133.1,52.7,133.1,53.4z M136.6,55.7c0,0.7-0.2,1.2-0.6,1.5s-1,0.5-1.7,0.5s-1.2-0.2-1.6-0.5c-0.3-0.3-0.5-0.7-0.6-1.2
			h1c0.1,0.5,0.4,0.9,1.1,0.9c0.8,0,1.3-0.3,1.3-1.1V55c-0.3,0.4-0.8,0.7-1.3,0.7c-1.3,0-2.2-1-2.2-2.2c0-1.2,0.9-2.2,2.2-2.2
			c0.5,0,1,0.3,1.3,0.7v-0.6h1C136.6,51.3,136.6,55.7,136.6,55.7z M3.2,66H2.5l-2.2-6.4h1.1l1.5,4.6l1.5-4.6h1.1L3.2,66z M9,63.9
			c0-0.7-0.5-1.3-1.3-1.3c-0.7,0-1.2,0.6-1.2,1.3c0,0.7,0.5,1.3,1.2,1.3C8.5,65.2,9,64.6,9,63.9 M5.5,63.9c0-1.2,0.9-2.2,2.2-2.2
			c1.4,0,2.2,1,2.2,2.2c0,1.2-0.9,2.2-2.2,2.2C6.4,66.1,5.5,65,5.5,63.9 M14,63.3c-0.1-0.5-0.3-0.8-1-0.8c-0.8,0-1.1,0.6-1.1,1.3
			c0,0.7,0.3,1.3,1.2,1.3c0.6,0,0.8-0.3,0.9-0.7h1c-0.1,0.9-0.8,1.6-2,1.6c-1.4,0-2.1-1.1-2.1-2.2c0-1.1,0.7-2.2,2.1-2.2
			c1.4,0,1.9,0.8,2,1.7L14,63.3L14,63.3z M19.3,63.9c0-0.7-0.5-1.3-1.3-1.3c-0.7,0-1.2,0.6-1.2,1.3c0,0.7,0.5,1.3,1.2,1.3
			C18.8,65.2,19.3,64.6,19.3,63.9z M20.3,61.7V66h-1v-0.6c-0.3,0.4-0.8,0.7-1.3,0.7c-1.3,0-2.2-1-2.2-2.2c0-1.2,0.9-2.2,2.2-2.2
			c0.5,0,1,0.3,1.3,0.7v-0.6L20.3,61.7L20.3,61.7z M24,66c-0.2,0-0.5,0.1-0.7,0.1c-0.5,0-1.4-0.1-1.4-1.5v-2h-0.7v-0.8h0.7v-1.3h1
			v1.3h1v0.8h-1v1.7c0,0.7,0.2,0.8,0.6,0.8c0.2,0,0.4,0,0.5,0C24,65.1,24,66,24,66z M24.9,66h1v-4.2h-1V66z M25.4,59.5
			c0.4,0,0.8,0.3,0.8,0.7c0,0.4-0.3,0.8-0.7,0.8c0,0-0.1,0-0.1,0c-0.4,0-0.7-0.4-0.7-0.8C24.8,59.8,25.1,59.5,25.4,59.5L25.4,59.5z
			 M30.5,63.9c0-0.7-0.5-1.3-1.3-1.3c-0.7,0-1.2,0.6-1.2,1.3c0,0.7,0.5,1.3,1.2,1.3C30,65.2,30.5,64.6,30.5,63.9 M27,63.9
			c0-1.2,0.9-2.2,2.2-2.2c1.4,0,2.2,1,2.2,2.2c0,1.2-0.9,2.2-2.2,2.2C27.9,66.1,27,65,27,63.9 M32.6,61.7h1v0.6
			c0.3-0.5,0.8-0.7,1.4-0.7c0.6,0,1,0.2,1.3,0.6c0.2,0.3,0.3,0.7,0.3,1.3V66h-1v-2.2c0-0.7-0.2-1.3-0.9-1.3c-0.7,0-1,0.6-1,1.3V66
			h-1C32.6,66,32.6,61.7,32.6,61.7z M41,63.9c0-0.7-0.5-1.3-1.3-1.3c-0.7,0-1.2,0.6-1.2,1.3c0,0.7,0.5,1.3,1.2,1.3
			C40.5,65.2,41,64.6,41,63.9z M42,61.7V66h-1v-0.6c-0.3,0.4-0.8,0.7-1.3,0.7c-1.3,0-2.2-1-2.2-2.2c0-1.2,0.9-2.2,2.2-2.2
			c0.5,0,1,0.3,1.3,0.7v-0.6L42,61.7L42,61.7z M43.4,66h1v-6.4h-1V66z M48.6,63.9c0,0.8,0.5,1.3,1.2,1.3c0.6,0,1-0.4,1-0.9
			c0-0.6-0.6-0.9-1-1c-1.2-0.4-2.1-0.8-2.1-2c0-1.1,0.9-1.7,2-1.7c1.1,0,2,0.8,2,2h-1c0-0.6-0.4-1.1-1-1.1c-0.5,0-1,0.3-1,0.8
			c0,0.5,0.5,0.8,0.9,0.9c1,0.4,2.2,0.8,2.2,2c0,1.3-1,2-2.2,2c-1.2,0-2.2-0.8-2.2-2.2C47.6,63.9,48.6,63.9,48.6,63.9z M56,63.3
			c-0.1-0.5-0.3-0.8-1-0.8c-0.8,0-1.1,0.6-1.1,1.3c0,0.7,0.3,1.3,1.2,1.3c0.6,0,0.8-0.3,0.9-0.7h1c-0.1,0.9-0.8,1.6-2,1.6
			c-1.4,0-2.1-1.1-2.1-2.2c0-1.1,0.7-2.2,2.1-2.2c1.4,0,1.9,0.8,2,1.7L56,63.3L56,63.3z M58.1,59.6h1v2.7c0.3-0.5,0.8-0.7,1.4-0.7
			c0.6,0,1,0.2,1.3,0.6c0.2,0.3,0.3,0.7,0.3,1.3V66h-1v-2.2c0-0.7-0.2-1.3-0.9-1.3c-0.7,0-1,0.6-1,1.3V66h-1L58.1,59.6L58.1,59.6z
			 M66.5,63.9c0-0.7-0.5-1.3-1.3-1.3c-0.7,0-1.2,0.6-1.2,1.3c0,0.7,0.5,1.3,1.2,1.3C66.1,65.2,66.5,64.6,66.5,63.9 M63.1,63.9
			c0-1.2,0.9-2.2,2.2-2.2c1.4,0,2.2,1,2.2,2.2c0,1.2-0.9,2.2-2.2,2.2C63.9,66.1,63.1,65,63.1,63.9 M71.8,63.9c0-0.7-0.5-1.3-1.3-1.3
			c-0.7,0-1.2,0.6-1.2,1.3c0,0.7,0.5,1.3,1.2,1.3C71.4,65.2,71.8,64.6,71.8,63.9 M68.4,63.9c0-1.2,0.9-2.2,2.2-2.2
			c1.4,0,2.2,1,2.2,2.2c0,1.2-0.9,2.2-2.2,2.2C69.2,66.1,68.4,65,68.4,63.9 M74,66h1v-6.4h-1V66z M81.5,63.9c0-0.7-0.5-1.3-1.3-1.3
			c-0.7,0-1.2,0.6-1.2,1.3c0,0.7,0.5,1.3,1.2,1.3C81,65.2,81.5,64.6,81.5,63.9 M78.1,63.9c0-1.2,0.9-2.2,2.2-2.2
			c1.4,0,2.2,1,2.2,2.2c0,1.2-0.9,2.2-2.2,2.2C78.9,66.1,78.1,65,78.1,63.9 M86.1,60.5c-0.1,0-0.3-0.1-0.4-0.1c-0.3,0-0.7,0-0.7,0.7
			v0.6h1.1v0.8H85V66h-1v-3.4h-0.9v-0.8H84v-0.5c0-1.6,1-1.7,1.5-1.7c0.3,0,0.5,0.1,0.6,0.1C86.1,59.7,86.1,60.5,86.1,60.5z
			 M90.9,61.3L90,64.2h1.8L90.9,61.3z M92.4,66l-0.3-0.8h-2.4L89.4,66h-1.1l2.2-6.4h0.7l2.2,6.4H92.4z M95.3,63.9
			c0,0.7,0.5,1.3,1.3,1.3c0.7,0,1.2-0.6,1.2-1.3s-0.5-1.3-1.2-1.3C95.8,62.5,95.3,63.1,95.3,63.9L95.3,63.9z M95.3,62.3
			c0.3-0.4,0.8-0.7,1.3-0.7c1.3,0,2.2,1,2.2,2.2c0,1.2-0.9,2.2-2.2,2.2c-0.5,0-1-0.3-1.3-0.7v2.7h-1v-6.4h1L95.3,62.3L95.3,62.3z
			 M100.9,63.9c0,0.7,0.5,1.3,1.3,1.3c0.7,0,1.2-0.6,1.2-1.3s-0.5-1.3-1.2-1.3C101.4,62.5,100.9,63.1,100.9,63.9z M100.9,62.3
			c0.3-0.4,0.8-0.7,1.3-0.7c1.3,0,2.2,1,2.2,2.2c0,1.2-0.9,2.2-2.2,2.2c-0.5,0-1-0.3-1.3-0.7v2.7h-1v-6.4h1V62.3z M105.5,66h1v-6.4
			h-1V66z M107.9,66h1v-4.2h-1V66z M108.4,59.5c0.4,0,0.7,0.3,0.8,0.7c0,0.4-0.3,0.7-0.7,0.8c0,0,0,0-0.1,0c-0.4,0-0.7-0.3-0.7-0.7
			C107.6,59.8,108,59.5,108.4,59.5C108.4,59.5,108.4,59.5,108.4,59.5L108.4,59.5z M111,63.4h2.1c0-0.6-0.4-1-1-1
			C111.4,62.4,111,62.7,111,63.4L111,63.4z M111,64.2c0,0.6,0.3,1.1,1.1,1.1c0.6,0,0.8-0.3,0.9-0.6h1c-0.1,0.7-0.8,1.4-1.9,1.4
			c-1.4,0-2.1-1-2.1-2.2c0-1.3,0.8-2.2,2.1-2.2c1.1,0,2,0.8,2,1.9c0,0.1,0,0.3,0,0.6C114,64.2,111,64.2,111,64.2z M118.4,63.9
			c0-0.7-0.5-1.3-1.3-1.3c-0.7,0-1.2,0.6-1.2,1.3c0,0.7,0.5,1.3,1.2,1.3C117.9,65.2,118.4,64.6,118.4,63.9L118.4,63.9z M118.4,65.4
			c-0.3,0.4-0.8,0.7-1.3,0.7c-1.3,0-2.2-1-2.2-2.2c0-1.2,0.9-2.2,2.2-2.2c0.5,0,1,0.3,1.3,0.7v-2.7h1V66h-1L118.4,65.4L118.4,65.4z
			 M124.7,61.3l-0.9,2.9h1.8L124.7,61.3z M126.2,66l-0.3-0.8h-2.4l-0.3,0.8h-1.1l2.2-6.4h0.7l2.2,6.4C127.3,66,126.2,66,126.2,66z
			 M130.8,62.7c-0.1,0-0.3,0-0.4,0c-0.8,0-1.3,0.5-1.3,1.5V66h-1v-4.2h1v0.7c0.2-0.4,0.7-0.7,1.3-0.7c0.2,0,0.3,0,0.4,0.1
			C130.8,61.7,130.8,62.7,130.8,62.7z M134.3,66c-0.2,0-0.5,0.1-0.7,0.1c-0.5,0-1.4-0.1-1.4-1.5v-2h-0.7v-0.8h0.7v-1.3h1v1.3h1v0.8
			h-1v1.7c0,0.7,0.2,0.8,0.6,0.8c0.2,0,0.4,0,0.5,0L134.3,66L134.3,66z M138.4,64.8c0,0.9-0.8,1.3-1.7,1.3c-0.9,0-1.7-0.5-1.7-1.5h1
			c0,0.6,0.3,0.8,0.8,0.8c0.4,0,0.7-0.1,0.7-0.5c0-0.4-0.4-0.4-1.3-0.8c-0.6-0.2-1-0.4-1-1.2c0-0.8,0.7-1.2,1.6-1.2
			c0.9,0,1.6,0.6,1.6,1.4h-1c0-0.4-0.2-0.7-0.7-0.7c-0.3,0-0.6,0.2-0.6,0.5c0,0.4,0.4,0.4,1.2,0.7C137.8,63.8,138.4,64,138.4,64.8
			 M11.3,13.9c0-2.2-1.5-3.5-3.7-3.5c-2.1,0-3.8,1.2-3.8,3.5L11.3,13.9L11.3,13.9z M7.6,7.4c4,0,7.2,3,7.2,6.9c0,0.5,0,1.2-0.2,2.3
			H3.7c0,2.2,1.2,4,4,4c2.1,0,2.8-0.9,3.3-2h3.6c-0.5,2.6-2.9,5-6.9,5c-5.2,0-7.7-3.9-7.7-8.1C0,10.9,2.7,7.4,7.6,7.4L7.6,7.4z
			 M17.9,23.2h3.6V7.8h-3.6L17.9,23.2L17.9,23.2z M19.7,0c1.3,0,2.4,1.1,2.4,2.4c0,0,0,0,0,0c0,1.3-1.1,2.4-2.4,2.4
			c-1.3,0-2.4-1.1-2.4-2.4C17.3,1.1,18.4,0,19.7,0z M25.4,23.2V0.1H29v14.6l5.7-6.8h4.5l-6.4,7.7l6.4,7.7h-4.5L29,16.4v6.8H25.4z"/>
		<defs>
			
				<filter id="Adobe_OpacityMaskFilter_00000041992374935510547030000006920258685631234491_" filterUnits="userSpaceOnUse" x="0.5" y="7.4" width="72" height="20">
				<feColorMatrix  type="matrix" values="1 0 0 0 0  0 1 0 0 0  0 0 1 0 0  0 0 0 1 0"/>
			</filter>
		</defs>
		
			<mask maskUnits="userSpaceOnUse" x="0.5" y="7.4" width="72" height="20" id="b_00000103250626506587649490000018094392244241980048_">
			<g filter="url(#Adobe_OpacityMaskFilter_00000041992374935510547030000006920258685631234491_)">
				<path id="a_00000004535504557588586520000013004947313631421624_" fill-rule="evenodd" clip-rule="evenodd" fill="#FFFFFF" d="
					M0,68.1h163.2V0H0V68.1z"/>
			</g>
		</mask>
		
			<path mask="url(#b_00000103250626506587649490000018094392244241980048_)" fill-rule="evenodd" clip-rule="evenodd" fill="#131413" d="
			M47.1,20.4c2.7,0,4.6-2.3,4.6-4.9s-1.8-4.9-4.6-4.9c-2.7,0-4.5,2.3-4.5,4.9C42.6,18.2,44.4,20.4,47.1,20.4 M47.1,7.4
			c4.9,0,8.2,3.7,8.2,8.1c0,4.4-3.2,8.1-8.2,8.1c-4.9,0-8.1-3.7-8.1-8.1C39,11.2,42.2,7.4,47.1,7.4 M57.9,23.2V7.8h3.6V10
			c1-1.7,2.7-2.6,5-2.6c2.2,0,3.7,0.8,4.6,2.1c0.8,1.2,1,2.4,1,4.6v9.2h-3.6v-8c0-2.6-0.8-4.7-3.3-4.7c-2.5,0-3.7,2-3.7,4.7v8
			C61.6,23.2,57.9,23.2,57.9,23.2z M31.7,25.7H0.5v1.7h31.9L31.7,25.7z M34,25.7l0.8,1.7h37.8v-1.7H34z"/>
	</g>
</g>
</svg>
