<?xml version="1.0" encoding="utf-8"?>
<!-- Generator: Adobe Illustrator 27.5.0, SVG Export Plug-In . SVG Version: 6.00 Build 0)  -->
<svg version="1.1" id="Calque_1" xmlns="http://www.w3.org/2000/svg" xmlns:xlink="http://www.w3.org/1999/xlink" x="0px" y="0px"
	 viewBox="0 0 119 44" enable-background="new 0 0 119 44" xml:space="preserve">
<g id="maquette-v3">
	<g id="Homepage-menu-open" transform="translate(-44.000000, -28.000000)">
		<g id="Logo" transform="translate(44.740741, 28.178082)">
			<g id="Group-3" transform="translate(0.000000, 11.315068)">
				<g id="Clip-2">
				</g>
				<defs>
					<filter id="Adobe_OpacityMaskFilter" filterUnits="userSpaceOnUse" x="0" y="0" width="23.4" height="26.7">
						<feColorMatrix  type="matrix" values="1 0 0 0 0  0 1 0 0 0  0 0 1 0 0  0 0 0 1 0"/>
					</filter>
				</defs>
				
					<mask maskUnits="userSpaceOnUse" x="0" y="0" width="23.4" height="26.7" id="mask-2_00000152243951112575601630000010877525815777609884_">
					<g filter="url(#Adobe_OpacityMaskFilter)">
						
							<polygon id="path-1_00000042001445507911045480000000188827111244874632_" fill-rule="evenodd" clip-rule="evenodd" fill="#FFFFFF" points="
							0,0 23.4,0 23.4,26.7 0,26.7 						"/>
					</g>
				</mask>
				
					<path id="Fill-1" mask="url(#mask-2_00000152243951112575601630000010877525815777609884_)" fill-rule="evenodd" clip-rule="evenodd" fill="#131413" d="
					M17.9,10.7c0-3.5-2.4-5.8-5.9-5.8c-3.4,0-6,2-6,5.8H17.9z M12.1,0c6.4,0,11.4,5,11.4,11.4c0,0.9,0,2-0.3,3.7H5.8
					c0,3.6,1.8,6.6,6.4,6.6c3.3,0,4.5-1.5,5.2-3.3h5.8c-0.8,4.4-4.7,8.3-11,8.3C4,26.7,0,20.2,0,13.3C0,5.7,4.4,0,12.1,0L12.1,0z"/>
			</g>
			<g id="Clip-5">
			</g>
			<defs>
				
					<filter id="Adobe_OpacityMaskFilter_00000040554411265638952640000011848167511256733081_" filterUnits="userSpaceOnUse" x="28.3" y="0" width="8.1" height="37.2">
					<feColorMatrix  type="matrix" values="1 0 0 0 0  0 1 0 0 0  0 0 1 0 0  0 0 0 1 0"/>
				</filter>
			</defs>
			
				<mask maskUnits="userSpaceOnUse" x="28.3" y="0" width="8.1" height="37.2" id="mask-4_00000135655626058667763040000003262331464620951460_">
				<g filter="url(#Adobe_OpacityMaskFilter_00000040554411265638952640000011848167511256733081_)">
					
						<polygon id="path-3_00000150085872863131780960000007474121170675010490_" fill-rule="evenodd" clip-rule="evenodd" fill="#FFFFFF" points="
						0,43.6 118,43.6 118,0 0,0 					"/>
				</g>
			</mask>
			
				<path id="Fill-4" mask="url(#mask-4_00000135655626058667763040000003262331464620951460_)" fill-rule="evenodd" clip-rule="evenodd" fill="#131413" d="
				M29.3,37.2h6.1V12.5h-6.1V37.2z M32.3,0c2.3,0,4.1,1.7,4.1,3.9c0,2.1-1.8,3.8-4.1,3.8c-2.2,0-4-1.7-4-3.8C28.3,1.7,30.1,0,32.3,0
				L32.3,0z"/>
			<defs>
				
					<filter id="Adobe_OpacityMaskFilter_00000169535218893881430970000016991112182016645517_" filterUnits="userSpaceOnUse" x="41.2" y="0" width="22.6" height="37.2">
					<feColorMatrix  type="matrix" values="1 0 0 0 0  0 1 0 0 0  0 0 1 0 0  0 0 0 1 0"/>
				</filter>
			</defs>
			
				<mask maskUnits="userSpaceOnUse" x="41.2" y="0" width="22.6" height="37.2" id="mask-4_00000139280349105344247250000014664209344565086344_">
				<g filter="url(#Adobe_OpacityMaskFilter_00000169535218893881430970000016991112182016645517_)">
					
						<polygon id="path-3_00000013881412803445256650000004712554305429514122_" fill-rule="evenodd" clip-rule="evenodd" fill="#FFFFFF" points="
						0,43.6 118,43.6 118,0 0,0 					"/>
				</g>
			</mask>
			
				<polygon id="Fill-6" mask="url(#mask-4_00000139280349105344247250000014664209344565086344_)" fill-rule="evenodd" clip-rule="evenodd" fill="#131413" points="
				41.2,37.2 41.2,0 47.1,0 47.1,23.4 56.5,12.4 63.8,12.4 53.3,24.8 63.8,37.2 56.5,37.2 47.1,26.3 47.1,37.2 			"/>
			<defs>
				
					<filter id="Adobe_OpacityMaskFilter_00000129899172444087543960000000475563621940713878_" filterUnits="userSpaceOnUse" x="62.2" y="11.3" width="27.5" height="26.7">
					<feColorMatrix  type="matrix" values="1 0 0 0 0  0 1 0 0 0  0 0 1 0 0  0 0 0 1 0"/>
				</filter>
			</defs>
			
				<mask maskUnits="userSpaceOnUse" x="62.2" y="11.3" width="27.5" height="26.7" id="mask-4_00000014613232655680982380000017735522932739802301_">
				<g filter="url(#Adobe_OpacityMaskFilter_00000129899172444087543960000000475563621940713878_)">
					
						<polygon id="path-3_00000062878665275670434170000011894802918630732977_" fill-rule="evenodd" clip-rule="evenodd" fill="#FFFFFF" points="
						0,43.6 118,43.6 118,0 0,0 					"/>
				</g>
			</mask>
			
				<path id="Fill-7" mask="url(#mask-4_00000014613232655680982380000017735522932739802301_)" fill-rule="evenodd" clip-rule="evenodd" fill="#131413" d="
				M75.9,32.7c4.6,0,7.7-3.7,7.7-8.1s-3.1-8.1-7.7-8.1s-7.6,3.7-7.6,8.1S71.3,32.7,75.9,32.7 M75.9,11.3c8.3,0,13.8,6.1,13.8,13.3
				S84.2,38,75.9,38c-8.3,0-13.7-6.1-13.7-13.3S67.7,11.3,75.9,11.3"/>
			<defs>
				
					<filter id="Adobe_OpacityMaskFilter_00000029025040890485067450000015267017657992466081_" filterUnits="userSpaceOnUse" x="92.9" y="11.3" width="23.4" height="25.9">
					<feColorMatrix  type="matrix" values="1 0 0 0 0  0 1 0 0 0  0 0 1 0 0  0 0 0 1 0"/>
				</filter>
			</defs>
			
				<mask maskUnits="userSpaceOnUse" x="92.9" y="11.3" width="23.4" height="25.9" id="mask-4_00000149367786189507956900000001837350795250011790_">
				<g filter="url(#Adobe_OpacityMaskFilter_00000029025040890485067450000015267017657992466081_)">
					
						<polygon id="path-3_00000146462141249995907690000000775152237751439009_" fill-rule="evenodd" clip-rule="evenodd" fill="#FFFFFF" points="
						0,43.6 118,43.6 118,0 0,0 					"/>
				</g>
			</mask>
			
				<path id="Fill-8" mask="url(#mask-4_00000149367786189507956900000001837350795250011790_)" fill-rule="evenodd" clip-rule="evenodd" fill="#131413" d="
				M92.9,37.2V12h5.9v3.5c1.6-2.8,4.5-4.2,8.3-4.2c3.7,0,6.1,1.3,7.6,3.4c1.3,1.9,1.6,4,1.6,7.5v15h-5.9v-13c0-4.3-1.3-7.6-5.5-7.6
				c-4.1,0-6.1,3.3-6.1,7.6v13H92.9z"/>
			<defs>
				
					<filter id="Adobe_OpacityMaskFilter_00000096757361767883651420000010932702654935896253_" filterUnits="userSpaceOnUse" x="0.8" y="41.2" width="52.5" height="2.4">
					<feColorMatrix  type="matrix" values="1 0 0 0 0  0 1 0 0 0  0 0 1 0 0  0 0 0 1 0"/>
				</filter>
			</defs>
			
				<mask maskUnits="userSpaceOnUse" x="0.8" y="41.2" width="52.5" height="2.4" id="mask-4_00000069373312189127322840000000393939383672438671_">
				<g filter="url(#Adobe_OpacityMaskFilter_00000096757361767883651420000010932702654935896253_)">
					
						<polygon id="path-3_00000179617424586344932120000007865450818516403332_" fill-rule="evenodd" clip-rule="evenodd" fill="#FFFFFF" points="
						0,43.6 118,43.6 118,0 0,0 					"/>
				</g>
			</mask>
			
				<polygon id="Fill-9" mask="url(#mask-4_00000069373312189127322840000000393939383672438671_)" fill-rule="evenodd" clip-rule="evenodd" fill="#131413" points="
				52.1,41.2 0.8,41.2 0.8,43.6 53.3,43.6 			"/>
			<defs>
				
					<filter id="Adobe_OpacityMaskFilter_00000015317004623019886880000001031836563023494558_" filterUnits="userSpaceOnUse" x="54.2" y="41.2" width="63.8" height="2.4">
					<feColorMatrix  type="matrix" values="1 0 0 0 0  0 1 0 0 0  0 0 1 0 0  0 0 0 1 0"/>
				</filter>
			</defs>
			
				<mask maskUnits="userSpaceOnUse" x="54.2" y="41.2" width="63.8" height="2.4" id="mask-4_00000003825388914501460930000003635092472038707103_">
				<g filter="url(#Adobe_OpacityMaskFilter_00000015317004623019886880000001031836563023494558_)">
					
						<polygon id="path-3_00000039814805741734663330000000799068742066793146_" fill-rule="evenodd" clip-rule="evenodd" fill="#FFFFFF" points="
						0,43.6 118,43.6 118,0 0,0 					"/>
				</g>
			</mask>
			
				<polygon id="Fill-10" mask="url(#mask-4_00000003825388914501460930000003635092472038707103_)" fill-rule="evenodd" clip-rule="evenodd" fill="#131413" points="
				54.2,41.2 55.4,43.6 118,43.6 118,41.2 			"/>
		</g>
	</g>
</g>
</svg>
