<?xml version="1.0" encoding="utf-8"?>
<!-- Generator: Adobe Illustrator 27.5.0, SVG Export Plug-In . SVG Version: 6.00 Build 0)  -->
<svg version="1.1" id="Layer_1" xmlns="http://www.w3.org/2000/svg" xmlns:xlink="http://www.w3.org/1999/xlink" x="0px" y="0px"
	 viewBox="0 0 73.7 72.7" enable-background="new 0 0 73.7 72.7" xml:space="preserve">
<g>
	<path d="M0.3,34.8v1.5c4.4-1.1,9.1-3.8,11.7-6.2c1.7-1.6,3.2-3.5,4.4-5.7c0,0,0.1-0.1,0.1-0.2c1.1-2,1.9-4.4,2.5-7.2
		c1.6-7.7-0.8-15.4-1.3-16.4C17.1-0.1,16.3,0,15.7,0c-0.1,0-0.3,0-0.4,0H0.3v17.6h11.5c0.1,0,0.3,0,0.3,0c0.4,0.1,0.7,0.3,0.7,0.7
		c0,0.1,0,0.2,0,0.3C12.8,22.1,11.1,29,1.2,33.4l-0.9,0.4V34.8z"/>
	<g>
		<path d="M0.3,44.7h3.9v0.6H1.1v1.8H4v0.6H1.1v1.9h3.1v0.6H0.3V44.7z"/>
		<path d="M6.5,45.3H4.7v-0.6h4.5v0.6H7.3v5H6.5V45.3z"/>
		<path d="M10.7,44.7h0.8l2.2,5.6h-0.8l-0.6-1.7H9.9l-0.6,1.7H8.5L10.7,44.7z M10.1,48H12l-0.9-2.6h0L10.1,48z"/>
		<path d="M15,45.3h-1.9v-0.6h4.5v0.6h-1.9v5H15V45.3z"/>
		<path d="M20.7,44.7h1.9c1.7,0,2.7,0.9,2.7,2.7c0,1.9-0.8,2.9-2.7,2.9h-1.9V44.7z M21.4,49.7h1.2c0.5,0,1.9-0.1,1.9-2.2
			c0-1.3-0.5-2.1-1.9-2.1h-1.3V49.7z"/>
		<path d="M26.3,44.7h3.9v0.6h-3.1v1.8H30v0.6h-2.9v1.9h3.1v0.6h-3.9V44.7z"/>
		<path d="M33.6,44.7h3.7v0.6h-2.9v1.8h2.6v0.6h-2.6v2.6h-0.7V44.7z"/>
		<path d="M38.2,44.7h2.6c1,0,1.7,0.6,1.7,1.5c0,0.7-0.3,1.2-1,1.4v0c0.7,0.1,0.8,0.6,0.8,1.2c0,0.5,0,1.2,0.3,1.5h-0.8
			c-0.2-0.2-0.1-0.8-0.2-1.4c-0.1-0.5-0.2-1-0.9-1H39v2.4h-0.7V44.7z M40.5,47.3c0.7,0,1.3-0.2,1.3-1c0-0.5-0.3-1-1-1H39v1.9H40.5z"
			/>
		<path d="M43.8,44.7h0.7v5.6h-0.7V44.7z"/>
		<path d="M45.9,44.7h2c0.5,0,1.1,0,1.5,0.2c0.4,0.2,0.7,0.6,0.7,1.2c0,0.6-0.3,1-0.8,1.3v0c0.7,0.1,1.1,0.7,1.1,1.3
			c0,0.8-0.6,1.6-1.7,1.6h-2.7V44.7z M46.7,47.1h1.5c0.8,0,1.2-0.3,1.2-0.9c0-0.8-0.5-0.9-1.2-0.9h-1.5V47.1z M46.7,49.7h1.9
			c0.6,0,1-0.4,1-1c0-0.7-0.6-0.9-1.2-0.9h-1.7V49.7z"/>
		<path d="M53.8,44.6c1.8,0,2.7,1.4,2.7,2.9c0,1.5-0.9,2.9-2.7,2.9c-1.8,0-2.7-1.4-2.7-2.9C51.1,46,52,44.6,53.8,44.6z M53.8,49.8
			c1.4,0,1.9-1.2,1.9-2.3c0-1.1-0.6-2.3-1.9-2.3c-1.4,0-1.9,1.2-1.9,2.3C51.9,48.6,52.4,49.8,53.8,49.8z"/>
		<path d="M62,48.3c0,1.4-0.8,2.2-2.2,2.2c-1.4,0-2.3-0.7-2.3-2.2v-3.6h0.7v3.6c0,1,0.6,1.5,1.5,1.5c0.9,0,1.5-0.5,1.5-1.5v-3.6H62
			V48.3z"/>
		<path d="M63.3,44.7H66c1,0,1.7,0.6,1.7,1.5c0,0.7-0.3,1.2-1,1.4v0c0.7,0.1,0.8,0.6,0.8,1.2c0,0.5,0,1.2,0.3,1.5H67
			c-0.2-0.2-0.1-0.8-0.2-1.4c-0.1-0.5-0.2-1-0.9-1h-1.8v2.4h-0.7V44.7z M65.6,47.3c0.7,0,1.3-0.2,1.3-1c0-0.5-0.3-1-1-1h-1.8v1.9
			H65.6z"/>
		<path d="M73,49.6c-0.4,0.6-1.1,0.8-1.8,0.8c-1.7,0-2.7-1.4-2.7-2.8c0-1.6,0.9-3,2.7-3c1.2,0,2.2,0.5,2.4,1.9h-0.7
			c-0.1-0.8-0.8-1.2-1.7-1.2c-1.4,0-1.9,1.2-1.9,2.4c0,1.2,0.7,2.2,1.9,2.2c1.2,0,1.8-0.8,1.8-1.8h-1.8v-0.6h2.4v2.9h-0.5L73,49.6z"
			/>
		<path d="M3.5,57.5c-0.1-0.8-0.6-1.1-1.4-1.1c-0.6,0-1.3,0.2-1.3,1c0,0.7,0.9,0.8,1.8,1c0.9,0.2,1.8,0.5,1.8,1.6
			c0,1.2-1.2,1.7-2.2,1.7c-1.3,0-2.3-0.6-2.3-2h0.7c0,0.9,0.8,1.3,1.6,1.3c0.7,0,1.4-0.2,1.4-1c0-0.8-0.9-0.9-1.8-1.1
			c-0.9-0.2-1.8-0.5-1.8-1.5c0-1.1,1-1.6,2-1.6c1.1,0,2,0.5,2.1,1.8H3.5z"/>
		<path d="M6.5,56.5H4.6v-0.6h4.5v0.6H7.2v5H6.5V56.5z"/>
		<path d="M10.7,55.9h0.8l2.2,5.6h-0.8l-0.6-1.7H9.9l-0.6,1.7H8.5L10.7,55.9z M10.1,59.2H12l-0.9-2.6h0L10.1,59.2z"/>
		<path d="M15.9,55.9h0.8l2.2,5.6h-0.8l-0.6-1.7h-2.4l-0.6,1.7h-0.8L15.9,55.9z M15.3,59.2h1.9l-0.9-2.6h0L15.3,59.2z"/>
		<path d="M20.2,56.5h-1.9v-0.6h4.5v0.6h-1.9v5h-0.7V56.5z"/>
		<path d="M25.9,55.9h3.7v0.6h-2.9v1.8h2.6v0.6h-2.6v2.6h-0.7V55.9z"/>
		<path d="M30.5,55.9h2.6c1,0,1.7,0.6,1.7,1.5c0,0.7-0.3,1.2-1,1.4v0c0.6,0.1,0.8,0.6,0.8,1.2c0,0.5,0,1.2,0.3,1.5h-0.8
			c-0.2-0.2-0.1-0.8-0.2-1.4c-0.1-0.5-0.2-1-0.9-1h-1.8v2.4h-0.7V55.9z M32.8,58.5c0.7,0,1.3-0.2,1.3-1c0-0.5-0.3-1-1-1h-1.8v1.9
			H32.8z"/>
		<path d="M36,55.9h3.9v0.6h-3.1v1.8h2.9v0.6h-2.9v1.9h3.1v0.6H36V55.9z"/>
		<path d="M41,55.9h0.7v5.6H41V55.9z"/>
		<path d="M43.1,55.9h2c0.5,0,1.1,0,1.5,0.2c0.4,0.2,0.7,0.6,0.7,1.2c0,0.6-0.3,1-0.8,1.3v0c0.7,0.1,1.1,0.7,1.1,1.3
			c0,0.8-0.6,1.6-1.7,1.6h-2.7V55.9z M43.9,58.3h1.5c0.8,0,1.2-0.3,1.2-0.9c0-0.8-0.5-0.9-1.2-0.9h-1.5V58.3z M43.9,60.9h1.9
			c0.6,0,1-0.4,1-1c0-0.7-0.6-0.9-1.2-0.9h-1.7V60.9z"/>
		<path d="M53.1,59.5c0,1.4-0.8,2.2-2.2,2.2c-1.4,0-2.3-0.7-2.3-2.2v-3.6h0.7v3.6c0,1,0.6,1.5,1.5,1.5c0.9,0,1.5-0.5,1.5-1.5v-3.6
			h0.7V59.5z"/>
		<path d="M54.4,55.9h2.6c1,0,1.7,0.6,1.7,1.5c0,0.7-0.3,1.2-1,1.4v0c0.6,0.1,0.8,0.6,0.8,1.2c0,0.5,0,1.2,0.3,1.5h-0.8
			c-0.2-0.2-0.1-0.8-0.2-1.4c-0.1-0.5-0.2-1-0.9-1h-1.8v2.4h-0.7V55.9z M56.7,58.5c0.7,0,1.3-0.2,1.3-1c0-0.5-0.3-1-1-1h-1.8v1.9
			H56.7z"/>
		<path d="M64.1,60.8c-0.4,0.6-1.1,0.8-1.8,0.8c-1.7,0-2.7-1.4-2.7-2.8c0-1.6,0.9-3,2.7-3c1.2,0,2.2,0.5,2.4,1.9H64
			c-0.1-0.8-0.8-1.2-1.7-1.2c-1.4,0-1.9,1.2-1.9,2.4c0,1.2,0.7,2.2,1.9,2.2c1.2,0,1.8-0.8,1.8-1.8h-1.8v-0.6h2.4v2.9h-0.5L64.1,60.8
			z"/>
		<path d="M3.8,72.7H3.3l-0.9-3.2h0l-0.9,3.2H1l-1-3.8h0.5L1.3,72h0l0.9-3.2h0.6L3.5,72h0l0.8-3.2h0.5L3.8,72.7z"/>
		<path d="M8.9,72.7H8.4l-0.9-3.2h0l-0.9,3.2H6.1l-1-3.8h0.5L6.4,72h0l0.9-3.2h0.6L8.6,72h0l0.8-3.2h0.5L8.9,72.7z"/>
		<path d="M14,72.7h-0.5l-0.9-3.2h0l-0.9,3.2h-0.5l-1-3.8h0.5l0.8,3.2h0l0.9-3.2h0.6l0.8,3.2h0l0.8-3.2H15L14,72.7z"/>
		<path d="M15.2,72.1h0.6v0.6h-0.6V72.1z"/>
		<path d="M16.8,68.8h2.5v0.4h-2v1.2h1.8v0.4h-1.8v1.8h-0.5V68.8z"/>
		<path d="M20,68.8h1.8c0.7,0,1.2,0.4,1.2,1c0,0.5-0.2,0.8-0.7,1v0c0.4,0.1,0.5,0.4,0.6,0.8c0,0.4,0,0.8,0.2,1.1h-0.6
			c-0.1-0.2-0.1-0.6-0.1-0.9c-0.1-0.4-0.1-0.7-0.6-0.7h-1.2v1.6H20V68.8z M21.6,70.6c0.5,0,0.9-0.1,0.9-0.7c0-0.4-0.2-0.7-0.7-0.7
			h-1.3v1.3H21.6z"/>
		<path d="M23.8,72.1h0.6v0.6h-0.6V72.1z"/>
		<path d="M28.1,70c-0.1-0.5-0.5-0.8-1.1-0.8c-0.9,0-1.3,0.8-1.3,1.6c0,0.9,0.4,1.6,1.3,1.6c0.7,0,1.1-0.5,1.1-1.1h0.5
			c-0.1,1-0.7,1.5-1.7,1.5c-1.2,0-1.8-0.9-1.8-2c0-1.1,0.6-2,1.8-2c0.8,0,1.5,0.4,1.6,1.2H28.1z"/>
		<path d="M29.4,68.8h0.5v1.6h2v-1.6h0.5v3.8h-0.5v-1.8h-2v1.8h-0.5V68.8z"/>
	</g>
</g>
</svg>
