<?xml version="1.0" encoding="utf-8"?>
<!-- Generator: Adobe Illustrator 14.0.0, SVG Export Plug-In . SVG Version: 6.00 Build 43363)  -->
<!DOCTYPE svg PUBLIC "-//W3C//DTD SVG 1.1//EN" "http://www.w3.org/Graphics/SVG/1.1/DTD/svg11.dtd">
<svg version="1.1" id="Layer_1" xmlns="http://www.w3.org/2000/svg" xmlns:xlink="http://www.w3.org/1999/xlink" x="0px" y="0px"
	 width="201px" height="70px" viewBox="0 0 201 70" enable-background="new 0 0 201 70" xml:space="preserve">
<g>
	<g>
		<path d="M136.079,27.292c-9.302,0-17.142,5.98-20.063,14.271c-1.543-4.342-4.424-8.059-8.168-10.601
			c-3.076-2.095-5.113-5.591-5.113-9.562c0-6.301,5.188-11.442,11.535-11.442V0.094c-11.76,0-21.383,9.49-21.383,21.307
			c0,7.354,3.72,13.852,9.366,17.705v0.015c3.094,2.073,5.129,5.593,5.129,9.575c0,6.291-5.188,11.439-11.532,11.439
			c-6.312,0-11.44-5.148-11.44-11.439h-9.867C74.542,60.415,84.124,70,95.848,70c9.291,0,17.227-5.938,20.166-14.248
			C118.945,64.029,126.844,70,136.079,70c11.774,0,21.399-9.492,21.399-21.307C157.479,36.88,147.889,27.292,136.079,27.292
			 M136.079,60.134c-6.294,0-11.438-5.149-11.438-11.44c0-6.348,5.146-11.533,11.438-11.533c6.347,0,11.532,5.188,11.532,11.533
			C147.611,54.984,142.426,60.134,136.079,60.134"/>
	</g>
	<g>
		<path d="M190.32,69.046h9.998V48.693c0-11.813-9.715-21.403-21.436-21.403c-11.818,0-21.404,9.59-21.404,21.403v20.375h9.871
			V48.693c0-6.291,5.186-11.533,11.533-11.533c6.29,0,11.438,5.242,11.438,11.533V69.046L190.32,69.046z"/>
	</g>
	<g>
		<path d="M57.707,26.386L57.707,26.386c-6.559,0-12.447,3.016-16.365,7.719c-3.915-4.704-9.822-7.719-16.382-7.719h-2.651v-5.079
			c0-6.291,5.186-11.437,11.534-11.437V0c-11.76,0-21.402,9.496-21.402,21.307v5.079H0v9.867h12.441v32.871h9.868V36.253h2.651
			c6.309,0,11.438,5.132,11.438,11.44v21.385h9.871V47.693c0-6.309,5.147-11.44,11.438-11.44h2.655v32.825h9.865V26.386H57.707z"/>
	</g>
	<g>
		<polygon points="90.201,26.386 74.497,36.253 74.497,46.368 90.201,36.748 		"/>
	</g>
</g>
<rect x="60.359" y="0.098" fill="#231F20" width="9.865" height="23.632"/>
</svg>
