<?xml version="1.0" encoding="utf-8"?>
<!-- Generator: Adobe Illustrator 27.5.0, SVG Export Plug-In . SVG Version: 6.00 Build 0)  -->
<svg version="1.1" id="Calque_1" xmlns="http://www.w3.org/2000/svg" xmlns:xlink="http://www.w3.org/1999/xlink" x="0px" y="0px"
	 viewBox="0 0 558.3 189" enable-background="new 0 0 558.3 189" xml:space="preserve">
<g>
	<rect x="-4.3" y="-4.3" fill="#FFFFFF" width="566.9" height="197.6"/>
	<path fill="#EF7D00" d="M0,27.7V0h25.5C15.2,7.3,6.4,16.7,0,27.7z M14.4,72.9c0-34.5,27.8-62.4,62.2-62.4s62.2,27.9,62.2,62.4
		c0,34.4-27.8,62.3-62.2,62.3S14.4,107.3,14.4,72.9z M37.2,85.6c0,21.9,17.6,39.7,39.3,39.7s39.4-17.8,39.4-39.7
		c0-21.9-17.7-39.8-39.4-39.8C54.9,45.8,37.2,63.7,37.2,85.6z M127.7,0c22.9,16.1,37.8,42.7,37.8,72.9c0,49.2-39.8,89.1-88.9,89.1
		C44,162,15.5,144.4,0,118.1V189h558.3V0H127.7z"/>
	<path fill="#FFFFFF" d="M247.9,35.6h15.7v32.9H279v13.4h-31.1V35.6z M284.7,58.5c0-3.7,0.7-7.1,2-10.1s3.1-5.5,5.4-7.6
		s5-3.7,8.2-4.8c3.1-1.1,6.5-1.7,10.2-1.7s7.1,0.6,10.2,1.7c3.1,1.1,5.9,2.8,8.2,4.8c2.3,2.1,4.1,4.6,5.4,7.6s2,6.4,2,10.1
		s-0.7,7.1-2,10.2s-3.1,5.7-5.4,7.8c-2.3,2.2-5,3.8-8.2,5c-3.1,1.2-6.6,1.8-10.2,1.8c-3.7,0-7.1-0.6-10.2-1.8
		c-3.1-1.2-5.9-2.8-8.2-5c-2.3-2.2-4.1-4.8-5.4-7.8C285.4,65.6,284.7,62.2,284.7,58.5z M301.3,58.5c0,1.5,0.2,2.9,0.7,4.2
		c0.5,1.3,1.1,2.4,1.9,3.3s1.8,1.6,2.9,2.1c1.1,0.5,2.4,0.8,3.7,0.8s2.5-0.2,3.6-0.8c1.1-0.5,2.1-1.2,2.9-2.1s1.5-2,1.9-3.3
		c0.5-1.3,0.7-2.7,0.7-4.2s-0.2-2.8-0.7-4.1c-0.5-1.2-1.1-2.3-1.9-3.1c-0.8-0.8-1.8-1.5-2.9-2c-1.1-0.5-2.3-0.7-3.6-0.7
		c-1.3,0-2.5,0.2-3.7,0.7c-1.1,0.5-2.1,1.2-2.9,2s-1.4,1.9-1.9,3.1C301.6,55.7,301.3,57,301.3,58.5z M368.4,82h-15.6V48.7h-11.4
		V35.5h38.4v13.2h-11.4V82z M388.4,35.6h31.9v13h-17.2v4h16.2v12.1h-16.2V69h18.4v13h-33L388.4,35.6L388.4,35.6z M431.8,35.6h20
		c2.3,0,4.5,0.2,6.8,0.7s4.3,1.3,6,2.4c1.8,1.2,3.2,2.7,4.3,4.7c1.1,1.9,1.6,4.4,1.6,7.3c0,2.8-0.7,5.3-2.1,7.5
		c-1.4,2.2-3.4,3.8-6,5L474.2,82h-17.9l-8.9-16.6h-0.5V82h-15.1V35.6L431.8,35.6z M446.8,55.2h3.1c0.5,0,1.1,0,1.7-0.1
		c0.6-0.1,1.2-0.3,1.8-0.6c0.5-0.3,1-0.7,1.4-1.2c0.4-0.5,0.6-1.2,0.6-2s-0.2-1.5-0.5-2s-0.7-0.8-1.2-1.1c-0.5-0.2-1-0.4-1.5-0.5
		c-0.6-0.1-1.1-0.1-1.6-0.1h-3.7L446.8,55.2L446.8,55.2z M480,35.6h15.7V82H480V35.6z M505.6,35.6h31.9v13h-17.2v4h16.2v12.1h-16.2
		V69h18.4v13h-33L505.6,35.6L505.6,35.6z M178.5,103.3h19.9c2.3,0,4.5,0.2,6.8,0.7c2.2,0.5,4.2,1.3,6,2.4c1.8,1.2,3.2,2.7,4.3,4.7
		c1.1,1.9,1.6,4.4,1.6,7.3c0,2.8-0.7,5.3-2.1,7.5c-1.4,2.2-3.4,3.8-6,5l11.7,18.8h-17.9l-8.9-16.5h-0.5v16.5h-15.1v-46.4H178.5z
		 M193.5,122.8h3c0.5,0,1.1,0,1.7-0.1c0.6-0.1,1.2-0.3,1.7-0.6c0.5-0.3,1-0.7,1.4-1.2s0.5-1.2,0.5-2s-0.2-1.5-0.5-2
		s-0.7-0.8-1.2-1.1c-0.5-0.2-1-0.4-1.6-0.5s-1.1-0.1-1.6-0.1h-3.7v7.6H193.5z M223.3,126.2c0-3.7,0.7-7,2-10s3.1-5.5,5.4-7.6
		c2.3-2.1,5-3.7,8.1-4.8c3.1-1.1,6.6-1.7,10.2-1.7c3.7,0,7.1,0.6,10.2,1.7c3.1,1.1,5.9,2.7,8.2,4.8c2.3,2.1,4.1,4.6,5.4,7.6
		s2,6.3,2,10s-0.7,7.1-2,10.1c-1.3,3.1-3.1,5.7-5.4,7.8c-2.3,2.2-5,3.8-8.2,5c-3.1,1.2-6.5,1.8-10.2,1.8s-7.1-0.6-10.2-1.8
		c-3.1-1.2-5.8-2.8-8.1-5s-4.1-4.8-5.4-7.8C223.9,133.3,223.3,129.9,223.3,126.2z M239.8,126.2c0,1.5,0.2,2.9,0.7,4.2
		c0.5,1.3,1.1,2.4,1.9,3.3s1.8,1.6,2.9,2.1s2.4,0.8,3.7,0.8c1.3,0,2.5-0.3,3.6-0.8s2.1-1.2,2.9-2.1c0.8-0.9,1.5-2,1.9-3.3
		c0.4-1.3,0.7-2.7,0.7-4.2s-0.2-2.8-0.7-4.1c-0.5-1.2-1.1-2.3-1.9-3.1c-0.8-0.8-1.8-1.5-2.9-2s-2.3-0.7-3.6-0.7
		c-1.3,0-2.5,0.2-3.7,0.7c-1.1,0.5-2.1,1.2-2.9,2c-0.8,0.9-1.4,1.9-1.9,3.1C240,123.3,239.8,124.7,239.8,126.2z M295.1,123.4
		l0.7,26.2h-14.5v-46.3h20.4l8.4,24.9h0.3l7.3-24.9h21v46.3h-15.2l0.5-26l-0.4-0.1l-8.6,26.1h-11l-8.5-26.2H295.1z M362.4,103.3
		h16.5l18,46.3H380l-2.4-6.8h-14.7l-2.3,6.8h-16.5L362.4,103.3z M370.4,119.4l-3.8,11.5h7.5L370.4,119.4z M402.5,103.3H418
		l13.2,23.5h0.3l-0.6-23.5h14.8v46.3h-16l-12.8-22.1h-0.3l0.7,22.1h-14.8L402.5,103.3L402.5,103.3z M454.2,149.6v-46.3h17.3
		c3.7,0,7.2,0.4,10.5,1.1s6.3,2,8.8,3.7c2.6,1.8,4.6,4.1,6.1,7s2.3,6.6,2.3,11c0,4.1-0.7,7.6-2.2,10.5c-1.5,3-3.4,5.4-5.9,7.3
		c-2.4,1.9-5.3,3.3-8.4,4.2c-3.2,0.9-6.5,1.4-9.9,1.4L454.2,149.6L454.2,149.6z M469.2,116.5v19.7h2.9c3.7,0,6.5-0.8,8.4-2.4
		c2-1.6,2.9-4.2,2.9-7.8c0-3-1-5.3-2.9-7c-2-1.7-4.6-2.5-7.9-2.5L469.2,116.5L469.2,116.5z M505.7,103.3h31.8v12.9h-17.2v4h16.1
		v12.1h-16.1v4.3h18.4v12.9h-33V103.3z"/>
</g>
</svg>
