<?xml version="1.0" encoding="utf-8"?>
<!-- Generator: Adobe Illustrator 26.5.0, SVG Export Plug-In . SVG Version: 6.00 Build 0)  -->
<svg version="1.1" id="Calque_1" xmlns="http://www.w3.org/2000/svg" xmlns:xlink="http://www.w3.org/1999/xlink" x="0px" y="0px"
	 viewBox="0 0 566.9 197.6" style="enable-background:new 0 0 566.9 197.6;" xml:space="preserve">
<style type="text/css">
	.st0{fill:#231F20;}
	.st1{fill-rule:evenodd;clip-rule:evenodd;fill:#131413;}
	.st2{filter:url(#Adobe_OpacityMaskFilter);}
	.st3{fill-rule:evenodd;clip-rule:evenodd;fill:#FFFFFF;}
	.st4{mask:url(#b_00000140722945153765400730000007732349275004730525_);fill-rule:evenodd;clip-rule:evenodd;fill:#131413;}
	.st5{filter:url(#Adobe_OpacityMaskFilter_00000052790048498384880680000001285435626280112039_);}
	.st6{mask:url(#b_00000073692091263644151750000008341893146247298210_);fill-rule:evenodd;clip-rule:evenodd;fill:#131413;}
</style>
<path d="M415.3,94.5c0-2.9,2.4-5.3,5.3-5.3s5.3,2.4,5.3,5.3s-2.4,5.3-5.3,5.3C417.7,99.8,415.3,97.4,415.3,94.5z M485.9,82.4v26.6
	h-76.2V82.4H485.9z M412.2,92.8c0,4.6,3.7,8.4,8.4,8.4s8.4-3.7,8.4-8.4c0-4.6-3.7-8.4-8.4-8.4S412.2,88.1,412.2,92.8z M410.3,86.7
	c0.9-1.5,2-2.7,3.4-3.7h-3.4V86.7z M485.3,83h-57.9c3.1,2.2,5.1,5.7,5.1,9.8c0,6.6-5.3,12-11.9,12c-4.4,0-8.2-2.4-10.3-5.9v9.5h75
	V83z M443.6,87.7h2.1v4.4h2.1V94h-4.2L443.6,87.7L443.6,87.7z M448.5,90.8c0-0.5,0.1-1,0.3-1.4c0.2-0.4,0.4-0.7,0.7-1
	c0.3-0.3,0.7-0.5,1.1-0.6c0.4-0.1,0.9-0.2,1.4-0.2c0.5,0,1,0.1,1.4,0.2s0.8,0.4,1.1,0.6c0.3,0.3,0.6,0.6,0.7,1
	c0.2,0.4,0.3,0.9,0.3,1.4s-0.1,1-0.3,1.4s-0.4,0.8-0.7,1c-0.3,0.3-0.7,0.5-1.1,0.7c-0.4,0.2-0.9,0.2-1.4,0.2c-0.5,0-1-0.1-1.4-0.2
	c-0.4-0.2-0.8-0.4-1.1-0.7s-0.6-0.6-0.7-1C448.6,91.8,448.5,91.3,448.5,90.8z M450.8,90.8c0,0.2,0,0.4,0.1,0.6s0.1,0.3,0.3,0.4
	s0.2,0.2,0.4,0.3c0.1,0.1,0.3,0.1,0.5,0.1s0.3,0,0.5-0.1c0.1-0.1,0.3-0.2,0.4-0.3s0.2-0.3,0.3-0.4c0.1-0.2,0.1-0.4,0.1-0.6
	s0-0.4-0.1-0.6c-0.1-0.2-0.1-0.3-0.3-0.4c-0.1-0.1-0.2-0.2-0.4-0.3s-0.3-0.1-0.5-0.1s-0.3,0-0.5,0.1c-0.1,0.1-0.3,0.2-0.4,0.3
	c-0.1,0.1-0.2,0.3-0.3,0.4C450.8,90.4,450.8,90.6,450.8,90.8z M459.8,94h-2.1v-4.5h-1.5v-1.8h5.2v1.8h-1.5V94z M462.5,87.7h4.3v1.7
	h-2.3V90h2.2v1.6h-2.2v0.6h2.5V94h-4.4L462.5,87.7L462.5,87.7z M468.3,87.7h2.7c0.3,0,0.6,0,0.9,0.1c0.3,0.1,0.6,0.2,0.8,0.3
	c0.2,0.2,0.4,0.4,0.6,0.6c0.1,0.3,0.2,0.6,0.2,1c0,0.4-0.1,0.7-0.3,1c-0.2,0.3-0.5,0.5-0.8,0.7L474,94h-2.4l-1.2-2.2h-0.1V94h-2
	V87.7L468.3,87.7z M470.3,90.4h0.4c0.1,0,0.1,0,0.2,0c0.1,0,0.2,0,0.2-0.1c0.1,0,0.1-0.1,0.2-0.2c0.1-0.1,0.1-0.2,0.1-0.3
	c0-0.1,0-0.2-0.1-0.3c0-0.1-0.1-0.1-0.2-0.1c-0.1,0-0.1-0.1-0.2-0.1c-0.1,0-0.1,0-0.2,0h-0.5L470.3,90.4L470.3,90.4z M474.8,87.7
	h2.1V94h-2.1V87.7z M478.2,87.7h4.3v1.7h-2.3V90h2.2v1.6h-2.2v0.6h2.5V94h-4.4L478.2,87.7L478.2,87.7z M434.3,96.8h2.7
	c0.3,0,0.6,0,0.9,0.1c0.3,0.1,0.6,0.2,0.8,0.3c0.2,0.2,0.4,0.4,0.6,0.6c0.1,0.3,0.2,0.6,0.2,1c0,0.4-0.1,0.7-0.3,1
	c-0.2,0.3-0.5,0.5-0.8,0.7l1.6,2.5h-2.4l-1.2-2.2h-0.1v2.2h-2L434.3,96.8L434.3,96.8z M436.3,99.5h0.4c0.1,0,0.1,0,0.2,0
	c0.1,0,0.2,0,0.2-0.1c0.1,0,0.1-0.1,0.2-0.2c0.1-0.1,0.1-0.2,0.1-0.3s0-0.2-0.1-0.3s-0.1-0.1-0.2-0.1c-0.1,0-0.1-0.1-0.2-0.1
	c-0.1,0-0.1,0-0.2,0h-0.5L436.3,99.5L436.3,99.5z M440.3,99.9c0-0.5,0.1-0.9,0.3-1.3c0.2-0.4,0.4-0.7,0.7-1c0.3-0.3,0.7-0.5,1.1-0.6
	s0.9-0.2,1.4-0.2c0.5,0,1,0.1,1.4,0.2s0.8,0.4,1.1,0.6c0.3,0.3,0.6,0.6,0.7,1c0.2,0.4,0.3,0.8,0.3,1.3s-0.1,1-0.3,1.4
	c-0.2,0.4-0.4,0.8-0.7,1c-0.3,0.3-0.7,0.5-1.1,0.7c-0.4,0.2-0.9,0.2-1.4,0.2s-1-0.1-1.4-0.2c-0.4-0.2-0.8-0.4-1.1-0.7
	s-0.6-0.6-0.7-1C440.4,100.9,440.3,100.4,440.3,99.9z M442.5,99.9c0,0.2,0,0.4,0.1,0.6s0.1,0.3,0.3,0.4s0.2,0.2,0.4,0.3
	c0.1,0.1,0.3,0.1,0.5,0.1s0.3,0,0.5-0.1c0.1-0.1,0.3-0.2,0.4-0.3s0.2-0.3,0.3-0.4c0.1-0.2,0.1-0.4,0.1-0.6s0-0.4-0.1-0.6
	c-0.1-0.2-0.1-0.3-0.3-0.4c-0.1-0.1-0.2-0.2-0.4-0.3c-0.1-0.1-0.3-0.1-0.5-0.1s-0.3,0-0.5,0.1c-0.1,0.1-0.3,0.2-0.4,0.3
	c-0.1,0.1-0.2,0.3-0.3,0.4C442.5,99.5,442.5,99.7,442.5,99.9z M449.9,99.5l0.1,3.5h-1.9v-6.2h2.7l1.1,3.3h0l1-3.3h2.8v6.2h-2
	l0.1-3.5l-0.1,0l-1.2,3.5h-1.5L449.9,99.5L449.9,99.5L449.9,99.5z M459,96.8h2.2l2.4,6.2h-2.3l-0.3-0.9h-2l-0.3,0.9h-2.2L459,96.8z
	 M460.1,99l-0.5,1.5h1L460.1,99z M464.4,96.8h2.1l1.8,3.2h0l-0.1-3.2h2v6.2H468l-1.7-3h0l0.1,3h-2V96.8L464.4,96.8z M471.3,103.1
	v-6.2h2.3c0.5,0,1,0.1,1.4,0.1c0.4,0.1,0.8,0.3,1.2,0.5c0.3,0.2,0.6,0.6,0.8,0.9s0.3,0.9,0.3,1.5c0,0.6-0.1,1-0.3,1.4
	c-0.2,0.4-0.5,0.7-0.8,1c-0.3,0.3-0.7,0.4-1.1,0.6c-0.4,0.1-0.9,0.2-1.3,0.2L471.3,103.1L471.3,103.1z M473.3,98.6v2.6h0.4
	c0.5,0,0.9-0.1,1.1-0.3c0.3-0.2,0.4-0.6,0.4-1c0-0.4-0.1-0.7-0.4-0.9c-0.3-0.2-0.6-0.3-1.1-0.3H473.3z M478.3,96.8h4.3v1.7h-2.3v0.5
	h2.2v1.6h-2.2v0.6h2.5v1.7h-4.4V96.8z"/>
<g>
	<path d="M47.2,100.6v1.1c3.2-0.8,6.7-2.8,8.6-4.6C57,96,58.1,94.6,59,93c0,0,0.1-0.1,0.1-0.1c0.8-1.5,1.4-3.2,1.8-5.3
		c1.2-5.7-0.6-11.3-1-12.1c-0.4-0.5-1-0.4-1.5-0.4c-0.1,0-0.2,0-0.3,0h-11V88h8.5c0.1,0,0.2,0,0.2,0c0.3,0.1,0.5,0.2,0.5,0.5
		c0,0.1,0,0.1,0,0.2c0,2.6-1.3,7.7-8.5,10.9l-0.7,0.3C47.2,99.9,47.2,100.6,47.2,100.6z"/>
	<g>
		<path d="M47.2,107.9H50v0.4h-2.3v1.3h2.1v0.4h-2.1v1.4H50v0.4h-2.9V107.9z"/>
		<path d="M51.7,108.4h-1.3v-0.4h3.3v0.4h-1.4v3.7h-0.6V108.4z"/>
		<path d="M54.8,107.9h0.6L57,112h-0.6l-0.4-1.3h-1.8l-0.4,1.3h-0.6L54.8,107.9z M54.4,110.4h1.4l-0.7-1.9l0,0L54.4,110.4z"/>
		<path d="M58,108.4h-1.4v-0.4h3.3v0.4h-1.4v3.7H58V108.4z"/>
		<path d="M62.2,107.9h1.4c1.3,0,2,0.7,2,2c0,1.4-0.6,2.1-2,2.1h-1.4V107.9z M62.7,111.6h0.9c0.4,0,1.4-0.1,1.4-1.6
			c0-1-0.4-1.5-1.4-1.5h-1L62.7,111.6L62.7,111.6z"/>
		<path d="M66.3,107.9h2.9v0.4h-2.3v1.3H69v0.4h-2.1v1.4h2.3v0.4h-2.9C66.3,112,66.3,107.9,66.3,107.9z"/>
		<path d="M71.7,107.9h2.7v0.4h-2.1v1.3h1.9v0.4h-1.9v1.9h-0.5L71.7,107.9L71.7,107.9z"/>
		<path d="M75.1,107.9H77c0.7,0,1.3,0.4,1.3,1.1c0,0.5-0.2,0.9-0.7,1l0,0c0.5,0.1,0.6,0.4,0.6,0.9c0,0.4,0,0.9,0.2,1.1h-0.6
			c-0.1-0.1-0.1-0.6-0.1-1c-0.1-0.4-0.1-0.7-0.7-0.7h-1.3v1.8h-0.5L75.1,107.9L75.1,107.9z M76.7,109.8c0.5,0,1-0.1,1-0.7
			c0-0.4-0.2-0.7-0.7-0.7h-1.3v1.4L76.7,109.8L76.7,109.8z"/>
		<path d="M79.2,107.9h0.5v4.1h-0.5V107.9z"/>
		<path d="M80.7,107.9h1.5c0.4,0,0.8,0,1.1,0.1c0.3,0.1,0.5,0.4,0.5,0.9c0,0.4-0.2,0.7-0.6,1l0,0c0.5,0.1,0.8,0.5,0.8,1
			c0,0.6-0.4,1.2-1.3,1.2h-2L80.7,107.9L80.7,107.9z M81.3,109.7h1.1c0.6,0,0.9-0.2,0.9-0.7c0-0.6-0.4-0.7-0.9-0.7h-1.1V109.7z
			 M81.3,111.6h1.4c0.4,0,0.7-0.3,0.7-0.7c0-0.5-0.4-0.7-0.9-0.7h-1.3V111.6z"/>
		<path d="M86.5,107.9c1.3,0,2,1,2,2.1s-0.7,2.1-2,2.1s-2-1-2-2.1S85.2,107.9,86.5,107.9z M86.5,111.7c1,0,1.4-0.9,1.4-1.7
			c0-0.8-0.4-1.7-1.4-1.7c-1,0-1.4,0.9-1.4,1.7C85.1,110.8,85.5,111.7,86.5,111.7z"/>
		<path d="M92.6,110.6c0,1-0.6,1.6-1.6,1.6s-1.7-0.5-1.7-1.6v-2.6h0.5v2.6c0,0.7,0.4,1.1,1.1,1.1s1.1-0.4,1.1-1.1v-2.6h0.6V110.6z"
			/>
		<path d="M93.5,107.9h2c0.7,0,1.3,0.4,1.3,1.1c0,0.5-0.2,0.9-0.7,1l0,0c0.5,0.1,0.6,0.4,0.6,0.9c0,0.4,0,0.9,0.2,1.1h-0.6
			c-0.1-0.1-0.1-0.6-0.1-1c-0.1-0.4-0.1-0.7-0.7-0.7h-1.3v1.8h-0.5L93.5,107.9L93.5,107.9z M95.2,109.8c0.5,0,1-0.1,1-0.7
			c0-0.4-0.2-0.7-0.7-0.7h-1.3v1.4L95.2,109.8L95.2,109.8z"/>
		<path d="M100.7,111.5c-0.3,0.4-0.8,0.6-1.3,0.6c-1.3,0-2-1-2-2.1c0-1.2,0.7-2.2,2-2.2c0.9,0,1.6,0.4,1.8,1.4h-0.5
			c-0.1-0.6-0.6-0.9-1.3-0.9c-1,0-1.4,0.9-1.4,1.8s0.5,1.6,1.4,1.6c0.9,0,1.3-0.6,1.3-1.3h-1.3V110h1.8v2.1h-0.4L100.7,111.5z"/>
		<path d="M49.5,117.3c-0.1-0.6-0.4-0.8-1-0.8c-0.4,0-1,0.1-1,0.7c0,0.5,0.7,0.6,1.3,0.7c0.7,0.1,1.3,0.4,1.3,1.2
			c0,0.9-0.9,1.3-1.6,1.3c-1,0-1.7-0.4-1.7-1.5h0.5c0,0.7,0.6,1,1.2,1c0.5,0,1-0.1,1-0.7s-0.7-0.7-1.3-0.8c-0.7-0.1-1.3-0.4-1.3-1.1
			c0-0.8,0.7-1.2,1.5-1.2c0.8,0,1.5,0.4,1.5,1.3L49.5,117.3L49.5,117.3z"/>
		<path d="M51.7,116.6h-1.4v-0.4h3.3v0.4h-1.4v3.7h-0.5V116.6z"/>
		<path d="M54.8,116.2h0.6l1.6,4.1h-0.6L56,119h-1.8l-0.4,1.3h-0.6L54.8,116.2z M54.4,118.6h1.4l-0.7-1.9l0,0L54.4,118.6z"/>
		<path d="M58.6,116.2h0.6l1.6,4.1h-0.6l-0.4-1.3h-1.8l-0.4,1.3H57L58.6,116.2z M58.2,118.6h1.4l-0.7-1.9l0,0L58.2,118.6z"/>
		<path d="M61.8,116.6h-1.4v-0.4h3.3v0.4h-1.4v3.7h-0.5V116.6z"/>
		<path d="M66,116.2h2.7v0.4h-2.1v1.3h1.9v0.4h-1.9v1.9h-0.5L66,116.2L66,116.2z"/>
		<path d="M69.4,116.2h1.9c0.7,0,1.3,0.4,1.3,1.1c0,0.5-0.2,0.9-0.7,1l0,0c0.4,0.1,0.6,0.4,0.6,0.9c0,0.4,0,0.9,0.2,1.1H72
			c-0.1-0.1-0.1-0.6-0.1-1c-0.1-0.4-0.1-0.7-0.7-0.7h-1.3v1.8h-0.5C69.4,120.3,69.4,116.2,69.4,116.2z M71.1,118.1
			c0.5,0,1-0.1,1-0.7c0-0.4-0.2-0.7-0.7-0.7H70v1.4L71.1,118.1L71.1,118.1z"/>
		<path d="M73.4,116.2h2.9v0.4H74v1.3h2.1v0.4H74v1.4h2.3v0.4h-2.9V116.2z"/>
		<path d="M77.1,116.2h0.5v4.1h-0.5V116.2z"/>
		<path d="M78.7,116.2h1.5c0.4,0,0.8,0,1.1,0.1s0.5,0.4,0.5,0.9s-0.2,0.7-0.6,1l0,0c0.5,0.1,0.8,0.5,0.8,1c0,0.6-0.4,1.2-1.3,1.2h-2
			L78.7,116.2L78.7,116.2z M79.2,117.9h1.1c0.6,0,0.9-0.2,0.9-0.7c0-0.6-0.4-0.7-0.9-0.7h-1.1V117.9z M79.2,119.8h1.4
			c0.4,0,0.7-0.3,0.7-0.7c0-0.5-0.4-0.7-0.9-0.7h-1.3V119.8z"/>
		<path d="M86,118.8c0,1-0.6,1.6-1.6,1.6s-1.7-0.5-1.7-1.6v-2.6h0.5v2.6c0,0.7,0.4,1.1,1.1,1.1s1.1-0.4,1.1-1.1v-2.6h0.5L86,118.8
			L86,118.8z"/>
		<path d="M87,116.2h1.9c0.7,0,1.3,0.4,1.3,1.1c0,0.5-0.2,0.9-0.7,1l0,0c0.4,0.1,0.6,0.4,0.6,0.9c0,0.4,0,0.9,0.2,1.1h-0.6
			c-0.1-0.1-0.1-0.6-0.1-1c-0.1-0.4-0.1-0.7-0.7-0.7h-1.3v1.8H87C87,120.3,87,116.2,87,116.2z M88.7,118.1c0.5,0,1-0.1,1-0.7
			c0-0.4-0.2-0.7-0.7-0.7h-1.3v1.4L88.7,118.1L88.7,118.1z"/>
		<path d="M94.1,119.8c-0.3,0.4-0.8,0.6-1.3,0.6c-1.3,0-2-1-2-2.1c0-1.2,0.7-2.2,2-2.2c0.9,0,1.6,0.4,1.8,1.4H94
			c-0.1-0.6-0.6-0.9-1.3-0.9c-1,0-1.4,0.9-1.4,1.8c0,0.9,0.5,1.6,1.4,1.6s1.3-0.6,1.3-1.3h-1.3v-0.4h1.8v2.1h-0.4L94.1,119.8z"/>
		<path d="M49.7,128.5h-0.4l-0.7-2.4l0,0l-0.7,2.4h-0.4l-0.7-2.8h0.4l0.6,2.3l0,0l0.7-2.4H49l0.5,2.4l0,0l0.6-2.4h0.4L49.7,128.5z"
			/>
		<path d="M53.5,128.5h-0.4l-0.7-2.4l0,0l-0.7,2.4h-0.4l-0.7-2.8h0.4l0.6,2.3l0,0l0.7-2.4h0.4l0.5,2.4l0,0l0.6-2.4h0.4L53.5,128.5z"
			/>
		<path d="M57.2,128.5h-0.4l-0.7-2.4l0,0l-0.7,2.4h-0.4l-0.7-2.8h0.4l0.6,2.4l0,0l0.7-2.4h0.4l0.6,2.4l0,0l0.6-2.4H58L57.2,128.5z"
			/>
		<path d="M58.1,128.1h0.4v0.4h-0.4V128.1z"/>
		<path d="M59.3,125.7h1.8v0.3h-1.5v0.9H61v0.3h-1.3v1.3h-0.4V125.7z"/>
		<path d="M61.7,125.7H63c0.5,0,0.9,0.3,0.9,0.7c0,0.4-0.1,0.6-0.5,0.7l0,0c0.3,0.1,0.4,0.3,0.4,0.6c0,0.3,0,0.6,0.1,0.8h-0.4
			c-0.1-0.1-0.1-0.4-0.1-0.7c-0.1-0.3-0.1-0.5-0.4-0.5h-0.9v1.2h-0.4V125.7z M62.8,127c0.4,0,0.7-0.1,0.7-0.5c0-0.3-0.1-0.5-0.5-0.5
			h-1v1L62.8,127L62.8,127z"/>
		<path d="M64.5,128.1h0.4v0.4h-0.4V128.1z"/>
		<path d="M67.6,126.5c-0.1-0.4-0.4-0.6-0.8-0.6c-0.7,0-1,0.6-1,1.2c0,0.7,0.3,1.2,1,1.2c0.5,0,0.8-0.4,0.8-0.8H68
			c-0.1,0.7-0.5,1.1-1.3,1.1c-0.9,0-1.3-0.7-1.3-1.5s0.4-1.5,1.3-1.5c0.6,0,1.1,0.3,1.2,0.9C67.9,126.5,67.6,126.5,67.6,126.5z"/>
		<path d="M68.6,125.7h0.4v1.2h1.5v-1.2h0.4v2.8h-0.4v-1.3h-1.5v1.3h-0.4C68.6,128.4,68.6,125.7,68.6,125.7z"/>
	</g>
</g>
<g>
	<g>
		<path d="M329.3,93.4c-2.6,0-4.8,1.7-5.6,4c-0.4-1.2-1.2-2.3-2.3-3c-0.9-0.6-1.4-1.6-1.4-2.7c0-1.8,1.5-3.2,3.2-3.2v-2.8
			c-3.3,0-6,2.7-6,6c0,2.1,1,3.9,2.6,5v0c0.9,0.6,1.4,1.6,1.4,2.7c0,1.8-1.5,3.2-3.2,3.2c-1.8,0-3.2-1.4-3.2-3.2h-2.8
			c0,3.3,2.7,6,6,6c2.6,0,4.8-1.7,5.7-4c0.8,2.3,3,4,5.6,4c3.3,0,6-2.7,6-6C335.3,96.1,332.6,93.4,329.3,93.4 M329.3,102.6
			c-1.8,0-3.2-1.4-3.2-3.2c0-1.8,1.4-3.2,3.2-3.2c1.8,0,3.2,1.5,3.2,3.2C332.6,101.2,331.1,102.6,329.3,102.6"/>
	</g>
	<g>
		<path d="M344.5,105.1h2.8v-5.7c0-3.3-2.7-6-6-6c-3.3,0-6,2.7-6,6v5.7h2.8v-5.7c0-1.8,1.5-3.2,3.2-3.2c1.8,0,3.2,1.5,3.2,3.2V105.1
			L344.5,105.1z"/>
	</g>
	<g>
		<path d="M307.4,93.2L307.4,93.2c-1.8,0-3.5,0.8-4.6,2.2c-1.1-1.3-2.8-2.2-4.6-2.2h-0.7v-1.4c0-1.8,1.5-3.2,3.2-3.2v-2.8
			c-3.3,0-6,2.7-6,6v1.4h-3.5V96h3.5v9.2h2.8V96h0.7c1.8,0,3.2,1.4,3.2,3.2v6h2.8v-6c0-1.8,1.4-3.2,3.2-3.2h0.7v9.2h2.8v-12H307.4z"
			/>
	</g>
	<g>
		<polygon points="316.5,93.2 312.1,96 312.1,98.8 316.5,96.1 		"/>
	</g>
</g>
<rect x="308.1" y="85.8" class="st0" width="2.8" height="6.6"/>
<g>
	<path class="st1" d="M159.9,104.3v3.6h2v-0.5h-1.4v-1h1.4v-0.5h-1.4v-1h1.4v-0.5L159.9,104.3L159.9,104.3z"/>
	<g transform="translate(.972 .134)">
		<path class="st1" d="M163.1,106.3c-0.1-0.3-0.2-0.4-0.5-0.4c-0.4,0-0.6,0.3-0.6,0.7s0.2,0.7,0.6,0.7c0.3,0,0.4-0.2,0.5-0.4h0.5
			c-0.1,0.5-0.4,0.9-1.1,0.9c-0.7,0-1.1-0.6-1.1-1.2s0.4-1.2,1.1-1.2c0.7,0,1,0.4,1.1,1C163.7,106.3,163.1,106.3,163.1,106.3z
			 M166,106.6c0-0.4-0.3-0.7-0.7-0.7c-0.4,0-0.6,0.3-0.6,0.7c0,0.4,0.3,0.7,0.6,0.7C165.7,107.3,166,107,166,106.6 M164.1,106.6
			c0-0.7,0.5-1.2,1.2-1.2c0.7,0,1.2,0.6,1.2,1.2c0,0.7-0.5,1.2-1.2,1.2C164.6,107.8,164.1,107.3,164.1,106.6"/>
		<defs>
			<filter id="Adobe_OpacityMaskFilter" filterUnits="userSpaceOnUse" x="158.5" y="82.4" width="86.7" height="38.2">
				<feColorMatrix  type="matrix" values="1 0 0 0 0  0 1 0 0 0  0 0 1 0 0  0 0 0 1 0"/>
			</filter>
		</defs>
		
			<mask maskUnits="userSpaceOnUse" x="158.5" y="82.4" width="86.7" height="38.2" id="b_00000140722945153765400730000007732349275004730525_">
			<g class="st2">
				<path id="a_00000091005995865247841730000003410599745603700408_" class="st3" d="M158.5,120.7h86.7V82.4h-86.7V120.7z"/>
			</g>
		</mask>
		<path class="st4" d="M167.1,107.8h0.5v-3.6h-0.5V107.8z M168.7,106.3h1.1c0-0.3-0.2-0.6-0.5-0.6
			C169,105.8,168.7,105.9,168.7,106.3z M168.7,106.8c0,0.3,0.2,0.6,0.6,0.6c0.3,0,0.4-0.2,0.5-0.3h0.5c-0.1,0.4-0.4,0.8-1,0.8
			c-0.7,0-1.1-0.6-1.1-1.2c0-0.7,0.4-1.2,1.1-1.2c0.6,0,1.1,0.4,1.1,1.1c0,0.1,0,0.2,0,0.3C170.3,106.8,168.7,106.8,168.7,106.8z
			 M172.5,106.6c0,0.4,0.3,0.7,0.7,0.7c0.4,0,0.6-0.3,0.6-0.7c0-0.4-0.3-0.7-0.6-0.7C172.8,105.8,172.5,106.1,172.5,106.6z
			 M172.5,105.7c0.2-0.2,0.4-0.4,0.7-0.4c0.7,0,1.2,0.6,1.2,1.2s-0.5,1.2-1.2,1.2c-0.3,0-0.5-0.2-0.7-0.4v1.5H172v-3.6h0.5V105.7
			L172.5,105.7z M176.4,105.9c-0.1,0-0.2,0-0.2,0c-0.4,0-0.7,0.3-0.7,0.8v1H175v-2.4h0.5v0.4c0.1-0.2,0.4-0.4,0.7-0.4
			c0.1,0,0.2,0,0.2,0.1V105.9L176.4,105.9z M178.5,106.6c0-0.4-0.3-0.7-0.7-0.7c-0.4,0-0.6,0.3-0.6,0.7c0,0.4,0.3,0.7,0.6,0.7
			C178.3,107.3,178.5,107,178.5,106.6 M176.7,106.6c0-0.7,0.5-1.2,1.2-1.2c0.7,0,1.2,0.6,1.2,1.2c0,0.7-0.5,1.2-1.2,1.2
			C177.2,107.8,176.7,107.3,176.7,106.6 M181,104.7c-0.1,0-0.2-0.1-0.2-0.1c-0.2,0-0.4,0-0.4,0.4v0.3h0.6v0.4h-0.6v1.9h-0.5v-1.9
			h-0.5v-0.4h0.5v-0.3c0-0.9,0.5-1,0.8-1c0.2,0,0.3,0.1,0.3,0.1C181,104.2,181,104.7,181,104.7z M181.8,106.3h1.1
			c0-0.3-0.2-0.6-0.5-0.6S181.8,105.9,181.8,106.3z M181.8,106.8c0,0.3,0.2,0.6,0.6,0.6c0.3,0,0.4-0.2,0.5-0.3h0.5
			c-0.1,0.4-0.4,0.8-1,0.8c-0.7,0-1.1-0.6-1.1-1.2c0-0.7,0.4-1.2,1.1-1.2c0.6,0,1.1,0.4,1.1,1.1c0,0.1,0,0.2,0,0.3H181.8
			L181.8,106.8z M185.7,107.1c0,0.5-0.4,0.7-0.9,0.7c-0.5,0-0.9-0.3-0.9-0.8h0.5c0,0.3,0.2,0.4,0.4,0.4c0.2,0,0.4-0.1,0.4-0.3
			s-0.2-0.2-0.7-0.4c-0.3-0.1-0.5-0.2-0.5-0.7s0.4-0.7,0.8-0.7c0.5,0,0.8,0.3,0.8,0.8h-0.5c0-0.2-0.1-0.4-0.4-0.4
			c-0.2,0-0.3,0.1-0.3,0.3c0,0.2,0.2,0.2,0.6,0.4C185.4,106.5,185.7,106.7,185.7,107.1 M188,107.1c0,0.5-0.4,0.7-0.9,0.7
			s-0.9-0.3-0.9-0.8h0.5c0,0.3,0.2,0.4,0.4,0.4c0.2,0,0.4-0.1,0.4-0.3s-0.2-0.2-0.7-0.4c-0.3-0.1-0.5-0.2-0.5-0.7s0.4-0.7,0.8-0.7
			s0.8,0.3,0.8,0.8h-0.5c0-0.2-0.1-0.4-0.4-0.4c-0.2,0-0.3,0.1-0.3,0.3c0,0.2,0.2,0.2,0.6,0.4C187.7,106.5,188,106.7,188,107.1
			 M188.6,107.8h0.5v-2.4h-0.5V107.8L188.6,107.8z M188.9,104.1c0.2,0,0.4,0.2,0.4,0.4s-0.2,0.4-0.4,0.4l0,0c-0.2,0-0.4-0.2-0.4-0.4
			S188.7,104.1,188.9,104.1z M191.5,106.6c0-0.4-0.3-0.7-0.7-0.7c-0.4,0-0.6,0.3-0.6,0.7c0,0.4,0.3,0.7,0.6,0.7
			C191.3,107.3,191.5,107,191.5,106.6 M189.7,106.6c0-0.7,0.5-1.2,1.2-1.2c0.7,0,1.2,0.6,1.2,1.2c0,0.7-0.5,1.2-1.2,1.2
			S189.7,107.3,189.7,106.6 M192.7,105.4h0.5v0.3c0.2-0.3,0.4-0.4,0.7-0.4c0.3,0,0.5,0.1,0.7,0.3c0.1,0.2,0.2,0.4,0.2,0.7v1.4h-0.5
			v-1.2c0-0.4-0.1-0.7-0.5-0.7s-0.5,0.3-0.5,0.7v1.2h-0.5L192.7,105.4L192.7,105.4z M195.5,105.4h0.5v0.3c0.2-0.3,0.4-0.4,0.7-0.4
			c0.3,0,0.5,0.1,0.7,0.3c0.1,0.2,0.2,0.4,0.2,0.7v1.4h-0.5v-1.2c0-0.4-0.1-0.7-0.5-0.7s-0.5,0.3-0.5,0.7v1.2h-0.5L195.5,105.4
			L195.5,105.4z M198.7,106.3h1.1c0-0.3-0.2-0.6-0.5-0.6S198.7,105.9,198.7,106.3z M198.7,106.8c0,0.3,0.2,0.6,0.6,0.6
			c0.3,0,0.4-0.2,0.5-0.3h0.5c-0.1,0.4-0.4,0.8-1,0.8c-0.7,0-1.1-0.6-1.1-1.2c0-0.7,0.4-1.2,1.1-1.2c0.6,0,1.1,0.4,1.1,1.1
			c0,0.1,0,0.2,0,0.3H198.7z M200.9,107.8h0.5v-3.6h-0.5V107.8z M202.2,107.8h0.5v-3.6h-0.5V107.8z M203.8,106.3h1.1
			c0-0.3-0.2-0.6-0.5-0.6C204.1,105.8,203.8,105.9,203.8,106.3z M203.8,106.8c0,0.3,0.2,0.6,0.6,0.6c0.3,0,0.4-0.2,0.5-0.3h0.5
			c-0.1,0.4-0.4,0.8-1,0.8c-0.7,0-1.1-0.6-1.1-1.2c0-0.7,0.4-1.2,1.1-1.2c0.6,0,1.1,0.4,1.1,1.1c0,0.1,0,0.2,0,0.3H203.8
			L203.8,106.8z M207.5,106.3h1.1c0-0.3-0.2-0.6-0.5-0.6C207.7,105.8,207.5,105.9,207.5,106.3z M207.5,106.8c0,0.3,0.2,0.6,0.6,0.6
			c0.3,0,0.4-0.2,0.5-0.3h0.5c-0.1,0.4-0.4,0.8-1,0.8c-0.7,0-1.1-0.6-1.1-1.2c0-0.7,0.4-1.2,1.1-1.2c0.6,0,1.1,0.4,1.1,1.1
			c0,0.1,0,0.2,0,0.3H207.5L207.5,106.8z M209.8,105.4h0.5v0.3c0.2-0.3,0.4-0.4,0.7-0.4c0.3,0,0.5,0.1,0.7,0.3
			c0.1,0.2,0.2,0.4,0.2,0.7v1.4h-0.5v-1.2c0-0.4-0.1-0.7-0.5-0.7s-0.5,0.3-0.5,0.7v1.2h-0.5L209.8,105.4L209.8,105.4z M215.3,106.6
			c0-0.4-0.3-0.7-0.7-0.7c-0.4,0-0.6,0.3-0.6,0.7c0,0.4,0.3,0.7,0.6,0.7C215,107.3,215.3,107,215.3,106.6z M215.8,105.4v2.4h-0.5
			v-0.3c-0.2,0.2-0.4,0.4-0.7,0.4c-0.7,0-1.2-0.6-1.2-1.2s0.5-1.2,1.2-1.2c0.3,0,0.5,0.2,0.7,0.4v-0.3
			C215.3,105.4,215.8,105.4,215.8,105.4z M218,105.9c-0.1,0-0.2,0-0.2,0c-0.4,0-0.7,0.3-0.7,0.8v1h-0.5v-2.4h0.5v0.4
			c0.1-0.2,0.4-0.4,0.7-0.4c0.1,0,0.2,0,0.2,0.1C218,105.4,218,105.9,218,105.9z M219.8,107.8c-0.1,0-0.3,0.1-0.4,0.1
			c-0.3,0-0.7-0.1-0.7-0.8v-1.1h-0.4v-0.4h0.4v-0.7h0.5v0.7h0.5v0.4h-0.5v1c0,0.4,0.1,0.4,0.3,0.4c0.1,0,0.2,0,0.3,0V107.8
			L219.8,107.8z M222,107.1c0,0.5-0.4,0.7-0.9,0.7c-0.5,0-0.9-0.3-0.9-0.8h0.5c0,0.3,0.2,0.4,0.4,0.4c0.2,0,0.4-0.1,0.4-0.3
			s-0.2-0.2-0.7-0.4c-0.3-0.1-0.5-0.2-0.5-0.7s0.4-0.7,0.8-0.7s0.8,0.3,0.8,0.8h-0.5c0-0.2-0.1-0.4-0.4-0.4c-0.2,0-0.3,0.1-0.3,0.3
			c0,0.2,0.2,0.2,0.6,0.4C221.7,106.5,222,106.7,222,107.1 M225.3,106.6c0-0.4-0.3-0.7-0.7-0.7c-0.4,0-0.6,0.3-0.6,0.7
			c0,0.4,0.3,0.7,0.6,0.7C225.1,107.3,225.3,107,225.3,106.6z M225.8,105.4v2.4h-0.5v-0.3c-0.2,0.2-0.4,0.4-0.7,0.4
			c-0.7,0-1.2-0.6-1.2-1.2s0.5-1.2,1.2-1.2c0.3,0,0.5,0.2,0.7,0.4v-0.3C225.3,105.4,225.8,105.4,225.8,105.4z M227.1,106.6
			c0,0.4,0.3,0.7,0.7,0.7c0.4,0,0.6-0.3,0.6-0.7c0-0.4-0.3-0.7-0.6-0.7C227.4,105.8,227.1,106.1,227.1,106.6z M227.1,105.7
			c0.2-0.2,0.4-0.4,0.7-0.4c0.7,0,1.2,0.6,1.2,1.2s-0.5,1.2-1.2,1.2c-0.3,0-0.5-0.2-0.7-0.4v1.5h-0.5v-3.6h0.5V105.7L227.1,105.7z
			 M230.1,106.6c0,0.4,0.3,0.7,0.7,0.7c0.4,0,0.6-0.3,0.6-0.7c0-0.4-0.3-0.7-0.6-0.7C230.4,105.8,230.1,106.1,230.1,106.6z
			 M230.1,105.7c0.2-0.2,0.4-0.4,0.7-0.4c0.7,0,1.2,0.6,1.2,1.2s-0.5,1.2-1.2,1.2c-0.3,0-0.5-0.2-0.7-0.4v1.5h-0.5v-3.6h0.5V105.7
			L230.1,105.7z M232.5,107.8h0.5v-3.6h-0.5V107.8z M233.8,107.8h0.5v-2.4h-0.5V107.8L233.8,107.8z M234.1,104.1
			c0.2,0,0.4,0.2,0.4,0.4s-0.2,0.4-0.4,0.4s-0.4-0.2-0.4-0.4C233.7,104.3,233.8,104.1,234.1,104.1L234.1,104.1z M235.4,106.6
			c0,0.4,0.3,0.7,0.6,0.7c0.4,0,0.7-0.3,0.7-0.7c0-0.4-0.3-0.7-0.7-0.7C235.7,105.8,235.4,106.1,235.4,106.6z M236.7,105.4h0.5v3.6
			h-0.5v-1.5c-0.2,0.2-0.4,0.4-0.7,0.4c-0.7,0-1.2-0.6-1.2-1.2c0-0.7,0.5-1.2,1.2-1.2c0.3,0,0.5,0.2,0.7,0.4
			C236.7,105.7,236.7,105.4,236.7,105.4z M240.1,105.4v2.4h-0.5v-0.3c-0.2,0.3-0.4,0.4-0.7,0.4c-0.3,0-0.5-0.1-0.7-0.3
			c-0.1-0.2-0.2-0.4-0.2-0.7v-1.4h0.5v1.3c0,0.4,0.1,0.7,0.5,0.7c0.4,0,0.5-0.3,0.5-0.7v-1.2H240.1L240.1,105.4z M241.2,106.3h1.1
			c0-0.3-0.2-0.6-0.5-0.6S241.2,105.9,241.2,106.3L241.2,106.3z M241.3,105.2l-0.3-0.4l1.2-0.7l0.3,0.4L241.3,105.2z M241.2,106.8
			c0,0.3,0.2,0.6,0.6,0.6c0.3,0,0.4-0.2,0.5-0.3h0.5c-0.1,0.4-0.4,0.8-1,0.8c-0.7,0-1.1-0.6-1.1-1.2c0-0.7,0.4-1.2,1.1-1.2
			c0.6,0,1.1,0.4,1.1,1.1c0,0.1,0,0.2,0,0.3H241.2L241.2,106.8z M245.1,107.1c0,0.5-0.4,0.7-0.9,0.7c-0.5,0-0.9-0.3-0.9-0.8h0.5
			c0,0.3,0.2,0.4,0.4,0.4c0.2,0,0.4-0.1,0.4-0.3s-0.2-0.2-0.7-0.4c-0.3-0.1-0.5-0.2-0.5-0.7s0.4-0.7,0.8-0.7c0.5,0,0.8,0.3,0.8,0.8
			h-0.5c0-0.2-0.1-0.4-0.4-0.4c-0.2,0-0.3,0.1-0.3,0.3c0,0.2,0.2,0.2,0.6,0.4C244.8,106.5,245.1,106.7,245.1,107.1 M159.5,112.1v1
			h0.6c0.5,0,0.5-0.3,0.5-0.5c0-0.2-0.1-0.5-0.5-0.5H159.5L159.5,112.1z M160.1,111.5c0.5,0,0.5-0.3,0.5-0.5s-0.1-0.5-0.5-0.5h-0.6
			v1C159.5,111.5,160.1,111.5,160.1,111.5z M158.9,110.1h1.2c0.9,0,1.1,0.6,1.1,1c0,0.4-0.3,0.7-0.6,0.8c0.2,0,0.6,0.3,0.6,0.8
			c0,0.4-0.2,1-1.1,1h-1.2V110.1z M162.3,112.2h1.1c0-0.3-0.2-0.6-0.5-0.6C162.5,111.6,162.3,111.8,162.3,112.2L162.3,112.2z
			 M162.3,112.6c0,0.3,0.2,0.6,0.6,0.6c0.3,0,0.4-0.2,0.5-0.3h0.5c-0.1,0.4-0.4,0.8-1,0.8c-0.7,0-1.1-0.6-1.1-1.2
			c0-0.7,0.4-1.2,1.1-1.2c0.6,0,1.1,0.4,1.1,1.1c0,0.1,0,0.2,0,0.3H162.3z M166,111.8c-0.1,0-0.2,0-0.2,0c-0.4,0-0.7,0.3-0.7,0.8v1
			h-0.5v-2.4h0.5v0.4c0.1-0.2,0.4-0.4,0.7-0.4c0.1,0,0.2,0,0.2,0.1C166,111.3,166,111.8,166,111.8z M168.4,111.3v2.4h-0.5v-0.3
			c-0.2,0.3-0.4,0.4-0.7,0.4c-0.3,0-0.5-0.1-0.7-0.3c-0.1-0.2-0.2-0.4-0.2-0.7v-1.4h0.5v1.2c0,0.4,0.1,0.7,0.5,0.7
			c0.4,0,0.5-0.3,0.5-0.7v-1.2C167.9,111.3,168.4,111.3,168.4,111.3z M170.5,110.6c-0.1,0-0.2-0.1-0.2-0.1c-0.2,0-0.4,0-0.4,0.4v0.3
			h0.6v0.4h-0.6v1.9h-0.5v-1.9h-0.5v-0.4h0.5V111c0-0.9,0.5-1,0.8-1c0.2,0,0.3,0.1,0.3,0.1V110.6L170.5,110.6z M172.7,112.9
			c0,0.5-0.4,0.7-0.9,0.7s-0.9-0.3-0.9-0.8h0.5c0,0.3,0.2,0.4,0.4,0.4c0.2,0,0.4-0.1,0.4-0.3s-0.2-0.2-0.7-0.4
			c-0.3-0.1-0.5-0.2-0.5-0.7s0.4-0.7,0.8-0.7s0.8,0.3,0.8,0.8h-0.5c0-0.2-0.1-0.4-0.4-0.4c-0.2,0-0.3,0.1-0.3,0.3
			c0,0.2,0.2,0.2,0.6,0.4C172.4,112.4,172.7,112.6,172.7,112.9 M174.6,110.6c-0.1-0.1-0.2-0.1-0.2-0.1c-0.2,0-0.4,0-0.4,0.4v0.3h0.6
			v0.4H174v1.9h-0.5v-1.9H173v-0.4h0.5V111c0-0.9,0.5-1,0.8-1c0.2,0,0.3,0.1,0.3,0.1V110.6L174.6,110.6z M176.8,112.4
			c0-0.4-0.3-0.7-0.7-0.7c-0.4,0-0.6,0.3-0.6,0.7s0.3,0.7,0.6,0.7C176.5,113.2,176.8,112.8,176.8,112.4L176.8,112.4z M177.3,111.3
			v2.4h-0.5v-0.3c-0.2,0.2-0.4,0.4-0.7,0.4c-0.7,0-1.2-0.6-1.2-1.2c0-0.7,0.5-1.2,1.2-1.2c0.3,0,0.5,0.2,0.7,0.4v-0.3L177.3,111.3
			L177.3,111.3z M179.5,112.1c-0.1-0.3-0.2-0.4-0.5-0.4c-0.4,0-0.6,0.3-0.6,0.7c0,0.4,0.2,0.7,0.6,0.7c0.3,0,0.4-0.2,0.5-0.4h0.5
			c-0.1,0.5-0.4,0.9-1.1,0.9c-0.7,0-1.1-0.6-1.1-1.2s0.4-1.2,1.1-1.2s1,0.4,1.1,1H179.5L179.5,112.1z M180.7,110.1h0.5v1.5
			c0.2-0.3,0.4-0.4,0.7-0.4s0.5,0.1,0.7,0.3c0.1,0.2,0.2,0.4,0.2,0.7v1.4h-0.5v-1.2c0-0.4-0.1-0.7-0.5-0.7s-0.5,0.3-0.5,0.7v1.2
			h-0.5L180.7,110.1L180.7,110.1z M185.1,112.9c0,0.5-0.4,0.7-0.9,0.7s-0.9-0.3-0.9-0.8h0.5c0,0.3,0.2,0.4,0.4,0.4
			c0.2,0,0.4-0.1,0.4-0.3s-0.2-0.2-0.7-0.4c-0.3-0.1-0.5-0.2-0.5-0.7s0.4-0.7,0.8-0.7s0.8,0.3,0.8,0.8h-0.5c0-0.2-0.1-0.4-0.4-0.4
			c-0.2,0-0.3,0.1-0.3,0.3c0,0.2,0.2,0.2,0.6,0.4C184.9,112.4,185.1,112.6,185.1,112.9 M187.2,112.1c-0.1-0.3-0.2-0.4-0.5-0.4
			c-0.4,0-0.6,0.3-0.6,0.7c0,0.4,0.2,0.7,0.6,0.7c0.3,0,0.4-0.2,0.5-0.4h0.5c-0.1,0.5-0.4,0.9-1.1,0.9c-0.7,0-1.1-0.6-1.1-1.2
			s0.4-1.2,1.1-1.2c0.7,0,1,0.4,1.1,1C187.8,112.1,187.2,112.1,187.2,112.1z M188.4,110.1h0.5v1.5c0.2-0.3,0.4-0.4,0.7-0.4
			s0.5,0.1,0.7,0.3c0.1,0.2,0.2,0.4,0.2,0.7v1.4H190v-1.2c0-0.4-0.1-0.7-0.5-0.7s-0.5,0.3-0.5,0.7v1.2h-0.5L188.4,110.1L188.4,110.1
			z M193.2,111.3v2.4h-0.5v-0.3c-0.2,0.3-0.4,0.4-0.7,0.4c-0.3,0-0.5-0.1-0.7-0.3c-0.1-0.2-0.2-0.4-0.2-0.7v-1.4h0.5v1.2
			c0,0.4,0.1,0.7,0.5,0.7c0.4,0,0.5-0.3,0.5-0.7v-1.2L193.2,111.3L193.2,111.3z M194,113.6h0.5V110H194V113.6z M195.6,112.2h1.1
			c0-0.3-0.2-0.6-0.5-0.6C195.8,111.6,195.6,111.8,195.6,112.2L195.6,112.2z M195.6,112.6c0,0.3,0.2,0.6,0.6,0.6
			c0.3,0,0.4-0.2,0.5-0.3h0.5c-0.1,0.4-0.4,0.8-1,0.8c-0.7,0-1.1-0.6-1.1-1.2c0-0.7,0.4-1.2,1.1-1.2c0.6,0,1.1,0.4,1.1,1.1
			c0,0.1,0,0.2,0,0.3H195.6z M200.3,110.6c-0.1,0-0.2-0.1-0.2-0.1c-0.2,0-0.4,0-0.4,0.4v0.3h0.6v0.4h-0.6v1.9h-0.5v-1.9h-0.5v-0.4
			h0.5V111c0-0.9,0.5-1,0.8-1c0.2,0,0.3,0.1,0.3,0.1V110.6L200.3,110.6z M202.3,110.1L202.3,110.1z M201.2,110.1
			c0.2,0,0.4,0.2,0.4,0.4c0,0.2-0.2,0.4-0.4,0.4c-0.2,0-0.4-0.2-0.4-0.4C200.8,110.2,200.9,110.1,201.2,110.1z M202.7,113.6h-0.5
			v-0.3c-0.2,0.3-0.4,0.4-0.7,0.4s-0.5-0.1-0.7-0.3c-0.1-0.2-0.2-0.4-0.2-0.7v-1.4h0.5v1.2c0,0.4,0.1,0.7,0.5,0.7
			c0.4,0,0.5-0.3,0.5-0.7v-1.2h0.5L202.7,113.6L202.7,113.6z M204.9,111.8c-0.1,0-0.2,0-0.2,0c-0.4,0-0.7,0.3-0.7,0.8v1h-0.5v-2.4
			h0.5v0.4c0.1-0.2,0.4-0.4,0.7-0.4c0.1,0,0.2,0,0.2,0.1C204.9,111.3,204.9,111.8,204.9,111.8z M208.4,111.8h1.6v0.5h-0.4
			c-0.2,0.8-0.7,1.3-1.6,1.3c-1.1,0-1.8-0.9-1.8-1.9s0.7-1.9,1.8-1.9c0.8,0,1.4,0.5,1.4,1.2h-0.5c-0.1-0.3-0.4-0.6-0.9-0.6
			c-0.7,0-1.2,0.7-1.2,1.3s0.4,1.3,1.2,1.3c0.6,0,0.9-0.4,1-0.8h-0.6C208.4,112.4,208.4,111.8,208.4,111.8z M210.9,112.2h1.1
			c0-0.3-0.2-0.6-0.5-0.6C211.2,111.6,210.9,111.8,210.9,112.2z M210.9,112.6c0,0.3,0.2,0.6,0.6,0.6c0.3,0,0.4-0.2,0.5-0.3h0.5
			c-0.1,0.4-0.4,0.8-1,0.8c-0.7,0-1.1-0.6-1.1-1.2c0-0.7,0.4-1.2,1.1-1.2c0.6,0,1.1,0.4,1.1,1.1c0,0.1,0,0.2,0,0.3H210.9
			L210.9,112.6z M214.9,112.9c0,0.5-0.4,0.7-0.9,0.7c-0.5,0-0.9-0.3-0.9-0.8h0.5c0,0.3,0.2,0.4,0.4,0.4c0.2,0,0.4-0.1,0.4-0.3
			s-0.2-0.2-0.7-0.4c-0.3-0.1-0.5-0.2-0.5-0.7s0.4-0.7,0.8-0.7s0.8,0.3,0.8,0.8h-0.5c0-0.2-0.1-0.4-0.4-0.4c-0.2,0-0.3,0.1-0.3,0.3
			c0,0.2,0.2,0.2,0.6,0.4C214.5,112.4,214.9,112.6,214.9,112.9 M216.7,113.6c-0.1,0-0.3,0.1-0.4,0.1c-0.3,0-0.7-0.1-0.7-0.8v-1.1
			h-0.4v-0.4h0.4v-0.7h0.5v0.7h0.5v0.4h-0.5v1c0,0.4,0.1,0.4,0.3,0.4c0.1,0,0.2,0,0.3,0C216.7,113.2,216.7,113.6,216.7,113.6z
			 M218.9,112.4c0-0.4-0.3-0.7-0.7-0.7c-0.4,0-0.6,0.3-0.6,0.7s0.3,0.7,0.6,0.7C218.6,113.2,218.9,112.8,218.9,112.4z M219.4,111.3
			v2.4h-0.5v-0.3c-0.2,0.2-0.4,0.4-0.7,0.4c-0.7,0-1.2-0.6-1.2-1.2c0-0.7,0.5-1.2,1.2-1.2c0.3,0,0.5,0.2,0.7,0.4v-0.3
			C218.9,111.3,219.4,111.3,219.4,111.3z M220.2,113.6h0.5V110h-0.5V113.6z M222.7,113.6c-0.1,0-0.3,0.1-0.4,0.1
			c-0.3,0-0.7-0.1-0.7-0.8v-1.1h-0.4v-0.4h0.4v-0.7h0.5v0.7h0.5v0.4h-0.5v1c0,0.4,0.1,0.4,0.3,0.4c0.1,0,0.2,0,0.3,0V113.6
			L222.7,113.6z M225.2,111.3v2.4h-0.5v-0.3c-0.2,0.3-0.4,0.4-0.7,0.4s-0.5-0.1-0.7-0.3c-0.1-0.2-0.2-0.4-0.2-0.7v-1.4h0.5v1.2
			c0,0.4,0.1,0.7,0.5,0.7c0.4,0,0.5-0.3,0.5-0.7v-1.2C224.7,111.3,225.2,111.3,225.2,111.3z M226,111.3h0.5v0.3
			c0.2-0.3,0.4-0.4,0.7-0.4c0.3,0,0.5,0.1,0.7,0.3c0.1,0.2,0.2,0.4,0.2,0.7v1.4h-0.5v-1.2c0-0.4-0.1-0.7-0.5-0.7
			c-0.4,0-0.5,0.3-0.5,0.7v1.2H226C226,113.6,226,111.3,226,111.3z M229.1,112.4c0,0.4,0.3,0.7,0.6,0.7c0.4,0,0.7-0.3,0.7-0.7
			s-0.3-0.7-0.7-0.7C229.4,111.7,229.1,112,229.1,112.4z M231,113.7c0,0.4-0.1,0.7-0.3,0.8s-0.5,0.3-0.9,0.3s-0.6-0.1-0.8-0.3
			c-0.2-0.2-0.3-0.4-0.3-0.7h0.5c0.1,0.3,0.2,0.5,0.6,0.5c0.4,0,0.7-0.2,0.7-0.6v-0.4c-0.2,0.2-0.4,0.4-0.7,0.4
			c-0.7,0-1.2-0.6-1.2-1.2c0-0.7,0.5-1.2,1.2-1.2c0.3,0,0.5,0.2,0.7,0.4v-0.3h0.5C231,111.3,231,113.7,231,113.7z M160.2,119.5h-0.4
			l-1.2-3.6h0.6l0.8,2.6l0.8-2.6h0.6L160.2,119.5z M163.2,118.3c0-0.4-0.3-0.7-0.7-0.7c-0.4,0-0.6,0.3-0.6,0.7
			c0,0.4,0.3,0.7,0.6,0.7C163,119.1,163.2,118.7,163.2,118.3 M161.4,118.3c0-0.7,0.5-1.2,1.2-1.2c0.7,0,1.2,0.6,1.2,1.2
			c0,0.7-0.5,1.2-1.2,1.2C161.9,119.6,161.4,119,161.4,118.3 M165.9,118c-0.1-0.3-0.2-0.4-0.5-0.4c-0.4,0-0.6,0.3-0.6,0.7
			c0,0.4,0.2,0.7,0.6,0.7c0.3,0,0.4-0.2,0.5-0.4h0.5c-0.1,0.5-0.4,0.9-1.1,0.9c-0.7,0-1.1-0.6-1.1-1.2s0.4-1.2,1.1-1.2
			c0.7,0,1,0.4,1.1,1H165.9L165.9,118z M168.7,118.3c0-0.4-0.3-0.7-0.7-0.7c-0.4,0-0.6,0.3-0.6,0.7c0,0.4,0.3,0.7,0.6,0.7
			C168.4,119.1,168.7,118.7,168.7,118.3z M169.2,117.1v2.4h-0.5v-0.3c-0.2,0.2-0.4,0.4-0.7,0.4c-0.7,0-1.2-0.6-1.2-1.2
			c0-0.7,0.5-1.2,1.2-1.2c0.3,0,0.5,0.2,0.7,0.4v-0.3L169.2,117.1L169.2,117.1z M171.2,119.5c-0.1,0-0.3,0.1-0.4,0.1
			c-0.3,0-0.7-0.1-0.7-0.8v-1.1h-0.4v-0.4h0.4v-0.7h0.5v0.7h0.5v0.4h-0.5v1c0,0.4,0.1,0.4,0.3,0.4c0.1,0,0.2,0,0.3,0V119.5z
			 M171.7,119.5h0.5v-2.4h-0.5V119.5z M172,115.9c0.2,0,0.4,0.2,0.4,0.4c0,0.2-0.2,0.4-0.4,0.4H172c-0.2,0-0.4-0.2-0.4-0.4
			C171.6,116,171.8,115.9,172,115.9L172,115.9z M174.7,118.3c0-0.4-0.3-0.7-0.7-0.7c-0.4,0-0.6,0.3-0.6,0.7c0,0.4,0.3,0.7,0.6,0.7
			C174.4,119.1,174.7,118.7,174.7,118.3 M172.8,118.3c0-0.7,0.5-1.2,1.2-1.2c0.7,0,1.2,0.6,1.2,1.2c0,0.7-0.5,1.2-1.2,1.2
			C173.3,119.6,172.8,119,172.8,118.3 M175.8,117.1h0.5v0.3c0.2-0.3,0.4-0.4,0.7-0.4s0.5,0.1,0.7,0.3c0.1,0.2,0.2,0.4,0.2,0.7v1.4
			h-0.5v-1.2c0-0.4-0.1-0.7-0.5-0.7s-0.5,0.3-0.5,0.7v1.2h-0.5C175.8,119.5,175.8,117.1,175.8,117.1z M180.2,118.3
			c0-0.4-0.3-0.7-0.7-0.7c-0.4,0-0.6,0.3-0.6,0.7c0,0.4,0.3,0.7,0.6,0.7C180,119.1,180.2,118.7,180.2,118.3z M180.8,117.1v2.4h-0.5
			v-0.3c-0.2,0.2-0.4,0.4-0.7,0.4c-0.7,0-1.2-0.6-1.2-1.2c0-0.7,0.5-1.2,1.2-1.2c0.3,0,0.5,0.2,0.7,0.4v-0.3L180.8,117.1
			L180.8,117.1z M181.5,119.5h0.5v-3.6h-0.5V119.5z M184.3,118.3c0,0.4,0.3,0.7,0.6,0.7c0.3,0,0.5-0.2,0.5-0.5
			c0-0.3-0.3-0.5-0.5-0.6c-0.6-0.2-1.1-0.4-1.1-1.1c0-0.6,0.5-1,1.1-1c0.6,0,1.1,0.4,1.1,1.1h-0.5c0-0.3-0.2-0.6-0.5-0.6
			c-0.3,0-0.5,0.2-0.5,0.4c0,0.3,0.3,0.4,0.5,0.5c0.5,0.2,1.2,0.4,1.2,1.1c0,0.7-0.5,1.1-1.2,1.1c-0.6,0-1.2-0.4-1.2-1.2
			C183.7,118.3,184.3,118.3,184.3,118.3z M188.2,118c-0.1-0.3-0.2-0.4-0.5-0.4c-0.4,0-0.6,0.3-0.6,0.7c0,0.4,0.2,0.7,0.6,0.7
			c0.3,0,0.4-0.2,0.5-0.4h0.5c-0.1,0.5-0.4,0.9-1.1,0.9c-0.7,0-1.1-0.6-1.1-1.2s0.4-1.2,1.1-1.2c0.7,0,1,0.4,1.1,1H188.2L188.2,118z
			 M189.3,115.9h0.5v1.5c0.2-0.3,0.4-0.4,0.7-0.4s0.5,0.1,0.7,0.3c0.1,0.2,0.2,0.4,0.2,0.7v1.4h-0.5v-1.2c0-0.4-0.1-0.7-0.5-0.7
			s-0.5,0.3-0.5,0.7v1.2h-0.5L189.3,115.9L189.3,115.9z M193.8,118.3c0-0.4-0.3-0.7-0.7-0.7c-0.4,0-0.6,0.3-0.6,0.7
			c0,0.4,0.3,0.7,0.6,0.7C193.6,119.1,193.8,118.7,193.8,118.3 M192,118.3c0-0.7,0.5-1.2,1.2-1.2c0.7,0,1.2,0.6,1.2,1.2
			c0,0.7-0.5,1.2-1.2,1.2C192.4,119.6,192,119,192,118.3 M196.6,118.3c0-0.4-0.3-0.7-0.7-0.7c-0.4,0-0.6,0.3-0.6,0.7
			c0,0.4,0.3,0.7,0.6,0.7C196.4,119.1,196.6,118.7,196.6,118.3 M194.8,118.3c0-0.7,0.5-1.2,1.2-1.2c0.7,0,1.2,0.6,1.2,1.2
			c0,0.7-0.5,1.2-1.2,1.2C195.2,119.6,194.8,119,194.8,118.3 M197.8,119.5h0.5v-3.6h-0.5V119.5z M201.7,118.3c0-0.4-0.3-0.7-0.7-0.7
			c-0.4,0-0.6,0.3-0.6,0.7c0,0.4,0.3,0.7,0.6,0.7C201.5,119.1,201.7,118.7,201.7,118.3 M199.9,118.3c0-0.7,0.5-1.2,1.2-1.2
			c0.7,0,1.2,0.6,1.2,1.2c0,0.7-0.5,1.2-1.2,1.2C200.4,119.6,199.9,119,199.9,118.3 M204.2,116.4c-0.1,0-0.2-0.1-0.2-0.1
			c-0.2,0-0.4,0-0.4,0.4v0.3h0.6v0.4h-0.6v2h-0.5v-1.9h-0.5v-0.4h0.5v-0.3c0-0.9,0.5-1,0.8-1c0.2,0,0.3,0.1,0.3,0.1
			C204.2,116,204.2,116.4,204.2,116.4z M206.7,116.9l-0.5,1.6h1L206.7,116.9z M207.5,119.5l-0.2-0.4h-1.3l-0.2,0.4h-0.6l1.2-3.6h0.4
			l1.2,3.6H207.5z M209.1,118.3c0,0.4,0.3,0.7,0.7,0.7c0.4,0,0.6-0.3,0.6-0.7c0-0.4-0.3-0.7-0.6-0.7
			C209.3,117.6,209.1,117.9,209.1,118.3L209.1,118.3z M209.1,117.4c0.2-0.2,0.4-0.4,0.7-0.4c0.7,0,1.2,0.6,1.2,1.2s-0.5,1.2-1.2,1.2
			c-0.3,0-0.5-0.2-0.7-0.4v1.5h-0.5V117h0.5V117.4L209.1,117.4z M212,118.3c0,0.4,0.3,0.7,0.7,0.7c0.4,0,0.6-0.3,0.6-0.7
			c0-0.4-0.3-0.7-0.6-0.7C212.3,117.6,212,117.9,212,118.3z M212,117.4c0.2-0.2,0.4-0.4,0.7-0.4c0.7,0,1.2,0.6,1.2,1.2
			s-0.5,1.2-1.2,1.2c-0.3,0-0.5-0.2-0.7-0.4v1.5h-0.5V117h0.5V117.4z M214.5,119.5h0.5v-3.6h-0.5V119.5z M215.8,119.5h0.5v-2.4h-0.5
			V119.5z M216,115.9c0.2,0,0.4,0.2,0.4,0.4c0,0.2-0.2,0.4-0.4,0.4c0,0,0,0-0.1,0c-0.2,0-0.4-0.2-0.4-0.4
			C215.6,116,215.8,115.9,216,115.9L216,115.9L216,115.9z M217.4,118.1h1.1c0-0.3-0.2-0.6-0.5-0.6
			C217.6,117.5,217.4,117.7,217.4,118.1L217.4,118.1z M217.4,118.5c0,0.3,0.2,0.6,0.6,0.6c0.3,0,0.4-0.2,0.5-0.3h0.5
			c-0.1,0.4-0.4,0.8-1,0.8c-0.7,0-1.1-0.6-1.1-1.2c0-0.7,0.4-1.2,1.1-1.2c0.6,0,1.1,0.4,1.1,1.1c0,0.1,0,0.2,0,0.3
			C219,118.5,217.4,118.5,217.4,118.5z M221.3,118.3c0-0.4-0.3-0.7-0.7-0.7c-0.4,0-0.6,0.3-0.6,0.7c0,0.4,0.3,0.7,0.6,0.7
			C221.1,119.1,221.3,118.7,221.3,118.3L221.3,118.3z M221.3,119.2c-0.2,0.2-0.4,0.4-0.7,0.4c-0.7,0-1.2-0.6-1.2-1.2
			c0-0.7,0.5-1.2,1.2-1.2c0.3,0,0.5,0.2,0.7,0.4V116h0.5v3.5h-0.5V119.2L221.3,119.2z M224.7,116.9l-0.5,1.6h1L224.7,116.9z
			 M225.5,119.5l-0.2-0.4H224l-0.2,0.4h-0.6l1.2-3.6h0.4l1.2,3.6C226.1,119.5,225.5,119.5,225.5,119.5z M227.9,117.7
			c-0.1,0-0.2,0-0.2,0c-0.4,0-0.7,0.3-0.7,0.8v1h-0.5v-2.4h0.5v0.4c0.1-0.2,0.4-0.4,0.7-0.4c0.1,0,0.2,0,0.2,0.1
			C227.9,117.1,227.9,117.7,227.9,117.7z M229.8,119.5c-0.1,0-0.3,0.1-0.4,0.1c-0.3,0-0.7-0.1-0.7-0.8v-1.1h-0.4v-0.4h0.4v-0.7h0.5
			v0.7h0.5v0.4h-0.5v1c0,0.4,0.1,0.4,0.3,0.4c0.1,0,0.2,0,0.3,0V119.5L229.8,119.5z M232,118.8c0,0.5-0.4,0.7-0.9,0.7
			c-0.5,0-0.9-0.3-0.9-0.8h0.5c0,0.3,0.2,0.4,0.4,0.4c0.2,0,0.4-0.1,0.4-0.3s-0.2-0.2-0.7-0.4c-0.3-0.1-0.5-0.2-0.5-0.7
			s0.4-0.7,0.8-0.7s0.8,0.3,0.8,0.8h-0.5c0-0.2-0.1-0.4-0.4-0.4c-0.2,0-0.3,0.1-0.3,0.3c0,0.2,0.2,0.2,0.6,0.4
			C231.6,118.3,232,118.4,232,118.8 M164.5,90.2c0-1.2-0.8-2-2-2c-1.1,0-2,0.7-2,2H164.5L164.5,90.2z M162.5,86.6
			c2.1,0,3.8,1.7,3.8,3.9c0,0.3,0,0.7-0.1,1.3h-5.8c0,1.2,0.6,2.2,2.1,2.2c1.1,0,1.5-0.5,1.8-1.1h1.9c-0.3,1.5-1.5,2.8-3.7,2.8
			c-2.8,0-4.1-2.2-4.1-4.6C158.5,88.6,159.9,86.6,162.5,86.6L162.5,86.6z M168,95.5h1.9v-8.7H168V95.5L168,95.5z M168.9,82.4
			c0.7,0,1.3,0.6,1.3,1.3l0,0c0,0.7-0.6,1.3-1.3,1.3c-0.7,0-1.3-0.6-1.3-1.3C167.6,83,168.2,82.4,168.9,82.4z M172,95.5v-13h1.9v8.2
			l3-3.8h2.4l-3.4,4.3l3.4,4.3h-2.4l-3-3.9v3.8H172z"/>
		<defs>
			
				<filter id="Adobe_OpacityMaskFilter_00000157299516704929856430000017082573296398909586_" filterUnits="userSpaceOnUse" x="158.7" y="86.6" width="38.3" height="11.2">
				<feColorMatrix  type="matrix" values="1 0 0 0 0  0 1 0 0 0  0 0 1 0 0  0 0 0 1 0"/>
			</filter>
		</defs>
		
			<mask maskUnits="userSpaceOnUse" x="158.7" y="86.6" width="38.3" height="11.2" id="b_00000073692091263644151750000008341893146247298210_">
			<g style="filter:url(#Adobe_OpacityMaskFilter_00000157299516704929856430000017082573296398909586_);">
				<path id="a_00000078028092177675360730000012407210046251135370_" class="st3" d="M158.5,120.7h86.7V82.4h-86.7V120.7z"/>
			</g>
		</mask>
		<path class="st6" d="M183.5,93.9c1.4,0,2.4-1.3,2.4-2.8s-1-2.8-2.4-2.8c-1.4,0-2.4,1.3-2.4,2.8C181.1,92.7,182,93.9,183.5,93.9
			 M183.5,86.6c2.6,0,4.4,2.1,4.4,4.6s-1.7,4.6-4.4,4.6c-2.6,0-4.3-2.1-4.3-4.6C179.2,88.7,180.9,86.6,183.5,86.6 M189.2,95.5v-8.7
			h1.9V88c0.5-1,1.4-1.5,2.7-1.5c1.2,0,2,0.4,2.4,1.2c0.4,0.7,0.5,1.3,0.5,2.6v5.2h-1.9V91c0-1.5-0.4-2.6-1.8-2.6
			c-1.3,0-2,1.1-2,2.6v4.5C191.2,95.5,189.2,95.5,189.2,95.5z M175.3,96.9h-16.6v1h16.9L175.3,96.9z M176.5,96.9l0.4,1H197v-1H176.5
			z"/>
	</g>
</g>
</svg>
