<?xml version="1.0" encoding="utf-8"?>
<!-- Generator: Adobe Illustrator 26.5.0, SVG Export Plug-In . SVG Version: 6.00 Build 0)  -->
<svg version="1.1" id="Calque_1" xmlns="http://www.w3.org/2000/svg" xmlns:xlink="http://www.w3.org/1999/xlink" x="0px" y="0px"
	 viewBox="0 0 566.9 197.6" style="enable-background:new 0 0 566.9 197.6;" xml:space="preserve">
<style type="text/css">
	.st0{fill:#231F20;}
	.st1{fill-rule:evenodd;clip-rule:evenodd;fill:#131413;}
	.st2{filter:url(#Adobe_OpacityMaskFilter);}
	.st3{fill-rule:evenodd;clip-rule:evenodd;fill:#FFFFFF;}
	.st4{mask:url(#b_00000140722945153765400730000007732349275004730525_);fill-rule:evenodd;clip-rule:evenodd;fill:#131413;}
	.st5{filter:url(#Adobe_OpacityMaskFilter_00000041258971425211869640000009508805234148874368_);}
	.st6{mask:url(#b_00000073692091263644151750000008341893146247298210_);fill-rule:evenodd;clip-rule:evenodd;fill:#131413;}
	.st7{clip-path:url(#SVGID_00000000214426296039641120000004137947621126487707_);}
	.st8{clip-path:url(#SVGID_00000121988551379695054060000001289773241051238546_);}
</style>
<path d="M431.5,127.5c0-2.9,2.4-5.3,5.3-5.3s5.3,2.4,5.3,5.3c0,2.9-2.4,5.3-5.3,5.3C433.9,132.9,431.5,130.4,431.5,127.5z
	 M502.1,115.4V142H426v-26.6H502.1z M428.5,125.8c0,4.6,3.7,8.4,8.4,8.4s8.4-3.7,8.4-8.4c0-4.6-3.7-8.4-8.4-8.4
	S428.5,121.2,428.5,125.8z M426.5,119.7c0.9-1.5,2-2.7,3.4-3.7h-3.4V119.7z M501.6,116h-57.9c3.1,2.2,5.1,5.7,5.1,9.8
	c0,6.6-5.3,12-11.9,12c-4.4,0-8.2-2.4-10.3-5.9v9.5h75V116z M459.8,120.8h2.1v4.4h2.1v1.8h-4.2L459.8,120.8L459.8,120.8z
	 M464.8,123.9c0-0.5,0.1-1,0.3-1.4c0.2-0.4,0.4-0.7,0.7-1c0.3-0.3,0.7-0.5,1.1-0.6c0.4-0.1,0.9-0.2,1.4-0.2c0.5,0,1,0.1,1.4,0.2
	s0.8,0.4,1.1,0.6c0.3,0.3,0.6,0.6,0.7,1c0.2,0.4,0.3,0.9,0.3,1.4c0,0.5-0.1,1-0.3,1.4s-0.4,0.8-0.7,1c-0.3,0.3-0.7,0.5-1.1,0.7
	c-0.4,0.2-0.9,0.2-1.4,0.2c-0.5,0-1-0.1-1.4-0.2c-0.4-0.2-0.8-0.4-1.1-0.7c-0.3-0.3-0.6-0.6-0.7-1
	C464.9,124.8,464.8,124.4,464.8,123.9z M467,123.9c0,0.2,0,0.4,0.1,0.6c0.1,0.2,0.1,0.3,0.3,0.4s0.2,0.2,0.4,0.3
	c0.1,0.1,0.3,0.1,0.5,0.1s0.3,0,0.5-0.1c0.1-0.1,0.3-0.2,0.4-0.3s0.2-0.3,0.3-0.4c0.1-0.2,0.1-0.4,0.1-0.6c0-0.2,0-0.4-0.1-0.6
	c-0.1-0.2-0.1-0.3-0.3-0.4s-0.2-0.2-0.4-0.3c-0.1-0.1-0.3-0.1-0.5-0.1s-0.3,0-0.5,0.1c-0.1,0.1-0.3,0.2-0.4,0.3s-0.2,0.3-0.3,0.4
	C467.1,123.5,467,123.7,467,123.9z M476,127h-2.1v-4.5h-1.5v-1.8h5.2v1.8H476V127z M478.7,120.8h4.3v1.7h-2.3v0.5h2.2v1.6h-2.2v0.6
	h2.5v1.7h-4.4L478.7,120.8L478.7,120.8z M484.6,120.8h2.7c0.3,0,0.6,0,0.9,0.1s0.6,0.2,0.8,0.3c0.2,0.2,0.4,0.4,0.6,0.6
	c0.1,0.3,0.2,0.6,0.2,1c0,0.4-0.1,0.7-0.3,1c-0.2,0.3-0.5,0.5-0.8,0.7l1.6,2.5h-2.4l-1.2-2.2h-0.1v2.2h-2V120.8L484.6,120.8z
	 M486.6,123.4h0.4c0.1,0,0.1,0,0.2,0c0.1,0,0.2,0,0.2-0.1c0.1,0,0.1-0.1,0.2-0.2c0.1-0.1,0.1-0.2,0.1-0.3s0-0.2-0.1-0.3
	c0-0.1-0.1-0.1-0.2-0.1c-0.1,0-0.1-0.1-0.2-0.1c-0.1,0-0.1,0-0.2,0h-0.5L486.6,123.4L486.6,123.4z M491,120.8h2.1v6.2H491V120.8z
	 M494.5,120.8h4.3v1.7h-2.3v0.5h2.2v1.6h-2.2v0.6h2.5v1.7h-4.4L494.5,120.8L494.5,120.8z M450.5,129.9h2.7c0.3,0,0.6,0,0.9,0.1
	c0.3,0.1,0.6,0.2,0.8,0.3c0.2,0.2,0.4,0.4,0.6,0.6c0.1,0.3,0.2,0.6,0.2,1c0,0.4-0.1,0.7-0.3,1c-0.2,0.3-0.5,0.5-0.8,0.7l1.6,2.5
	h-2.4l-1.2-2.2h-0.1v2.2h-2L450.5,129.9L450.5,129.9z M452.5,132.5h0.4c0.1,0,0.1,0,0.2,0c0.1,0,0.2,0,0.2-0.1
	c0.1,0,0.1-0.1,0.2-0.2c0.1-0.1,0.1-0.2,0.1-0.3c0-0.1,0-0.2-0.1-0.3s-0.1-0.1-0.2-0.1c-0.1,0-0.1-0.1-0.2-0.1c-0.1,0-0.1,0-0.2,0
	h-0.5L452.5,132.5L452.5,132.5z M456.5,133c0-0.5,0.1-0.9,0.3-1.3s0.4-0.7,0.7-1s0.7-0.5,1.1-0.6c0.4-0.1,0.9-0.2,1.4-0.2
	c0.5,0,1,0.1,1.4,0.2c0.4,0.1,0.8,0.4,1.1,0.6s0.6,0.6,0.7,1s0.3,0.8,0.3,1.3c0,0.5-0.1,1-0.3,1.4c-0.2,0.4-0.4,0.8-0.7,1
	c-0.3,0.3-0.7,0.5-1.1,0.7c-0.4,0.2-0.9,0.2-1.4,0.2c-0.5,0-1-0.1-1.4-0.2c-0.4-0.2-0.8-0.4-1.1-0.7s-0.6-0.6-0.7-1
	C456.6,133.9,456.5,133.5,456.5,133z M458.8,133c0,0.2,0,0.4,0.1,0.6s0.1,0.3,0.3,0.4s0.2,0.2,0.4,0.3c0.1,0.1,0.3,0.1,0.5,0.1
	s0.3,0,0.5-0.1c0.1-0.1,0.3-0.2,0.4-0.3s0.2-0.3,0.3-0.4c0.1-0.2,0.1-0.4,0.1-0.6c0-0.2,0-0.4-0.1-0.6c-0.1-0.2-0.1-0.3-0.3-0.4
	c-0.1-0.1-0.2-0.2-0.4-0.3c-0.1-0.1-0.3-0.1-0.5-0.1s-0.3,0-0.5,0.1c-0.1,0.1-0.3,0.2-0.4,0.3c-0.1,0.1-0.2,0.3-0.3,0.4
	C458.8,132.6,458.8,132.8,458.8,133z M466.2,132.6l0.1,3.5h-1.9v-6.2h2.7l1.1,3.3h0l1-3.3h2.8v6.2h-2l0.1-3.5l-0.1,0l-1.2,3.5h-1.5
	L466.2,132.6L466.2,132.6L466.2,132.6z M475.2,129.9h2.2l2.4,6.2h-2.3l-0.3-0.9h-2l-0.3,0.9h-2.2L475.2,129.9z M476.3,132l-0.5,1.5
	h1L476.3,132z M480.6,129.9h2.1l1.8,3.2h0l-0.1-3.2h2v6.2h-2.2l-1.7-3h0l0.1,3h-2V129.9L480.6,129.9z M487.6,136.1v-6.2h2.3
	c0.5,0,1,0.1,1.4,0.1c0.4,0.1,0.8,0.3,1.2,0.5c0.3,0.2,0.6,0.6,0.8,0.9c0.2,0.4,0.3,0.9,0.3,1.5c0,0.6-0.1,1-0.3,1.4
	c-0.2,0.4-0.5,0.7-0.8,1c-0.3,0.3-0.7,0.4-1.1,0.6c-0.4,0.1-0.9,0.2-1.3,0.2L487.6,136.1L487.6,136.1z M489.6,131.7v2.6h0.4
	c0.5,0,0.9-0.1,1.1-0.3c0.3-0.2,0.4-0.6,0.4-1c0-0.4-0.1-0.7-0.4-0.9c-0.3-0.2-0.6-0.3-1.1-0.3H489.6z M494.5,129.9h4.3v1.7h-2.3
	v0.5h2.2v1.6h-2.2v0.6h2.5v1.7h-4.4V129.9z"/>
<g>
	<path d="M63.4,133.7v1.1c3.2-0.8,6.7-2.8,8.6-4.6c1.3-1.2,2.4-2.6,3.2-4.2c0,0,0.1-0.1,0.1-0.1c0.8-1.5,1.4-3.2,1.8-5.3
		c1.2-5.7-0.6-11.3-1-12.1c-0.4-0.5-1-0.4-1.5-0.4c-0.1,0-0.2,0-0.3,0h-11V121h8.5c0.1,0,0.2,0,0.2,0c0.3,0.1,0.5,0.2,0.5,0.5
		c0,0.1,0,0.1,0,0.2c0,2.6-1.3,7.7-8.5,10.9l-0.7,0.3C63.4,132.9,63.4,133.7,63.4,133.7z"/>
	<g>
		<path d="M63.4,141h2.9v0.4H64v1.3h2.1v0.4H64v1.4h2.3v0.4h-2.9V141z"/>
		<path d="M68,141.4h-1.3V141H70v0.4h-1.4v3.7H68V141.4z"/>
		<path d="M71.1,141h0.6l1.6,4.1h-0.6l-0.4-1.3h-1.8l-0.4,1.3h-0.6L71.1,141z M70.6,143.4H72l-0.7-1.9l0,0L70.6,143.4z"/>
		<path d="M74.2,141.4h-1.4V141h3.3v0.4h-1.4v3.7h-0.5V141.4z"/>
		<path d="M78.4,141h1.4c1.3,0,2,0.7,2,2c0,1.4-0.6,2.1-2,2.1h-1.4V141z M78.9,144.6h0.9c0.4,0,1.4-0.1,1.4-1.6c0-1-0.4-1.5-1.4-1.5
			h-1L78.9,144.6L78.9,144.6z"/>
		<path d="M82.5,141h2.9v0.4h-2.3v1.3h2.1v0.4h-2.1v1.4h2.3v0.4h-2.9C82.5,145,82.5,141,82.5,141z"/>
		<path d="M87.9,141h2.7v0.4h-2.1v1.3h1.9v0.4h-1.9v1.9H88L87.9,141L87.9,141z"/>
		<path d="M91.3,141h1.9c0.7,0,1.3,0.4,1.3,1.1c0,0.5-0.2,0.9-0.7,1l0,0c0.5,0.1,0.6,0.4,0.6,0.9c0,0.4,0,0.9,0.2,1.1h-0.6
			c-0.1-0.1-0.1-0.6-0.1-1c-0.1-0.4-0.1-0.7-0.7-0.7h-1.3v1.8h-0.5L91.3,141L91.3,141z M93,142.9c0.5,0,1-0.1,1-0.7
			c0-0.4-0.2-0.7-0.7-0.7h-1.3v1.4L93,142.9L93,142.9z"/>
		<path d="M95.4,141h0.5v4.1h-0.5V141z"/>
		<path d="M97,141h1.5c0.4,0,0.8,0,1.1,0.1c0.3,0.1,0.5,0.4,0.5,0.9s-0.2,0.7-0.6,1l0,0c0.5,0.1,0.8,0.5,0.8,1
			c0,0.6-0.4,1.2-1.3,1.2h-2L97,141L97,141z M97.5,142.7h1.1c0.6,0,0.9-0.2,0.9-0.7c0-0.6-0.4-0.7-0.9-0.7h-1.1V142.7z M97.5,144.6
			h1.4c0.4,0,0.7-0.3,0.7-0.7c0-0.5-0.4-0.7-0.9-0.7h-1.3V144.6z"/>
		<path d="M102.8,140.9c1.3,0,2,1,2,2.1s-0.7,2.1-2,2.1s-2-1-2-2.1S101.4,140.9,102.8,140.9z M102.8,144.7c1,0,1.4-0.9,1.4-1.7
			s-0.4-1.7-1.4-1.7c-1,0-1.4,0.9-1.4,1.7S101.7,144.7,102.8,144.7z"/>
		<path d="M108.8,143.6c0,1-0.6,1.6-1.6,1.6s-1.7-0.5-1.7-1.6V141h0.5v2.6c0,0.7,0.4,1.1,1.1,1.1s1.1-0.4,1.1-1.1V141h0.6V143.6z"/>
		<path d="M109.8,141h2c0.7,0,1.3,0.4,1.3,1.1c0,0.5-0.2,0.9-0.7,1l0,0c0.5,0.1,0.6,0.4,0.6,0.9c0,0.4,0,0.9,0.2,1.1h-0.6
			c-0.1-0.1-0.1-0.6-0.1-1c-0.1-0.4-0.1-0.7-0.7-0.7h-1.3v1.8h-0.5L109.8,141L109.8,141z M111.5,142.9c0.5,0,1-0.1,1-0.7
			c0-0.4-0.2-0.7-0.7-0.7h-1.3v1.4L111.5,142.9L111.5,142.9z"/>
		<path d="M116.9,144.6c-0.3,0.4-0.8,0.6-1.3,0.6c-1.3,0-2-1-2-2.1c0-1.2,0.7-2.2,2-2.2c0.9,0,1.6,0.4,1.8,1.4h-0.5
			c-0.1-0.6-0.6-0.9-1.3-0.9c-1,0-1.4,0.9-1.4,1.8c0,0.9,0.5,1.6,1.4,1.6c0.9,0,1.3-0.6,1.3-1.3h-1.3V143h1.8v2.1H117L116.9,144.6z"
			/>
		<path d="M65.8,150.4c-0.1-0.6-0.4-0.8-1-0.8c-0.4,0-1,0.1-1,0.7c0,0.5,0.7,0.6,1.3,0.7c0.7,0.1,1.3,0.4,1.3,1.2
			c0,0.9-0.9,1.3-1.6,1.3c-1,0-1.7-0.4-1.7-1.5h0.5c0,0.7,0.6,1,1.2,1c0.5,0,1-0.1,1-0.7s-0.7-0.7-1.3-0.8c-0.7-0.1-1.3-0.4-1.3-1.1
			c0-0.8,0.7-1.2,1.5-1.2c0.8,0,1.5,0.4,1.5,1.3L65.8,150.4L65.8,150.4z"/>
		<path d="M68,149.6h-1.4v-0.4h3.3v0.4h-1.4v3.7H68V149.6z"/>
		<path d="M71.1,149.2h0.6l1.6,4.1h-0.6l-0.4-1.3h-1.8l-0.4,1.3h-0.6L71.1,149.2z M70.6,151.6H72l-0.7-1.9l0,0L70.6,151.6z"/>
		<path d="M74.9,149.2h0.6l1.6,4.1h-0.6l-0.4-1.3h-1.8l-0.4,1.3h-0.6L74.9,149.2z M74.4,151.6h1.4l-0.7-1.9l0,0L74.4,151.6z"/>
		<path d="M78.1,149.6h-1.4v-0.4H80v0.4h-1.4v3.7h-0.5V149.6z"/>
		<path d="M82.2,149.2H85v0.4h-2.1v1.3h1.9v0.4h-1.9v1.9h-0.5L82.2,149.2L82.2,149.2z"/>
		<path d="M85.6,149.2h1.9c0.7,0,1.3,0.4,1.3,1.1c0,0.5-0.2,0.9-0.7,1l0,0c0.4,0.1,0.6,0.4,0.6,0.9c0,0.4,0,0.9,0.2,1.1h-0.6
			c-0.1-0.1-0.1-0.6-0.1-1c-0.1-0.4-0.1-0.7-0.7-0.7h-1.3v1.8h-0.5C85.6,153.3,85.6,149.2,85.6,149.2z M87.3,151.1
			c0.5,0,1-0.1,1-0.7c0-0.4-0.2-0.7-0.7-0.7h-1.3v1.4L87.3,151.1L87.3,151.1z"/>
		<path d="M89.7,149.2h2.9v0.4h-2.3v1.3h2.1v0.4h-2.1v1.4h2.3v0.4h-2.9V149.2z"/>
		<path d="M93.4,149.2h0.5v4.1h-0.5V149.2z"/>
		<path d="M94.9,149.2h1.5c0.4,0,0.8,0,1.1,0.1c0.3,0.1,0.5,0.4,0.5,0.9c0,0.4-0.2,0.7-0.6,1l0,0c0.5,0.1,0.8,0.5,0.8,1
			c0,0.6-0.4,1.2-1.3,1.2h-2L94.9,149.2L94.9,149.2z M95.5,151h1.1c0.6,0,0.9-0.2,0.9-0.7c0-0.6-0.4-0.7-0.9-0.7h-1.1V151z
			 M95.5,152.9h1.4c0.4,0,0.7-0.3,0.7-0.7c0-0.5-0.4-0.7-0.9-0.7h-1.3V152.9z"/>
		<path d="M102.3,151.9c0,1-0.6,1.6-1.6,1.6s-1.7-0.5-1.7-1.6v-2.6h0.5v2.6c0,0.7,0.4,1.1,1.1,1.1s1.1-0.4,1.1-1.1v-2.6h0.5
			L102.3,151.9L102.3,151.9z"/>
		<path d="M103.2,149.2h1.9c0.7,0,1.3,0.4,1.3,1.1c0,0.5-0.2,0.9-0.7,1l0,0c0.4,0.1,0.6,0.4,0.6,0.9c0,0.4,0,0.9,0.2,1.1h-0.6
			c-0.1-0.1-0.1-0.6-0.1-1c-0.1-0.4-0.1-0.7-0.7-0.7h-1.3v1.8h-0.5C103.2,153.3,103.2,149.2,103.2,149.2z M104.9,151.1
			c0.5,0,1-0.1,1-0.7c0-0.4-0.2-0.7-0.7-0.7h-1.3v1.4L104.9,151.1L104.9,151.1z"/>
		<path d="M110.3,152.8c-0.3,0.4-0.8,0.6-1.3,0.6c-1.3,0-2-1-2-2.1c0-1.2,0.7-2.2,2-2.2c0.9,0,1.6,0.4,1.8,1.4h-0.5
			c-0.1-0.6-0.6-0.9-1.3-0.9c-1,0-1.4,0.9-1.4,1.8c0,0.9,0.5,1.6,1.4,1.6s1.3-0.6,1.3-1.3H109v-0.4h1.8v2.1h-0.4L110.3,152.8z"/>
		<path d="M66,161.6h-0.4l-0.7-2.4l0,0l-0.7,2.4h-0.4l-0.7-2.8h0.4l0.6,2.3l0,0l0.7-2.4h0.4l0.5,2.4l0,0l0.6-2.4h0.4L66,161.6z"/>
		<path d="M69.7,161.6h-0.4l-0.7-2.4l0,0l-0.7,2.4h-0.4l-0.7-2.8h0.4l0.6,2.3l0,0l0.7-2.4H69l0.5,2.4l0,0l0.6-2.4h0.4L69.7,161.6z"
			/>
		<path d="M73.5,161.6h-0.4l-0.7-2.4l0,0l-0.7,2.4h-0.4l-0.7-2.8h0.4l0.6,2.4l0,0l0.7-2.4h0.4l0.6,2.4l0,0l0.6-2.4h0.3L73.5,161.6z"
			/>
		<path d="M74.4,161.1h0.4v0.4h-0.4V161.1z"/>
		<path d="M75.6,158.7h1.8v0.3h-1.5v0.9h1.3v0.3h-1.3v1.3h-0.4V158.7z"/>
		<path d="M77.9,158.7h1.3c0.5,0,0.9,0.3,0.9,0.7c0,0.4-0.1,0.6-0.5,0.7l0,0c0.3,0.1,0.4,0.3,0.4,0.6c0,0.3,0,0.6,0.1,0.8h-0.4
			c-0.1-0.1-0.1-0.4-0.1-0.7c-0.1-0.3-0.1-0.5-0.4-0.5h-0.9v1.2h-0.4V158.7z M79.1,160c0.4,0,0.7-0.1,0.7-0.5c0-0.3-0.1-0.5-0.5-0.5
			h-1v1L79.1,160L79.1,160z"/>
		<path d="M80.7,161.1h0.4v0.4h-0.4V161.1z"/>
		<path d="M83.9,159.6c-0.1-0.4-0.4-0.6-0.8-0.6c-0.7,0-1,0.6-1,1.2c0,0.7,0.3,1.2,1,1.2c0.5,0,0.8-0.4,0.8-0.8h0.4
			c-0.1,0.7-0.5,1.1-1.3,1.1c-0.9,0-1.3-0.7-1.3-1.5c0-0.8,0.4-1.5,1.3-1.5c0.6,0,1.1,0.3,1.2,0.9C84.2,159.6,83.9,159.6,83.9,159.6
			z"/>
		<path d="M84.8,158.7h0.4v1.2h1.5v-1.2H87v2.8h-0.4v-1.3h-1.5v1.3h-0.4C84.8,161.5,84.8,158.7,84.8,158.7z"/>
	</g>
</g>
<g>
	<g>
		<path d="M345.6,126.5c-2.6,0-4.8,1.7-5.6,4c-0.4-1.2-1.2-2.3-2.3-3c-0.9-0.6-1.4-1.6-1.4-2.7c0-1.8,1.5-3.2,3.2-3.2v-2.8
			c-3.3,0-6,2.7-6,6c0,2.1,1,3.9,2.6,5v0c0.9,0.6,1.4,1.6,1.4,2.7c0,1.8-1.5,3.2-3.2,3.2c-1.8,0-3.2-1.4-3.2-3.2h-2.8
			c0,3.3,2.7,6,6,6c2.6,0,4.8-1.7,5.7-4c0.8,2.3,3,4,5.6,4c3.3,0,6-2.7,6-6C351.6,129.2,348.9,126.5,345.6,126.5 M345.6,135.7
			c-1.8,0-3.2-1.4-3.2-3.2c0-1.8,1.4-3.2,3.2-3.2c1.8,0,3.2,1.5,3.2,3.2C348.8,134.2,347.3,135.7,345.6,135.7"/>
	</g>
	<g>
		<path d="M360.8,138.2h2.8v-5.7c0-3.3-2.7-6-6-6c-3.3,0-6,2.7-6,6v5.7h2.8v-5.7c0-1.8,1.5-3.2,3.2-3.2c1.8,0,3.2,1.5,3.2,3.2V138.2
			L360.8,138.2z"/>
	</g>
	<g>
		<path d="M323.6,126.2L323.6,126.2c-1.8,0-3.5,0.8-4.6,2.2c-1.1-1.3-2.8-2.2-4.6-2.2h-0.7v-1.4c0-1.8,1.5-3.2,3.2-3.2v-2.8
			c-3.3,0-6,2.7-6,6v1.4h-3.5v2.8h3.5v9.2h2.8V129h0.7c1.8,0,3.2,1.4,3.2,3.2v6h2.8v-6c0-1.8,1.4-3.2,3.2-3.2h0.7v9.2h2.8v-12H323.6
			z"/>
	</g>
	<g>
		<polygon points="332.7,126.2 328.3,129 328.3,131.8 332.7,129.1 		"/>
	</g>
</g>
<rect x="324.3" y="118.9" class="st0" width="2.8" height="6.6"/>
<g>
	<path class="st1" d="M176.2,137.4v3.6h2v-0.5h-1.4v-1h1.4V139h-1.4v-1h1.4v-0.5L176.2,137.4L176.2,137.4z"/>
	<g transform="translate(.972 .134)">
		<path class="st1" d="M179.4,139.3c-0.1-0.3-0.2-0.4-0.5-0.4c-0.4,0-0.6,0.3-0.6,0.7c0,0.4,0.2,0.7,0.6,0.7c0.3,0,0.4-0.2,0.5-0.4
			h0.5c-0.1,0.5-0.4,0.9-1.1,0.9c-0.7,0-1.1-0.6-1.1-1.2s0.4-1.2,1.1-1.2c0.7,0,1,0.4,1.1,1C179.9,139.3,179.4,139.3,179.4,139.3z
			 M182.2,139.6c0-0.4-0.3-0.7-0.7-0.7c-0.4,0-0.6,0.3-0.6,0.7c0,0.4,0.3,0.7,0.6,0.7C181.9,140.4,182.2,140,182.2,139.6
			 M180.3,139.6c0-0.7,0.5-1.2,1.2-1.2c0.7,0,1.2,0.6,1.2,1.2c0,0.7-0.5,1.2-1.2,1.2C180.8,140.9,180.3,140.3,180.3,139.6"/>
		<defs>
			<filter id="Adobe_OpacityMaskFilter" filterUnits="userSpaceOnUse" x="174.7" y="115.5" width="86.7" height="38.2">
				<feColorMatrix  type="matrix" values="1 0 0 0 0  0 1 0 0 0  0 0 1 0 0  0 0 0 1 0"/>
			</filter>
		</defs>
		
			<mask maskUnits="userSpaceOnUse" x="174.7" y="115.5" width="86.7" height="38.2" id="b_00000140722945153765400730000007732349275004730525_">
			<g class="st2">
				<path id="a_00000091005995865247841730000003410599745603700408_" class="st3" d="M174.7,153.7h86.7v-38.3h-86.7V153.7z"/>
			</g>
		</mask>
		<path class="st4" d="M183.3,140.8h0.5v-3.6h-0.5V140.8z M185,139.4h1.1c0-0.3-0.2-0.6-0.5-0.6S185,139,185,139.4z M185,139.8
			c0,0.3,0.2,0.6,0.6,0.6c0.3,0,0.4-0.2,0.5-0.3h0.5c-0.1,0.4-0.4,0.8-1,0.8c-0.7,0-1.1-0.6-1.1-1.2c0-0.7,0.4-1.2,1.1-1.2
			c0.6,0,1.1,0.4,1.1,1.1c0,0.1,0,0.2,0,0.3C186.5,139.8,185,139.8,185,139.8z M188.8,139.6c0,0.4,0.3,0.7,0.7,0.7
			c0.4,0,0.6-0.3,0.6-0.7c0-0.4-0.3-0.7-0.6-0.7C189,138.8,188.8,139.2,188.8,139.6z M188.8,138.7c0.2-0.2,0.4-0.4,0.7-0.4
			c0.7,0,1.2,0.6,1.2,1.2s-0.5,1.2-1.2,1.2c-0.3,0-0.5-0.2-0.7-0.4v1.5h-0.5v-3.6h0.5V138.7L188.8,138.7z M192.7,139
			c-0.1,0-0.2,0-0.2,0c-0.4,0-0.7,0.3-0.7,0.8v1h-0.5v-2.4h0.5v0.4c0.1-0.2,0.4-0.4,0.7-0.4c0.1,0,0.2,0,0.2,0.1V139L192.7,139z
			 M194.8,139.6c0-0.4-0.3-0.7-0.7-0.7c-0.4,0-0.6,0.3-0.6,0.7c0,0.4,0.3,0.7,0.6,0.7C194.5,140.4,194.8,140,194.8,139.6 M193,139.6
			c0-0.7,0.5-1.2,1.2-1.2c0.7,0,1.2,0.6,1.2,1.2c0,0.7-0.5,1.2-1.2,1.2C193.4,140.9,193,140.3,193,139.6 M197.2,137.7
			c-0.1,0-0.2-0.1-0.2-0.1c-0.2,0-0.4,0-0.4,0.4v0.3h0.6v0.4h-0.6v1.9h-0.5v-1.9h-0.5v-0.4h0.5v-0.3c0-0.9,0.5-1,0.8-1
			c0.2,0,0.3,0.1,0.3,0.1C197.2,137.3,197.2,137.7,197.2,137.7z M198.1,139.4h1.1c0-0.3-0.2-0.6-0.5-0.6S198.1,139,198.1,139.4z
			 M198.1,139.8c0,0.3,0.2,0.6,0.6,0.6c0.3,0,0.4-0.2,0.5-0.3h0.5c-0.1,0.4-0.4,0.8-1,0.8c-0.7,0-1.1-0.6-1.1-1.2
			c0-0.7,0.4-1.2,1.1-1.2c0.6,0,1.1,0.4,1.1,1.1c0,0.1,0,0.2,0,0.3H198.1L198.1,139.8z M201.9,140.1c0,0.5-0.4,0.7-0.9,0.7
			c-0.5,0-0.9-0.3-0.9-0.8h0.5c0,0.3,0.2,0.4,0.4,0.4c0.2,0,0.4-0.1,0.4-0.3c0-0.2-0.2-0.2-0.7-0.4c-0.3-0.1-0.5-0.2-0.5-0.7
			c0-0.4,0.4-0.7,0.8-0.7c0.5,0,0.8,0.3,0.8,0.8h-0.5c0-0.2-0.1-0.4-0.4-0.4c-0.2,0-0.3,0.1-0.3,0.3c0,0.2,0.2,0.2,0.6,0.4
			C201.7,139.6,201.9,139.7,201.9,140.1 M204.2,140.1c0,0.5-0.4,0.7-0.9,0.7s-0.9-0.3-0.9-0.8h0.5c0,0.3,0.2,0.4,0.4,0.4
			c0.2,0,0.4-0.1,0.4-0.3c0-0.2-0.2-0.2-0.7-0.4c-0.3-0.1-0.5-0.2-0.5-0.7c0-0.4,0.4-0.7,0.8-0.7s0.8,0.3,0.8,0.8h-0.5
			c0-0.2-0.1-0.4-0.4-0.4c-0.2,0-0.3,0.1-0.3,0.3c0,0.2,0.2,0.2,0.6,0.4C204,139.6,204.2,139.7,204.2,140.1 M204.9,140.8h0.5v-2.4
			h-0.5V140.8L204.9,140.8z M205.1,137.2c0.2,0,0.4,0.2,0.4,0.4s-0.2,0.4-0.4,0.4l0,0c-0.2,0-0.4-0.2-0.4-0.4
			S204.9,137.2,205.1,137.2z M207.8,139.6c0-0.4-0.3-0.7-0.7-0.7c-0.4,0-0.6,0.3-0.6,0.7c0,0.4,0.3,0.7,0.6,0.7
			C207.5,140.4,207.8,140,207.8,139.6 M205.9,139.6c0-0.7,0.5-1.2,1.2-1.2c0.7,0,1.2,0.6,1.2,1.2c0,0.7-0.5,1.2-1.2,1.2
			S205.9,140.3,205.9,139.6 M208.9,138.4h0.5v0.3c0.2-0.3,0.4-0.4,0.7-0.4c0.3,0,0.5,0.1,0.7,0.3c0.1,0.2,0.2,0.4,0.2,0.7v1.4h-0.5
			v-1.2c0-0.4-0.1-0.7-0.5-0.7s-0.5,0.3-0.5,0.7v1.2H209L208.9,138.4L208.9,138.4z M211.7,138.4h0.5v0.3c0.2-0.3,0.4-0.4,0.7-0.4
			c0.3,0,0.5,0.1,0.7,0.3c0.1,0.2,0.2,0.4,0.2,0.7v1.4h-0.5v-1.2c0-0.4-0.1-0.7-0.5-0.7s-0.5,0.3-0.5,0.7v1.2h-0.5L211.7,138.4
			L211.7,138.4z M214.9,139.4h1.1c0-0.3-0.2-0.6-0.5-0.6S214.9,139,214.9,139.4z M214.9,139.8c0,0.3,0.2,0.6,0.6,0.6
			c0.3,0,0.4-0.2,0.5-0.3h0.5c-0.1,0.4-0.4,0.8-1,0.8c-0.7,0-1.1-0.6-1.1-1.2c0-0.7,0.4-1.2,1.1-1.2c0.6,0,1.1,0.4,1.1,1.1
			c0,0.1,0,0.2,0,0.3H214.9z M217.1,140.8h0.5v-3.6h-0.5V140.8z M218.4,140.8h0.5v-3.6h-0.5V140.8z M220.1,139.4h1.1
			c0-0.3-0.2-0.6-0.5-0.6S220.1,139,220.1,139.4z M220.1,139.8c0,0.3,0.2,0.6,0.6,0.6c0.3,0,0.4-0.2,0.5-0.3h0.5
			c-0.1,0.4-0.4,0.8-1,0.8c-0.7,0-1.1-0.6-1.1-1.2c0-0.7,0.4-1.2,1.1-1.2c0.6,0,1.1,0.4,1.1,1.1c0,0.1,0,0.2,0,0.3H220.1
			L220.1,139.8z M223.7,139.4h1.1c0-0.3-0.2-0.6-0.5-0.6S223.7,139,223.7,139.4z M223.7,139.8c0,0.3,0.2,0.6,0.6,0.6
			c0.3,0,0.4-0.2,0.5-0.3h0.5c-0.1,0.4-0.4,0.8-1,0.8c-0.7,0-1.1-0.6-1.1-1.2c0-0.7,0.4-1.2,1.1-1.2c0.6,0,1.1,0.4,1.1,1.1
			c0,0.1,0,0.2,0,0.3H223.7L223.7,139.8z M226,138.4h0.5v0.3c0.2-0.3,0.4-0.4,0.7-0.4c0.3,0,0.5,0.1,0.7,0.3
			c0.1,0.2,0.2,0.4,0.2,0.7v1.4h-0.5v-1.2c0-0.4-0.1-0.7-0.5-0.7s-0.5,0.3-0.5,0.7v1.2h-0.5L226,138.4L226,138.4z M231.5,139.6
			c0-0.4-0.3-0.7-0.7-0.7c-0.4,0-0.6,0.3-0.6,0.7c0,0.4,0.3,0.7,0.6,0.7C231.3,140.4,231.5,140,231.5,139.6z M232.1,138.5v2.4h-0.5
			v-0.3c-0.2,0.2-0.4,0.4-0.7,0.4c-0.7,0-1.2-0.6-1.2-1.2c0-0.7,0.5-1.2,1.2-1.2c0.3,0,0.5,0.2,0.7,0.4v-0.3
			C231.5,138.5,232.1,138.5,232.1,138.5z M234.2,139c-0.1,0-0.2,0-0.2,0c-0.4,0-0.7,0.3-0.7,0.8v1h-0.5v-2.4h0.5v0.4
			c0.1-0.2,0.4-0.4,0.7-0.4c0.1,0,0.2,0,0.2,0.1C234.2,138.5,234.2,139,234.2,139z M236,140.8c-0.1,0-0.3,0.1-0.4,0.1
			c-0.3,0-0.7-0.1-0.7-0.8v-1.1h-0.4v-0.4h0.4v-0.7h0.5v0.7h0.5v0.4h-0.5v1c0,0.4,0.1,0.4,0.3,0.4c0.1,0,0.2,0,0.3,0V140.8
			L236,140.8z M238.2,140.1c0,0.5-0.4,0.7-0.9,0.7c-0.5,0-0.9-0.3-0.9-0.8h0.5c0,0.3,0.2,0.4,0.4,0.4c0.2,0,0.4-0.1,0.4-0.3
			c0-0.2-0.2-0.2-0.7-0.4c-0.3-0.1-0.5-0.2-0.5-0.7c0-0.4,0.4-0.7,0.8-0.7c0.5,0,0.8,0.3,0.8,0.8h-0.5c0-0.2-0.1-0.4-0.4-0.4
			c-0.2,0-0.3,0.1-0.3,0.3c0,0.2,0.2,0.2,0.6,0.4C237.9,139.6,238.2,139.7,238.2,140.1 M241.6,139.6c0-0.4-0.3-0.7-0.7-0.7
			c-0.4,0-0.6,0.3-0.6,0.7c0,0.4,0.3,0.7,0.6,0.7C241.3,140.4,241.6,140,241.6,139.6z M242.1,138.5v2.4h-0.5v-0.3
			c-0.2,0.2-0.4,0.4-0.7,0.4c-0.7,0-1.2-0.6-1.2-1.2c0-0.7,0.5-1.2,1.2-1.2c0.3,0,0.5,0.2,0.7,0.4v-0.3
			C241.6,138.5,242.1,138.5,242.1,138.5z M243.4,139.6c0,0.4,0.3,0.7,0.7,0.7c0.4,0,0.6-0.3,0.6-0.7c0-0.4-0.3-0.7-0.6-0.7
			C243.6,138.8,243.4,139.2,243.4,139.6z M243.4,138.7c0.2-0.2,0.4-0.4,0.7-0.4c0.7,0,1.2,0.6,1.2,1.2s-0.5,1.2-1.2,1.2
			c-0.3,0-0.5-0.2-0.7-0.4v1.5h-0.5v-3.6h0.5V138.7L243.4,138.7z M246.3,139.6c0,0.4,0.3,0.7,0.7,0.7c0.4,0,0.6-0.3,0.6-0.7
			c0-0.4-0.3-0.7-0.6-0.7C246.6,138.8,246.3,139.2,246.3,139.6z M246.3,138.7c0.2-0.2,0.4-0.4,0.7-0.4c0.7,0,1.2,0.6,1.2,1.2
			s-0.5,1.2-1.2,1.2c-0.3,0-0.5-0.2-0.7-0.4v1.5h-0.5v-3.6h0.5V138.7L246.3,138.7z M248.8,140.8h0.5v-3.6h-0.5V140.8z M250.1,140.8
			h0.5v-2.4h-0.5V140.8L250.1,140.8z M250.3,137.2c0.2,0,0.4,0.2,0.4,0.4s-0.2,0.4-0.4,0.4s-0.4-0.2-0.4-0.4
			C249.9,137.3,250.1,137.2,250.3,137.2L250.3,137.2z M251.6,139.6c0,0.4,0.3,0.7,0.6,0.7c0.4,0,0.7-0.3,0.7-0.7
			c0-0.4-0.3-0.7-0.7-0.7C251.9,138.8,251.6,139.2,251.6,139.6z M253,138.5h0.5v3.6H253v-1.5c-0.2,0.2-0.4,0.4-0.7,0.4
			c-0.7,0-1.2-0.6-1.2-1.2s0.5-1.2,1.2-1.2c0.3,0,0.5,0.2,0.7,0.4C253,138.7,253,138.5,253,138.5z M256.3,138.4v2.4h-0.5v-0.3
			c-0.2,0.3-0.4,0.4-0.7,0.4c-0.3,0-0.5-0.1-0.7-0.3c-0.1-0.2-0.2-0.4-0.2-0.7v-1.4h0.5v1.3c0,0.4,0.1,0.7,0.5,0.7s0.5-0.3,0.5-0.7
			v-1.2H256.3L256.3,138.4z M257.4,139.4h1.1c0-0.3-0.2-0.6-0.5-0.6S257.4,139,257.4,139.4L257.4,139.4z M257.5,138.3l-0.3-0.4
			l1.2-0.7l0.3,0.4L257.5,138.3z M257.4,139.8c0,0.3,0.2,0.6,0.6,0.6c0.3,0,0.4-0.2,0.5-0.3h0.5c-0.1,0.4-0.4,0.8-1,0.8
			c-0.7,0-1.1-0.6-1.1-1.2c0-0.7,0.4-1.2,1.1-1.2c0.6,0,1.1,0.4,1.1,1.1c0,0.1,0,0.2,0,0.3H257.4L257.4,139.8z M261.4,140.1
			c0,0.5-0.4,0.7-0.9,0.7c-0.5,0-0.9-0.3-0.9-0.8h0.5c0,0.3,0.2,0.4,0.4,0.4c0.2,0,0.4-0.1,0.4-0.3c0-0.2-0.2-0.2-0.7-0.4
			c-0.3-0.1-0.5-0.2-0.5-0.7c0-0.4,0.4-0.7,0.8-0.7s0.8,0.3,0.8,0.8h-0.5c0-0.2-0.1-0.4-0.4-0.4c-0.2,0-0.3,0.1-0.3,0.3
			c0,0.2,0.2,0.2,0.6,0.4C261,139.6,261.4,139.7,261.4,140.1 M175.8,145.1v1h0.6c0.5,0,0.5-0.3,0.5-0.5c0-0.2-0.1-0.5-0.5-0.5H175.8
			L175.8,145.1z M176.4,144.6c0.5,0,0.5-0.3,0.5-0.5c0-0.2-0.1-0.5-0.5-0.5h-0.6v1C175.8,144.6,176.4,144.6,176.4,144.6z
			 M175.2,143.1h1.2c0.9,0,1.1,0.6,1.1,1c0,0.4-0.3,0.7-0.6,0.8c0.2,0,0.6,0.3,0.6,0.8c0,0.4-0.2,1-1.1,1h-1.2V143.1z M178.5,145.3
			h1.1c0-0.3-0.2-0.6-0.5-0.6C178.7,144.6,178.5,144.9,178.5,145.3L178.5,145.3z M178.5,145.6c0,0.3,0.2,0.6,0.6,0.6
			c0.3,0,0.4-0.2,0.5-0.3h0.5c-0.1,0.4-0.4,0.8-1,0.8c-0.7,0-1.1-0.6-1.1-1.2c0-0.7,0.4-1.2,1.1-1.2c0.6,0,1.1,0.4,1.1,1.1
			c0,0.1,0,0.2,0,0.3H178.5z M182.2,144.8c-0.1,0-0.2,0-0.2,0c-0.4,0-0.7,0.3-0.7,0.8v1h-0.5v-2.4h0.5v0.4c0.1-0.2,0.4-0.4,0.7-0.4
			c0.1,0,0.2,0,0.2,0.1C182.2,144.3,182.2,144.8,182.2,144.8z M184.7,144.3v2.4h-0.5v-0.3c-0.2,0.3-0.4,0.4-0.7,0.4
			c-0.3,0-0.5-0.1-0.7-0.3c-0.1-0.2-0.2-0.4-0.2-0.7v-1.4h0.5v1.2c0,0.4,0.1,0.7,0.5,0.7c0.4,0,0.5-0.3,0.5-0.7v-1.2
			C184.2,144.3,184.7,144.3,184.7,144.3z M186.8,143.6c-0.1,0-0.2-0.1-0.2-0.1c-0.2,0-0.4,0-0.4,0.4v0.3h0.6v0.4h-0.6v1.9h-0.5v-1.9
			h-0.5v-0.4h0.5V144c0-0.9,0.5-1,0.8-1c0.2,0,0.3,0.1,0.3,0.1V143.6L186.8,143.6z M188.9,146c0,0.5-0.4,0.7-0.9,0.7
			s-0.9-0.3-0.9-0.8h0.5c0,0.3,0.2,0.4,0.4,0.4c0.2,0,0.4-0.1,0.4-0.3c0-0.2-0.2-0.2-0.7-0.4c-0.3-0.1-0.5-0.2-0.5-0.7
			c0-0.4,0.4-0.7,0.8-0.7s0.8,0.3,0.8,0.8h-0.5c0-0.2-0.1-0.4-0.4-0.4c-0.2,0-0.3,0.1-0.3,0.3c0,0.2,0.2,0.2,0.6,0.4
			C188.6,145.5,188.9,145.6,188.9,146 M190.8,143.6c-0.1-0.1-0.2-0.1-0.2-0.1c-0.2,0-0.4,0-0.4,0.4v0.3h0.6v0.4h-0.6v1.9h-0.5v-1.9
			h-0.5v-0.4h0.5V144c0-0.9,0.5-1,0.8-1c0.2,0,0.3,0.1,0.3,0.1V143.6L190.8,143.6z M193,145.5c0-0.4-0.3-0.7-0.7-0.7
			c-0.4,0-0.6,0.3-0.6,0.7c0,0.4,0.3,0.7,0.6,0.7C192.8,146.3,193,145.9,193,145.5L193,145.5z M193.6,144.3v2.4H193v-0.3
			c-0.2,0.2-0.4,0.4-0.7,0.4c-0.7,0-1.2-0.6-1.2-1.2c0-0.7,0.5-1.2,1.2-1.2c0.3,0,0.5,0.2,0.7,0.4v-0.3L193.6,144.3L193.6,144.3z
			 M195.8,145.1c-0.1-0.3-0.2-0.4-0.5-0.4c-0.4,0-0.6,0.3-0.6,0.7s0.2,0.7,0.6,0.7c0.3,0,0.4-0.2,0.5-0.4h0.5
			c-0.1,0.5-0.4,0.9-1.1,0.9c-0.7,0-1.1-0.6-1.1-1.2s0.4-1.2,1.1-1.2s1,0.4,1.1,1H195.8L195.8,145.1z M197,143.1h0.5v1.5
			c0.2-0.3,0.4-0.4,0.7-0.4s0.5,0.1,0.7,0.3c0.1,0.2,0.2,0.4,0.2,0.7v1.4h-0.5v-1.2c0-0.4-0.1-0.7-0.5-0.7s-0.5,0.3-0.5,0.7v1.2H197
			L197,143.1L197,143.1z M201.4,146c0,0.5-0.4,0.7-0.9,0.7s-0.9-0.3-0.9-0.8h0.5c0,0.3,0.2,0.4,0.4,0.4c0.2,0,0.4-0.1,0.4-0.3
			c0-0.2-0.2-0.2-0.7-0.4c-0.3-0.1-0.5-0.2-0.5-0.7c0-0.4,0.4-0.7,0.8-0.7c0.5,0,0.8,0.3,0.8,0.8h-0.5c0-0.2-0.1-0.4-0.4-0.4
			c-0.2,0-0.3,0.1-0.3,0.3c0,0.2,0.2,0.2,0.6,0.4C201.1,145.5,201.4,145.6,201.4,146 M203.5,145.1c-0.1-0.3-0.2-0.4-0.5-0.4
			c-0.4,0-0.6,0.3-0.6,0.7s0.2,0.7,0.6,0.7c0.3,0,0.4-0.2,0.5-0.4h0.5c-0.1,0.5-0.4,0.9-1.1,0.9c-0.7,0-1.1-0.6-1.1-1.2
			s0.4-1.2,1.1-1.2c0.7,0,1,0.4,1.1,1C204,145.1,203.5,145.1,203.5,145.1z M204.7,143.1h0.5v1.5c0.2-0.3,0.4-0.4,0.7-0.4
			s0.5,0.1,0.7,0.3c0.1,0.2,0.2,0.4,0.2,0.7v1.4h-0.5v-1.2c0-0.4-0.1-0.7-0.5-0.7s-0.5,0.3-0.5,0.7v1.2h-0.5L204.7,143.1
			L204.7,143.1z M209.5,144.3v2.4H209v-0.3c-0.2,0.3-0.4,0.4-0.7,0.4c-0.3,0-0.5-0.1-0.7-0.3c-0.1-0.2-0.2-0.4-0.2-0.7v-1.4h0.5v1.2
			c0,0.4,0.1,0.7,0.5,0.7s0.5-0.3,0.5-0.7v-1.2L209.5,144.3L209.5,144.3z M210.2,146.7h0.5v-3.6h-0.5V146.7z M211.9,145.3h1.1
			c0-0.3-0.2-0.6-0.5-0.6C212.1,144.6,211.9,144.9,211.9,145.3L211.9,145.3z M211.9,145.6c0,0.3,0.2,0.6,0.6,0.6
			c0.3,0,0.4-0.2,0.5-0.3h0.5c-0.1,0.4-0.4,0.8-1,0.8c-0.7,0-1.1-0.6-1.1-1.2c0-0.7,0.4-1.2,1.1-1.2c0.6,0,1.1,0.4,1.1,1.1
			c0,0.1,0,0.2,0,0.3H211.9z M216.5,143.6c-0.1,0-0.2-0.1-0.2-0.1c-0.2,0-0.4,0-0.4,0.4v0.3h0.6v0.4h-0.6v1.9h-0.5v-1.9h-0.5v-0.4
			h0.5V144c0-0.9,0.5-1,0.8-1c0.2,0,0.3,0.1,0.3,0.1V143.6L216.5,143.6z M218.5,143.1L218.5,143.1z M217.4,143.1
			c0.2,0,0.4,0.2,0.4,0.4s-0.2,0.4-0.4,0.4s-0.4-0.2-0.4-0.4S217.2,143.1,217.4,143.1z M219,146.7h-0.5v-0.3
			c-0.2,0.3-0.4,0.4-0.7,0.4s-0.5-0.1-0.7-0.3c-0.1-0.2-0.2-0.4-0.2-0.7v-1.4h0.5v1.2c0,0.4,0.1,0.7,0.5,0.7c0.4,0,0.5-0.3,0.5-0.7
			v-1.2h0.5L219,146.7L219,146.7z M221.2,144.8c-0.1,0-0.2,0-0.2,0c-0.4,0-0.7,0.3-0.7,0.8v1h-0.5v-2.4h0.5v0.4
			c0.1-0.2,0.4-0.4,0.7-0.4c0.1,0,0.2,0,0.2,0.1C221.2,144.3,221.2,144.8,221.2,144.8z M224.7,144.9h1.6v0.5h-0.4
			c-0.2,0.8-0.7,1.3-1.6,1.3c-1.1,0-1.8-0.9-1.8-1.9s0.7-1.9,1.8-1.9c0.8,0,1.4,0.5,1.4,1.2h-0.5c-0.1-0.3-0.4-0.6-0.9-0.6
			c-0.7,0-1.2,0.7-1.2,1.3c0,0.7,0.4,1.3,1.2,1.3c0.6,0,0.9-0.4,1-0.8h-0.6C224.7,145.4,224.7,144.9,224.7,144.9z M227.2,145.3h1.1
			c0-0.3-0.2-0.6-0.5-0.6C227.4,144.6,227.2,144.9,227.2,145.3z M227.2,145.6c0,0.3,0.2,0.6,0.6,0.6c0.3,0,0.4-0.2,0.5-0.3h0.5
			c-0.1,0.4-0.4,0.8-1,0.8c-0.7,0-1.1-0.6-1.1-1.2c0-0.7,0.4-1.2,1.1-1.2c0.6,0,1.1,0.4,1.1,1.1c0,0.1,0,0.2,0,0.3H227.2
			L227.2,145.6z M231.1,146c0,0.5-0.4,0.7-0.9,0.7c-0.5,0-0.9-0.3-0.9-0.8h0.5c0,0.3,0.2,0.4,0.4,0.4c0.2,0,0.4-0.1,0.4-0.3
			c0-0.2-0.2-0.2-0.7-0.4c-0.3-0.1-0.5-0.2-0.5-0.7c0-0.4,0.4-0.7,0.8-0.7c0.5,0,0.8,0.3,0.8,0.8h-0.5c0-0.2-0.1-0.4-0.4-0.4
			c-0.2,0-0.3,0.1-0.3,0.3c0,0.2,0.2,0.2,0.6,0.4C230.8,145.5,231.1,145.6,231.1,146 M233,146.7c-0.1,0-0.3,0.1-0.4,0.1
			c-0.3,0-0.7-0.1-0.7-0.8v-1.1h-0.4v-0.4h0.4v-0.7h0.5v0.7h0.5v0.4h-0.5v1c0,0.4,0.1,0.4,0.3,0.4c0.1,0,0.2,0,0.3,0
			C233,146.2,233,146.7,233,146.7z M235.1,145.5c0-0.4-0.3-0.7-0.7-0.7c-0.4,0-0.6,0.3-0.6,0.7c0,0.4,0.3,0.7,0.6,0.7
			C234.9,146.3,235.1,145.9,235.1,145.5z M235.7,144.3v2.4h-0.5v-0.3c-0.2,0.2-0.4,0.4-0.7,0.4c-0.7,0-1.2-0.6-1.2-1.2
			c0-0.7,0.5-1.2,1.2-1.2c0.3,0,0.5,0.2,0.7,0.4v-0.3C235.1,144.3,235.7,144.3,235.7,144.3z M236.4,146.7h0.5v-3.6h-0.5V146.7z
			 M239,146.7c-0.1,0-0.3,0.1-0.4,0.1c-0.3,0-0.7-0.1-0.7-0.8v-1.1h-0.4v-0.4h0.4v-0.7h0.5v0.7h0.5v0.4h-0.5v1
			c0,0.4,0.1,0.4,0.3,0.4c0.1,0,0.2,0,0.3,0V146.7L239,146.7z M241.5,144.3v2.4h-0.5v-0.3c-0.2,0.3-0.4,0.4-0.7,0.4
			s-0.5-0.1-0.7-0.3c-0.1-0.2-0.2-0.4-0.2-0.7v-1.4h0.5v1.2c0,0.4,0.1,0.7,0.5,0.7c0.4,0,0.5-0.3,0.5-0.7v-1.2
			C240.9,144.3,241.5,144.3,241.5,144.3z M242.2,144.3h0.5v0.3c0.2-0.3,0.4-0.4,0.7-0.4c0.3,0,0.5,0.1,0.7,0.3
			c0.1,0.2,0.2,0.4,0.2,0.7v1.4h-0.5v-1.2c0-0.4-0.1-0.7-0.5-0.7c-0.4,0-0.5,0.3-0.5,0.7v1.2h-0.5
			C242.2,146.7,242.2,144.3,242.2,144.3z M245.4,145.5c0,0.4,0.3,0.7,0.6,0.7c0.4,0,0.7-0.3,0.7-0.7c0-0.4-0.3-0.7-0.7-0.7
			C245.6,144.7,245.4,145.1,245.4,145.5z M247.2,146.8c0,0.4-0.1,0.7-0.3,0.8c-0.2,0.2-0.5,0.3-0.9,0.3s-0.6-0.1-0.8-0.3
			c-0.2-0.2-0.3-0.4-0.3-0.7h0.5c0.1,0.3,0.2,0.5,0.6,0.5c0.4,0,0.7-0.2,0.7-0.6v-0.4c-0.2,0.2-0.4,0.4-0.7,0.4
			c-0.7,0-1.2-0.6-1.2-1.2c0-0.7,0.5-1.2,1.2-1.2c0.3,0,0.5,0.2,0.7,0.4v-0.3h0.5C247.2,144.3,247.2,146.8,247.2,146.8z
			 M176.4,152.6H176l-1.2-3.6h0.6l0.8,2.6l0.8-2.6h0.6L176.4,152.6z M179.5,151.4c0-0.4-0.3-0.7-0.7-0.7c-0.4,0-0.6,0.3-0.6,0.7
			c0,0.4,0.3,0.7,0.6,0.7C179.2,152.1,179.5,151.8,179.5,151.4 M177.6,151.4c0-0.7,0.5-1.2,1.2-1.2c0.7,0,1.2,0.6,1.2,1.2
			c0,0.7-0.5,1.2-1.2,1.2C178.1,152.6,177.6,152,177.6,151.4 M182.1,151c-0.1-0.3-0.2-0.4-0.5-0.4c-0.4,0-0.6,0.3-0.6,0.7
			s0.2,0.7,0.6,0.7c0.3,0,0.4-0.2,0.5-0.4h0.5c-0.1,0.5-0.4,0.9-1.1,0.9c-0.7,0-1.1-0.6-1.1-1.2s0.4-1.2,1.1-1.2c0.7,0,1,0.4,1.1,1
			H182.1L182.1,151z M185,151.4c0-0.4-0.3-0.7-0.7-0.7c-0.4,0-0.6,0.3-0.6,0.7c0,0.4,0.3,0.7,0.6,0.7
			C184.7,152.1,185,151.8,185,151.4z M185.5,150.1v2.4H185v-0.3c-0.2,0.2-0.4,0.4-0.7,0.4c-0.7,0-1.2-0.6-1.2-1.2
			c0-0.7,0.5-1.2,1.2-1.2c0.3,0,0.5,0.2,0.7,0.4v-0.3L185.5,150.1L185.5,150.1z M187.5,152.6c-0.1,0-0.3,0.1-0.4,0.1
			c-0.3,0-0.7-0.1-0.7-0.8v-1.1H186v-0.4h0.4v-0.7h0.5v0.7h0.5v0.4h-0.5v1c0,0.4,0.1,0.4,0.3,0.4c0.1,0,0.2,0,0.3,0V152.6z
			 M187.9,152.6h0.5v-2.4h-0.5V152.6z M188.2,148.9c0.2,0,0.4,0.2,0.4,0.4c0,0.2-0.2,0.4-0.4,0.4h-0.1c-0.2,0-0.4-0.2-0.4-0.4
			C187.9,149.1,188,148.9,188.2,148.9L188.2,148.9z M190.9,151.4c0-0.4-0.3-0.7-0.7-0.7c-0.4,0-0.6,0.3-0.6,0.7
			c0,0.4,0.3,0.7,0.6,0.7C190.6,152.1,190.9,151.8,190.9,151.4 M189,151.4c0-0.7,0.5-1.2,1.2-1.2c0.7,0,1.2,0.6,1.2,1.2
			c0,0.7-0.5,1.2-1.2,1.2C189.5,152.6,189,152,189,151.4 M192,150.1h0.5v0.3c0.2-0.3,0.4-0.4,0.7-0.4s0.5,0.1,0.7,0.3
			c0.1,0.2,0.2,0.4,0.2,0.7v1.4h-0.5v-1.2c0-0.4-0.1-0.7-0.5-0.7s-0.5,0.3-0.5,0.7v1.2h-0.5C192,152.6,192,150.1,192,150.1z
			 M196.5,151.4c0-0.4-0.3-0.7-0.7-0.7c-0.4,0-0.6,0.3-0.6,0.7c0,0.4,0.3,0.7,0.6,0.7C196.2,152.1,196.5,151.8,196.5,151.4z
			 M197,150.1v2.4h-0.5v-0.3c-0.2,0.2-0.4,0.4-0.7,0.4c-0.7,0-1.2-0.6-1.2-1.2c0-0.7,0.5-1.2,1.2-1.2c0.3,0,0.5,0.2,0.7,0.4v-0.3
			L197,150.1L197,150.1z M197.8,152.6h0.5V149h-0.5V152.6z M200.5,151.4c0,0.4,0.3,0.7,0.6,0.7c0.3,0,0.5-0.2,0.5-0.5
			c0-0.3-0.3-0.5-0.5-0.6c-0.6-0.2-1.1-0.4-1.1-1.1c0-0.6,0.5-1,1.1-1c0.6,0,1.1,0.4,1.1,1.1h-0.5c0-0.3-0.2-0.6-0.5-0.6
			c-0.3,0-0.5,0.2-0.5,0.4c0,0.3,0.3,0.4,0.5,0.5c0.5,0.2,1.2,0.4,1.2,1.1c0,0.7-0.5,1.1-1.2,1.1c-0.6,0-1.2-0.4-1.2-1.2
			C200,151.4,200.5,151.4,200.5,151.4z M204.4,151c-0.1-0.3-0.2-0.4-0.5-0.4c-0.4,0-0.6,0.3-0.6,0.7s0.2,0.7,0.6,0.7
			c0.3,0,0.4-0.2,0.5-0.4h0.5c-0.1,0.5-0.4,0.9-1.1,0.9c-0.7,0-1.1-0.6-1.1-1.2s0.4-1.2,1.1-1.2s1,0.4,1.1,1H204.4L204.4,151z
			 M205.6,149h0.5v1.5c0.2-0.3,0.4-0.4,0.7-0.4s0.5,0.1,0.7,0.3c0.1,0.2,0.2,0.4,0.2,0.7v1.4h-0.5v-1.2c0-0.4-0.1-0.7-0.5-0.7
			s-0.5,0.3-0.5,0.7v1.2h-0.5L205.6,149L205.6,149z M210,151.4c0-0.4-0.3-0.7-0.7-0.7c-0.4,0-0.6,0.3-0.6,0.7c0,0.4,0.3,0.7,0.6,0.7
			C209.8,152.1,210,151.8,210,151.4 M208.2,151.4c0-0.7,0.5-1.2,1.2-1.2c0.7,0,1.2,0.6,1.2,1.2c0,0.7-0.5,1.2-1.2,1.2
			C208.6,152.6,208.2,152,208.2,151.4 M212.8,151.4c0-0.4-0.3-0.7-0.7-0.7c-0.4,0-0.6,0.3-0.6,0.7c0,0.4,0.3,0.7,0.6,0.7
			C212.6,152.1,212.8,151.8,212.8,151.4 M211,151.4c0-0.7,0.5-1.2,1.2-1.2c0.7,0,1.2,0.6,1.2,1.2c0,0.7-0.5,1.2-1.2,1.2
			C211.5,152.6,211,152,211,151.4 M214,152.6h0.5V149H214V152.6z M218,151.4c0-0.4-0.3-0.7-0.7-0.7c-0.4,0-0.6,0.3-0.6,0.7
			c0,0.4,0.3,0.7,0.6,0.7C217.7,152.1,218,151.8,218,151.4 M216.2,151.4c0-0.7,0.5-1.2,1.2-1.2c0.7,0,1.2,0.6,1.2,1.2
			c0,0.7-0.5,1.2-1.2,1.2C216.6,152.6,216.2,152,216.2,151.4 M220.4,149.5c-0.1,0-0.2-0.1-0.2-0.1c-0.2,0-0.4,0-0.4,0.4v0.3h0.6v0.4
			h-0.6v2h-0.5v-1.9h-0.5v-0.4h0.5v-0.3c0-0.9,0.5-1,0.8-1c0.2,0,0.3,0.1,0.3,0.1C220.4,149,220.4,149.5,220.4,149.5z M223,149.9
			l-0.5,1.6h1L223,149.9z M223.8,152.6l-0.2-0.4h-1.3l-0.2,0.4h-0.6l1.2-3.6h0.4l1.2,3.6H223.8z M225.3,151.4c0,0.4,0.3,0.7,0.7,0.7
			c0.4,0,0.6-0.3,0.6-0.7s-0.3-0.7-0.6-0.7C225.6,150.6,225.3,150.9,225.3,151.4L225.3,151.4z M225.3,150.5c0.2-0.2,0.4-0.4,0.7-0.4
			c0.7,0,1.2,0.6,1.2,1.2s-0.5,1.2-1.2,1.2c-0.3,0-0.5-0.2-0.7-0.4v1.5h-0.5v-3.6h0.5V150.5L225.3,150.5z M228.3,151.4
			c0,0.4,0.3,0.7,0.7,0.7c0.4,0,0.6-0.3,0.6-0.7s-0.3-0.7-0.6-0.7C228.6,150.6,228.3,150.9,228.3,151.4z M228.3,150.5
			c0.2-0.2,0.4-0.4,0.7-0.4c0.7,0,1.2,0.6,1.2,1.2s-0.5,1.2-1.2,1.2c-0.3,0-0.5-0.2-0.7-0.4v1.5h-0.5v-3.6h0.5V150.5z M230.7,152.6
			h0.5V149h-0.5V152.6z M232,152.6h0.5v-2.4H232V152.6z M232.3,148.9c0.2,0,0.4,0.2,0.4,0.4c0,0.2-0.2,0.4-0.4,0.4c0,0,0,0-0.1,0
			c-0.2,0-0.4-0.2-0.4-0.4C231.8,149.1,232.1,148.9,232.3,148.9L232.3,148.9L232.3,148.9z M233.6,151.1h1.1c0-0.3-0.2-0.6-0.5-0.6
			C233.9,150.5,233.6,150.7,233.6,151.1L233.6,151.1z M233.6,151.5c0,0.3,0.2,0.6,0.6,0.6c0.3,0,0.4-0.2,0.5-0.3h0.5
			c-0.1,0.4-0.4,0.8-1,0.8c-0.7,0-1.1-0.6-1.1-1.2c0-0.7,0.4-1.2,1.1-1.2c0.6,0,1.1,0.4,1.1,1.1c0,0.1,0,0.2,0,0.3
			C235.2,151.5,233.6,151.5,233.6,151.5z M237.6,151.4c0-0.4-0.3-0.7-0.7-0.7c-0.4,0-0.6,0.3-0.6,0.7c0,0.4,0.3,0.7,0.6,0.7
			C237.3,152.1,237.6,151.8,237.6,151.4L237.6,151.4z M237.6,152.2c-0.2,0.2-0.4,0.4-0.7,0.4c-0.7,0-1.2-0.6-1.2-1.2
			c0-0.7,0.5-1.2,1.2-1.2c0.3,0,0.5,0.2,0.7,0.4V149h0.5v3.5h-0.5V152.2L237.6,152.2z M240.9,149.9l-0.5,1.6h1L240.9,149.9z
			 M241.7,152.6l-0.2-0.4h-1.3l-0.2,0.4h-0.6l1.2-3.6h0.4l1.2,3.6C242.3,152.6,241.7,152.6,241.7,152.6z M244.2,150.7
			c-0.1,0-0.2,0-0.2,0c-0.4,0-0.7,0.3-0.7,0.8v1h-0.5v-2.4h0.5v0.4c0.1-0.2,0.4-0.4,0.7-0.4c0.1,0,0.2,0,0.2,0.1
			C244.2,150.1,244.2,150.7,244.2,150.7z M246,152.6c-0.1,0-0.3,0.1-0.4,0.1c-0.3,0-0.7-0.1-0.7-0.8v-1.1h-0.4v-0.4h0.4v-0.7h0.5
			v0.7h0.5v0.4h-0.5v1c0,0.4,0.1,0.4,0.3,0.4c0.1,0,0.2,0,0.3,0V152.6L246,152.6z M248.2,151.9c0,0.5-0.4,0.7-0.9,0.7
			c-0.5,0-0.9-0.3-0.9-0.8h0.5c0,0.3,0.2,0.4,0.4,0.4c0.2,0,0.4-0.1,0.4-0.3s-0.2-0.2-0.7-0.4c-0.3-0.1-0.5-0.2-0.5-0.7
			c0-0.4,0.4-0.7,0.8-0.7s0.8,0.3,0.8,0.8h-0.5c0-0.2-0.1-0.4-0.4-0.4c-0.2,0-0.3,0.1-0.3,0.3c0,0.2,0.2,0.2,0.6,0.4
			C247.9,151.3,248.2,151.4,248.2,151.9 M180.7,123.3c0-1.2-0.8-2-2-2c-1.1,0-2,0.7-2,2H180.7L180.7,123.3z M178.7,119.6
			c2.1,0,3.8,1.7,3.8,3.9c0,0.3,0,0.7-0.1,1.3h-5.8c0,1.2,0.6,2.2,2.1,2.2c1.1,0,1.5-0.5,1.8-1.1h1.9c-0.3,1.5-1.5,2.8-3.7,2.8
			c-2.8,0-4.1-2.2-4.1-4.6C174.7,121.6,176.1,119.6,178.7,119.6L178.7,119.6z M184.2,128.5h1.9v-8.7h-1.9V128.5L184.2,128.5z
			 M185.2,115.5c0.7,0,1.3,0.6,1.3,1.3l0,0c0,0.7-0.6,1.3-1.3,1.3c-0.7,0-1.3-0.6-1.3-1.3C183.9,116.1,184.5,115.5,185.2,115.5z
			 M188.2,128.5v-13h1.9v8.2l3-3.8h2.4l-3.4,4.3l3.4,4.3h-2.4l-3-3.9v3.8H188.2z"/>
		<defs>
			
				<filter id="Adobe_OpacityMaskFilter_00000091695176315449092730000003109285720763525565_" filterUnits="userSpaceOnUse" x="175" y="119.6" width="38.3" height="11.2">
				<feColorMatrix  type="matrix" values="1 0 0 0 0  0 1 0 0 0  0 0 1 0 0  0 0 0 1 0"/>
			</filter>
		</defs>
		
			<mask maskUnits="userSpaceOnUse" x="175" y="119.6" width="38.3" height="11.2" id="b_00000073692091263644151750000008341893146247298210_">
			<g style="filter:url(#Adobe_OpacityMaskFilter_00000091695176315449092730000003109285720763525565_);">
				<path id="a_00000078028092177675360730000012407210046251135370_" class="st3" d="M174.7,153.7h86.7v-38.3h-86.7V153.7z"/>
			</g>
		</mask>
		<path class="st6" d="M199.7,126.9c1.4,0,2.4-1.3,2.4-2.8c0-1.5-1-2.8-2.4-2.8c-1.4,0-2.4,1.3-2.4,2.8
			C197.3,125.7,198.3,126.9,199.7,126.9 M199.7,119.6c2.6,0,4.4,2.1,4.4,4.6s-1.7,4.6-4.4,4.6c-2.6,0-4.3-2.1-4.3-4.6
			C195.4,121.8,197.1,119.6,199.7,119.6 M205.5,128.5v-8.7h1.9v1.2c0.5-1,1.4-1.5,2.7-1.5c1.2,0,2,0.4,2.4,1.2
			c0.4,0.7,0.5,1.3,0.5,2.6v5.2h-1.9v-4.5c0-1.5-0.4-2.6-1.8-2.6c-1.3,0-2,1.1-2,2.6v4.5C207.4,128.5,205.5,128.5,205.5,128.5z
			 M191.5,129.9H175v1h16.9L191.5,129.9z M192.8,129.9l0.4,1h20.1v-1H192.8z"/>
	</g>
</g>
<g>
	<defs>
		<rect id="SVGID_1_" x="-491.3" y="-3772.3" width="1540" height="7953"/>
	</defs>
	<clipPath id="SVGID_00000096043042465750487770000011399852676804209585_">
		<use xlink:href="#SVGID_1_"  style="overflow:visible;"/>
	</clipPath>
	<path style="clip-path:url(#SVGID_00000096043042465750487770000011399852676804209585_);" d="M-291.9,3716.1
		c-0.3,5.3-1.5,9.9-5.3,13.8c-3.8,3.9-8.5,5.1-13.8,5.3c-5.4,0.3-21.7,0.3-27.1,0c-5.3-0.3-9.9-1.5-13.8-5.3s-5.1-8.5-5.3-13.8
		c-0.3-5.4-0.3-21.7,0-27.1c0.3-5.3,1.5-9.9,5.3-13.8s8.5-5,13.8-5.3c5.4-0.3,21.7-0.3,27.1,0c5.3,0.3,9.9,1.5,13.8,5.3
		c3.9,3.8,5.1,8.5,5.3,13.8C-291.6,3694.5-291.6,3710.7-291.9,3716.1z M-297.6,3702.6c0-4.8,0.4-15-1.3-19.4
		c-1.2-2.9-3.4-5.1-6.2-6.2c-4.3-1.7-14.6-1.3-19.4-1.3s-15-0.4-19.4,1.3c-2.9,1.2-5.1,3.4-6.2,6.2c-1.7,4.3-1.3,14.6-1.3,19.4
		s-0.4,15,1.3,19.4c1.2,2.9,3.4,5.1,6.2,6.2c4.3,1.7,14.6,1.3,19.4,1.3s15,0.4,19.4-1.3c2.9-1.2,5.1-3.4,6.2-6.2
		C-297.2,3717.6-297.6,3707.4-297.6,3702.6z M-307.7,3702.6c0,9.3-7.5,16.8-16.8,16.8s-16.8-7.5-16.8-16.8s7.5-16.8,16.8-16.8
		S-307.7,3693.3-307.7,3702.6z M-313.6,3702.6c0-6-4.9-10.9-10.9-10.9s-10.9,4.9-10.9,10.9s4.9,10.9,10.9,10.9
		S-313.6,3708.6-313.6,3702.6z M-307,3681.1c-2.2,0-3.9,1.8-3.9,3.9s1.7,3.9,3.9,3.9c2.2,0,3.9-1.7,3.9-3.9
		C-303,3682.9-304.8,3681.1-307,3681.1z"/>
	<path style="clip-path:url(#SVGID_00000096043042465750487770000011399852676804209585_);" d="M-218.8,3738.5v-25.4h8.5l1.6-10.5
		h-10.1v-6.8c0-2.9,1.4-5.7,5.9-5.7h4.6v-8.9c0,0-4.2-0.7-8.1-0.7c-8.3,0-13.7,5-13.7,14.1v8h-9.2v10.5h9.2v25.4
		c-17.4-2.7-30.7-17.8-30.7-35.9c0-20.1,16.3-36.3,36.3-36.3s36.3,16.3,36.3,36.3C-188.1,3720.7-201.4,3735.8-218.8,3738.5z"/>
	<path style="clip-path:url(#SVGID_00000096043042465750487770000011399852676804209585_);" d="M-88.8,3674.5v56.2
		c0,2.6-2.1,4.7-4.7,4.7h-56.3c-2.6,0-4.7-2.1-4.7-4.7v-56.2c0-2.6,2.1-4.7,4.7-4.7h56.3C-90.9,3669.8-88.8,3671.9-88.8,3674.5z
		 M-133.8,3684.8c0-3.1-2.5-5.6-5.6-5.6c-3.1,0-5.6,2.5-5.6,5.6s2.5,5.6,5.6,5.6S-133.8,3687.9-133.8,3684.8z M-134.6,3726v-31.3
		h-9.7v31.3H-134.6L-134.6,3726z M-98.1,3708.9c0-8.4-1.8-14.9-11.7-14.9c-4.7,0-7.9,2.6-9.2,5.1h-0.1v-4.3h-9.3v31.3h9.7v-15.5
		c0-4.1,0.8-8,5.8-8c5,0,5.1,4.7,5.1,8.3v15.2h9.7V3708.9z"/>
</g>
<g>
	<defs>
		<rect id="SVGID_00000013168690834905033580000005849935691957797036_" x="-491.3" y="-3772.3" width="1540" height="7953"/>
	</defs>
	<clipPath id="SVGID_00000142885743661689750670000006887847253724097206_">
		<use xlink:href="#SVGID_00000013168690834905033580000005849935691957797036_"  style="overflow:visible;"/>
	</clipPath>
	<path style="clip-path:url(#SVGID_00000142885743661689750670000006887847253724097206_);" d="M-291.9,3716.1
		c-0.3,5.3-1.5,9.9-5.3,13.8c-3.8,3.9-8.5,5.1-13.8,5.3c-5.4,0.3-21.7,0.3-27.1,0c-5.3-0.3-9.9-1.5-13.8-5.3s-5.1-8.5-5.3-13.8
		c-0.3-5.4-0.3-21.7,0-27.1c0.3-5.3,1.5-9.9,5.3-13.8s8.5-5,13.8-5.3c5.4-0.3,21.7-0.3,27.1,0c5.3,0.3,9.9,1.5,13.8,5.3
		c3.9,3.8,5.1,8.5,5.3,13.8C-291.6,3694.5-291.6,3710.7-291.9,3716.1z M-297.6,3702.6c0-4.8,0.4-15-1.3-19.4
		c-1.2-2.9-3.4-5.1-6.2-6.2c-4.3-1.7-14.6-1.3-19.4-1.3s-15-0.4-19.4,1.3c-2.9,1.2-5.1,3.4-6.2,6.2c-1.7,4.3-1.3,14.6-1.3,19.4
		s-0.4,15,1.3,19.4c1.2,2.9,3.4,5.1,6.2,6.2c4.3,1.7,14.6,1.3,19.4,1.3s15,0.4,19.4-1.3c2.9-1.2,5.1-3.4,6.2-6.2
		C-297.2,3717.6-297.6,3707.4-297.6,3702.6z M-307.7,3702.6c0,9.3-7.5,16.8-16.8,16.8s-16.8-7.5-16.8-16.8s7.5-16.8,16.8-16.8
		S-307.7,3693.3-307.7,3702.6z M-313.6,3702.6c0-6-4.9-10.9-10.9-10.9s-10.9,4.9-10.9,10.9s4.9,10.9,10.9,10.9
		S-313.6,3708.6-313.6,3702.6z M-307,3681.1c-2.2,0-3.9,1.8-3.9,3.9s1.7,3.9,3.9,3.9c2.2,0,3.9-1.7,3.9-3.9
		C-303,3682.9-304.8,3681.1-307,3681.1z"/>
	<path style="clip-path:url(#SVGID_00000142885743661689750670000006887847253724097206_);" d="M-218.8,3738.5v-25.4h8.5l1.6-10.5
		h-10.1v-6.8c0-2.9,1.4-5.7,5.9-5.7h4.6v-8.9c0,0-4.2-0.7-8.1-0.7c-8.3,0-13.7,5-13.7,14.1v8h-9.2v10.5h9.2v25.4
		c-17.4-2.7-30.7-17.8-30.7-35.9c0-20.1,16.3-36.3,36.3-36.3s36.3,16.3,36.3,36.3C-188.1,3720.7-201.4,3735.8-218.8,3738.5z"/>
	<path style="clip-path:url(#SVGID_00000142885743661689750670000006887847253724097206_);" d="M-88.8,3674.5v56.2
		c0,2.6-2.1,4.7-4.7,4.7h-56.3c-2.6,0-4.7-2.1-4.7-4.7v-56.2c0-2.6,2.1-4.7,4.7-4.7h56.3C-90.9,3669.8-88.8,3671.9-88.8,3674.5z
		 M-133.8,3684.8c0-3.1-2.5-5.6-5.6-5.6c-3.1,0-5.6,2.5-5.6,5.6s2.5,5.6,5.6,5.6S-133.8,3687.9-133.8,3684.8z M-134.6,3726v-31.3
		h-9.7v31.3H-134.6L-134.6,3726z M-98.1,3708.9c0-8.4-1.8-14.9-11.7-14.9c-4.7,0-7.9,2.6-9.2,5.1h-0.1v-4.3h-9.3v31.3h9.7v-15.5
		c0-4.1,0.8-8,5.8-8c5,0,5.1,4.7,5.1,8.3v15.2h9.7V3708.9z"/>
</g>
<image style="overflow:visible;" width="225" height="225" xlink:href="../../../../Desktop/download-2.png"  transform="matrix(0.1521 0 0 0.1521 125.1364 21.6743)">
</image>
<image style="overflow:visible;" width="225" height="225" xlink:href="../../../../Desktop/download.png"  transform="matrix(0.1517 0 0 0.1517 26.7114 21.6743)">
</image>
<image style="overflow:visible;" width="225" height="225" xlink:href="../../../../Desktop/download-1.png"  transform="matrix(0.1517 0 0 0.1517 73.9805 21.6743)">
</image>
<text transform="matrix(1 0 0 1 401.9639 279.7072)" style="font-family:'MyriadPro-Regular'; font-size:12px;">Lorem ipsum</text>
</svg>
